<svg width="38" height="38" viewBox="0 0 38 38" fill="none" xmlns="http://www.w3.org/2000/svg">
<g filter="url(#filter0_d)">
<path d="M19 36C28.9411 36 37 27.9411 37 18C37 8.05887 28.9411 0 19 0C9.05887 0 1 8.05887 1 18C1 27.9411 9.05887 36 19 36Z" fill="#EBEDEE"/>
<path d="M30.047 31.4106C29.4859 31.8265 28.828 32.0673 28.2296 32.4137C28.0037 32.544 27.8138 32.513 27.604 32.3764C27.3135 32.1865 27.0081 32.0201 26.709 31.8439C26.4594 31.6887 26.2099 31.5323 25.9604 31.3771C25.1299 30.7899 24.2647 30.2599 23.3759 29.767C23.0742 29.5746 22.7725 29.3822 22.4721 29.191C21.5672 28.6324 20.661 28.0726 19.756 27.5139C19.5983 27.3414 19.4022 27.2309 19.1837 27.1539C18.2986 26.5829 17.4135 26.0106 16.5272 25.4396C16.2342 25.2435 15.9412 25.0461 15.6483 24.8499C14.8314 24.2988 14.0134 23.7476 13.1965 23.1964C12.9843 22.9879 12.7472 22.8153 12.4741 22.6937C11.6374 22.0767 10.8007 21.4597 9.96399 20.8428C9.69461 20.5188 9.31351 20.5324 8.94606 20.5026C7.50606 20.2866 6.06233 20.2568 4.6124 20.3772C4.19902 20.2817 3.78068 20.5237 3.36854 20.3599C3.14013 19.589 3.08675 18.792 3.01227 17.9975C3.92592 17.8423 4.85075 17.9044 5.76937 17.8672C6.19888 17.8498 6.83199 18.1266 7.01199 17.7083C7.16716 17.3446 6.60482 16.9759 6.33296 16.627C5.91089 15.9703 5.48882 15.3124 5.06675 14.6557C4.87309 14.364 4.68068 14.071 4.48703 13.7793C4.20399 13.3063 3.97433 12.7899 3.62674 12.3716C3.0855 11.7186 3.11157 11.1501 3.6913 10.5691C3.89737 10.3047 4.04385 9.98938 4.34551 9.8069C4.49199 9.86276 4.56151 9.98442 4.63351 10.1135C5.60799 11.8589 6.63958 13.5708 7.79903 15.2007C8.61958 16.3539 9.3644 17.5668 10.5338 18.4395C12.2481 19.7181 13.9625 20.9955 15.7091 22.2331C19.576 24.9728 23.5323 27.5698 27.6263 29.9582C28.4407 30.4299 29.3419 30.7577 30.047 31.4106Z" fill="#D57B43"/>
<path d="M18.1323 7.20124C19.0484 7.60097 19.8616 8.15835 20.5989 8.82993C20.7268 8.9938 20.8559 9.1589 20.9838 9.32276C20.944 9.52262 20.8882 9.72124 20.8658 9.92359C20.5902 12.4535 19.4035 14.431 17.3453 15.9331C16.6538 16.4383 15.8283 16.7537 15.2486 17.4141C14.7769 17.0739 14.2269 17.0156 13.6708 16.9808C13.4101 16.8319 13.1296 16.7549 12.8304 16.7412C11.9217 16.2149 11.1471 15.5632 10.7821 14.5328C10.6542 14.2461 10.6443 13.9121 10.4358 13.6564C10.4097 13.4752 10.3911 13.2939 10.3576 13.1152C10.1006 11.7323 9.96651 10.3618 10.7039 9.06331C10.9658 8.77904 11.3593 8.60648 11.4549 8.18069C11.8658 8.1931 12.1265 7.91379 12.4158 7.68786C13.3741 7.32662 14.3051 6.86979 15.3566 6.82511C15.7116 6.8189 16.0667 6.81269 16.4217 6.80524C16.6588 6.82511 16.8959 6.84497 17.133 6.86483C17.4657 6.9778 17.7984 7.08952 18.1323 7.20124ZM14.6366 11.921C15.3094 11.916 15.8693 11.3661 15.8668 10.7143C15.8643 10.0701 15.2895 9.46552 14.6664 9.45186C13.9389 9.43697 13.3865 10.0006 13.4002 10.7441C13.4138 11.4319 13.9327 11.9259 14.6366 11.921Z" fill="#B1E39F"/>
<path d="M30.047 31.4106C29.3419 30.7589 28.4407 30.4312 27.6288 29.957C23.5348 27.5686 19.5785 24.9704 15.7116 22.2319C13.965 20.9955 12.2506 19.7181 10.5363 18.4382C9.36689 17.5655 8.62206 16.3527 7.80151 15.1995C6.64206 13.5695 5.61048 11.8577 4.63599 10.1123C4.56399 9.98318 4.49323 9.86152 4.34799 9.80566C4.45847 9.468 4.73034 9.23587 4.91283 8.94538C5.07172 8.69214 5.248 8.4749 5.59683 8.58538C6.12938 9.47421 6.55517 10.4276 7.19075 11.2543C7.25903 11.5138 7.408 11.7261 7.58675 11.921C8.08703 12.8396 8.66179 13.7098 9.29241 14.5428C9.42151 14.8171 9.5891 15.0641 9.80883 15.2739C10.4047 16.1603 10.9794 17.0665 11.9241 17.6425C12.1749 17.8386 12.4257 18.0348 12.6752 18.2309C14.567 19.7143 16.5048 21.1332 18.5084 22.4628H18.5072C18.527 22.5012 18.5568 22.5261 18.5953 22.5397C18.6487 22.5596 18.7021 22.5807 18.7567 22.6006C19.6443 23.3504 20.6262 23.9636 21.6131 24.5706C21.9011 24.7655 22.1903 24.9617 22.4783 25.1566C23.0978 25.5526 23.7185 25.9486 24.3379 26.3433C24.5068 26.4848 24.6719 26.6313 24.8941 26.6847C25.1523 26.9081 25.4452 27.0708 25.7543 27.2098C26.483 27.7237 27.249 28.1756 28.0459 28.5728C28.504 28.8459 28.9633 29.1203 29.4214 29.3934C29.9465 29.6764 30.4815 29.9446 30.9954 30.2462C31.4063 30.487 31.4051 30.7328 30.9917 30.9675C30.6913 31.14 30.4008 31.3461 30.047 31.4106Z" fill="#BE662D"/>
<path d="M30.4157 19.363C30.957 19.4698 31.3753 19.8534 31.893 20.0135C32.145 20.2072 32.397 20.4008 32.649 20.5932C34.0716 21.8334 34.8946 23.3317 34.5731 25.277C34.2181 27.4233 32.3573 29.5945 29.4251 29.1277C28.9695 28.8906 28.5152 28.6535 28.0596 28.4152C28.0633 28.147 28.0062 27.8615 28.0807 27.6145C28.2806 26.9441 28.113 26.4439 27.5134 26.0851C27.6425 25.9858 27.7878 25.9026 27.897 25.7847C29.5741 23.9735 30.2817 21.7812 30.4157 19.363Z" fill="#95D5A4"/>
<path d="M15.2498 17.4141C15.8295 16.7537 16.655 16.4383 17.3465 15.9331C19.4047 14.431 20.5914 12.4535 20.867 9.92359C20.8894 9.72124 20.944 9.52262 20.9849 9.32276C21.0681 9.40221 21.1501 9.4829 21.2332 9.56235C21.8775 10.4239 22.1891 11.4443 22.5901 12.4212C22.6819 12.7006 22.7725 12.9786 22.8644 13.2579C22.8185 13.4367 22.7477 13.613 22.7303 13.7942C22.5789 15.3534 21.9098 16.6481 20.8074 17.753C20.0415 18.5214 19.0819 19.0068 18.2204 19.6349C17.9672 19.5579 17.7189 19.445 17.4433 19.5368C17.0957 19.6535 16.7407 19.7503 16.3993 19.8819C16.0232 20.0272 15.6346 20.1377 15.2833 19.8981C14.9258 19.6535 15.0772 19.2749 15.1455 18.936C15.2485 18.4345 15.3454 17.9305 15.2498 17.4141Z" fill="#95D5A4"/>
<path d="M30.4157 19.363C30.2816 21.78 29.5741 23.9735 27.897 25.7847C27.7877 25.9026 27.6425 25.9858 27.5134 26.0851C27.2825 26.0851 27.0516 26.0851 26.8194 26.0851C26.5761 26.0367 26.3825 26.1732 26.1752 26.2601C25.7593 26.4352 25.367 26.681 24.8941 26.6872C24.6718 26.6338 24.5067 26.4861 24.3379 26.3458C24.3392 25.9597 24.3454 25.5749 24.3404 25.1901C24.3342 24.7519 24.4422 24.2876 24.0822 23.9201C24.9462 23.2759 25.6488 22.4839 26.1826 21.5491C26.8542 20.371 27.4985 19.1806 27.4364 17.7579C27.6847 17.8796 27.9329 18 28.18 18.1217C28.4283 18.36 28.7535 18.463 29.0489 18.617C29.5045 18.8652 29.9601 19.1135 30.4157 19.363Z" fill="#B1E39F"/>
<path d="M18.2204 19.6361C19.0819 19.008 20.0415 18.5226 20.8075 17.7542C21.9098 16.6494 22.5777 15.3546 22.7304 13.7955C22.7477 13.6142 22.8185 13.4379 22.8644 13.2592C22.898 13.2716 22.9339 13.2803 22.9699 13.2852C23.4218 14.2846 24.0773 15.1237 24.945 15.7966C25.0319 15.9083 25.12 16.0212 25.2069 16.1342C24.94 16.3999 25.094 16.7574 25.0083 17.069C24.5912 18.5884 23.6974 19.7801 22.5628 20.8241C22.1891 21.1692 21.6851 21.3393 21.35 21.7353C20.9577 21.4697 20.6635 21.7204 20.3407 21.9054C19.8392 22.1921 19.4432 22.7334 18.7567 22.6018C18.7033 22.5819 18.6499 22.5608 18.5953 22.541C18.5606 22.5211 18.5308 22.4963 18.5072 22.464H18.5084C18.4824 22.0332 18.4228 21.5938 18.5482 21.1779C18.7244 20.5908 18.6164 20.0892 18.2204 19.6361Z" fill="#B1E39F"/>
<path d="M21.3487 21.7353C21.6838 21.3393 22.1878 21.168 22.5615 20.8241C23.6949 19.7801 24.5899 18.5884 25.007 17.069C25.0927 16.7574 24.9387 16.3999 25.2056 16.1342C25.3285 16.2186 25.4514 16.303 25.5743 16.3874C26.1391 16.92 26.8144 17.3023 27.4364 17.7567C27.4972 19.1793 26.8529 20.3698 26.1826 21.5479C25.65 22.4826 24.9462 23.2734 24.0822 23.9189C23.8848 23.8332 23.6837 23.7811 23.4689 23.8432C22.8905 23.8668 22.4485 24.3509 21.8551 24.3248C21.1227 23.9363 21.0507 23.7526 21.4095 22.9779C21.6118 22.5397 21.7087 22.1338 21.3487 21.7353Z" fill="#95D5A4"/>
<path d="M9.84982 4.35352C9.84982 3.94014 9.85107 3.52552 9.85107 3.11214C10.0323 2.65283 9.79397 1.92414 10.6381 1.89062C10.9658 2.08303 11.0701 2.37972 11.0378 2.74097C10.7747 4.10152 10.9199 5.39752 11.6511 6.60041C11.7951 6.94428 12.0061 7.23973 12.2854 7.48552C12.3289 7.55255 12.3711 7.61959 12.4145 7.68662C12.1265 7.91255 11.8658 8.1931 11.4549 8.17945C11.2501 7.92248 11.0465 7.66428 10.8417 7.40731C10.2955 6.46014 9.98513 5.43476 9.84982 4.35352Z" fill="#BE662D"/>
<path d="M16.0815 3.75145C16.6898 2.92345 17.2968 2.09545 17.9038 1.26745C18.2204 1.27862 18.5841 1.14703 18.7703 1.55048C18.9541 1.94897 18.6437 2.15876 18.4327 2.39835C17.8567 3.04759 17.3117 3.71917 16.8971 4.48759C16.5048 5.21379 16.29 5.97352 16.4191 6.80524C16.0641 6.81145 15.7091 6.81766 15.354 6.82386C15.2051 5.7091 15.5849 4.716 16.0815 3.75145Z" fill="#BE662D"/>
<path d="M6.33298 16.6258C6.60484 16.9746 7.16842 17.3433 7.01201 17.707C6.83325 18.1254 6.20014 17.8473 5.76939 17.8659C4.84952 17.9032 3.92594 17.8411 3.01229 17.9963C2.97256 17.8175 2.93035 17.6388 2.89311 17.46C2.79753 16.997 2.97256 16.7934 3.45918 16.7537C4.41628 16.673 5.37215 16.6258 6.33298 16.6258Z" fill="#BE662D"/>
<path d="M14.6366 11.921C13.9327 11.9259 13.4151 11.4319 13.4014 10.7441C13.3865 10.0018 13.9402 9.43697 14.6676 9.45186C15.2908 9.46552 15.8656 10.0701 15.868 10.7143C15.8693 11.3661 15.3082 11.916 14.6366 11.921Z" fill="#BE662D"/>
<path d="M23.469 23.8432C23.685 23.7811 23.8861 23.8332 24.0822 23.9189C24.4422 24.2863 24.3342 24.7494 24.3404 25.1888C24.3454 25.5737 24.3392 25.9597 24.3379 26.3446C23.7185 25.9486 23.0978 25.5526 22.4784 25.1578C22.4957 24.9058 22.7167 24.799 22.8508 24.6315C23.0581 24.3695 23.4082 24.2193 23.469 23.8432Z" fill="#F7F9FA"/>
<path d="M18.5072 22.464C18.5308 22.495 18.5605 22.5211 18.5953 22.541C18.5556 22.5273 18.527 22.5025 18.5072 22.464Z" fill="#F7F9FA"/>
</g>
<defs>
<filter id="filter0_d" x="0" y="0" width="38" height="38" filterUnits="userSpaceOnUse" color-interpolation-filters="sRGB">
<feFlood flood-opacity="0" result="BackgroundImageFix"/>
<feColorMatrix in="SourceAlpha" type="matrix" values="0 0 0 0 0 0 0 0 0 0 0 0 0 0 0 0 0 0 127 0"/>
<feOffset dy="1"/>
<feGaussianBlur stdDeviation="0.5"/>
<feColorMatrix type="matrix" values="0 0 0 0 0 0 0 0 0 0 0 0 0 0 0 0 0 0 0.25 0"/>
<feBlend mode="normal" in2="BackgroundImageFix" result="effect1_dropShadow"/>
<feBlend mode="normal" in="SourceGraphic" in2="effect1_dropShadow" result="shape"/>
</filter>
</defs>
</svg>
