<svg width="38" height="38" viewBox="0 0 38 38" fill="none" xmlns="http://www.w3.org/2000/svg">
<g filter="url(#filter0_d)">
<path d="M18.9395 35.875C28.8448 35.875 36.8745 27.8721 36.8745 18C36.8745 8.12789 28.8448 0.124985 18.9395 0.124985C9.0343 0.124985 1.00452 8.12789 1.00452 18C1.00452 27.8721 9.0343 35.875 18.9395 35.875Z" fill="#E2A1CF"/>
<path d="M31.1053 31.25C34.7425 28 37 23.25 37 18C37 16.875 36.8746 15.75 36.7492 14.75C35.495 13.5 34.2408 12.25 32.8612 11C32.1087 10.375 31.607 9.49998 30.729 9.12498C31.2307 11 30.9799 12.125 29.4749 13.25C29.4749 13.375 29.4749 13.625 29.4749 13.75L31.1053 31.25Z" fill="#E55CB3"/>
<path d="M28.0951 13.875C30.0346 13.875 31.6069 12.308 31.6069 10.375C31.6069 8.442 30.0346 6.875 28.0951 6.875C26.1556 6.875 24.5834 8.442 24.5834 10.375C24.5834 12.308 26.1556 13.875 28.0951 13.875Z" fill="#F8FAFB"/>
<path d="M28.0952 12C28.9957 12 29.7256 11.2725 29.7256 10.375C29.7256 9.47754 28.9957 8.75 28.0952 8.75C27.1947 8.75 26.4647 9.47754 26.4647 10.375C26.4647 11.2725 27.1947 12 28.0952 12Z" fill="#DADFE9"/>
<path d="M10.0347 13.875C11.9742 13.875 13.5465 12.308 13.5465 10.375C13.5465 8.442 11.9742 6.875 10.0347 6.875C8.09521 6.875 6.52295 8.442 6.52295 10.375C6.52295 12.308 8.09521 13.875 10.0347 13.875Z" fill="#F8FAFB"/>
<path d="M10.0346 12C10.9351 12 11.6651 11.2725 11.6651 10.375C11.6651 9.47754 10.9351 8.75 10.0346 8.75C9.13416 8.75 8.40417 9.47754 8.40417 10.375C8.40417 11.2725 9.13416 12 10.0346 12Z" fill="#DADFE9"/>
<path d="M29.4747 13.75C29.4747 13.625 29.4747 13.375 29.4747 13.25C29.2239 10.875 27.2172 9.00002 24.7088 9.00002H19.1903V36C23.7054 36 27.7188 34.25 30.8543 31.5C30.9798 31.375 31.1052 31.375 31.1052 31.25L29.4747 13.75Z" fill="#DADFE9"/>
<path d="M19.1904 9.00002H13.6719C11.0381 9.00002 8.90597 11.125 8.90597 13.75L7.27551 31.625C10.411 34.375 14.5499 36 19.065 36H19.1904V9.00002Z" fill="#E8ECF3"/>
<path d="M25.2105 14.125C25.8376 14.125 26.3393 14.625 26.2139 15.25C26.2139 15.875 25.7122 16.375 25.0851 16.25C24.458 16.25 23.9563 15.75 24.0817 15.125C24.0817 14.5 24.5834 14.125 25.2105 14.125Z" fill="#383E45"/>
<path d="M12.794 16.25C11.916 16 11.5398 15.375 11.916 14.75C12.1669 14.375 12.4177 14.125 12.9194 14.125C13.5465 14.125 13.7973 14.625 14.0482 15.125C13.7973 15.75 13.4211 16.125 12.794 16.25Z" fill="#383E45"/>
<path d="M19.0649 26.5C21.8356 26.5 24.0817 24.2614 24.0817 21.5C24.0817 18.7386 21.8356 16.5 19.0649 16.5C16.2942 16.5 14.0481 18.7386 14.0481 21.5C14.0481 24.2614 16.2942 26.5 19.0649 26.5Z" fill="#F7F9F9"/>
<path d="M20.0683 17.25C20.8208 17.75 21.0716 18.25 20.6953 18.875C20.4445 19.375 19.3157 20 18.6886 19.75C18.3124 19.625 18.0615 19.5 17.6853 19.5C17.4344 19.375 17.1836 19.125 16.9328 18.75C16.8073 17.625 17.309 17.25 18.3124 17.25C18.4378 17.25 18.6886 17.25 18.8141 17.25C19.3157 17.125 19.692 17.25 20.0683 17.25Z" fill="#383E45"/>
</g>
<defs>
<filter id="filter0_d" x="0.0045166" y="0.124985" width="37.9955" height="37.875" filterUnits="userSpaceOnUse" color-interpolation-filters="sRGB">
<feFlood flood-opacity="0" result="BackgroundImageFix"/>
<feColorMatrix in="SourceAlpha" type="matrix" values="0 0 0 0 0 0 0 0 0 0 0 0 0 0 0 0 0 0 127 0"/>
<feOffset dy="1"/>
<feGaussianBlur stdDeviation="0.5"/>
<feColorMatrix type="matrix" values="0 0 0 0 0 0 0 0 0 0 0 0 0 0 0 0 0 0 0.25 0"/>
<feBlend mode="normal" in2="BackgroundImageFix" result="effect1_dropShadow"/>
<feBlend mode="normal" in="SourceGraphic" in2="effect1_dropShadow" result="shape"/>
</filter>
</defs>
</svg>
