<svg width="38" height="38" viewBox="0 0 38 38" fill="none" xmlns="http://www.w3.org/2000/svg">
<g filter="url(#filter0_d)">
<path d="M18.9404 36C28.843 36 36.8706 27.9411 36.8706 18C36.8706 8.05887 28.843 0 18.9404 0C9.03779 0 1.01016 8.05887 1.01016 18C1.01016 27.9411 9.03779 36 18.9404 36Z" fill="#9792EF"/>
<path d="M2.2749 24.5586L25.9736 34.7272C25.9736 34.7272 36.7049 30.7129 36.9999 17.9692C36.9999 17.9692 36.7296 14.5168 36.0273 12.4828L2.2749 24.5586Z" fill="#7A63FF"/>
<path d="M14.5317 23.4349C14.0955 26.2663 12.3506 28.1653 10.0844 29.676C9.09676 30.3342 8.07479 30.9416 7.06928 31.5709C6.4273 31.8078 5.83056 32.1383 5.23933 32.4784C4.67553 32.5734 4.19542 33.1793 3.54795 32.7538C3.26673 32.3944 3.29691 32.0487 3.52188 31.6576C3.98554 30.852 4.41353 30.0258 4.85524 29.2078C5.13371 28.7478 5.43824 28.3016 5.68653 27.8252C6.28051 26.6863 7.05282 25.6452 7.51236 24.4347C8.00208 23.9514 8.24077 23.3082 8.55902 22.723C9.36837 21.2357 10.3259 19.831 11.0049 18.2735C10.9294 17.9802 10.6798 17.8218 10.485 17.6291C9.68661 16.8413 8.96643 15.9917 8.34227 15.0566C7.607 13.9563 7.06928 12.7596 6.83745 11.4665C6.55349 9.87869 7.11317 8.48092 8.05558 7.21949C10.7497 6.74576 13.4796 6.65763 16.2011 6.53231C19.4001 6.38496 22.5963 6.62458 25.7898 6.80223C26.927 6.86557 28.0587 7.03771 29.1932 7.15752C30.8146 7.32828 32.4127 7.61196 33.9546 8.16418L33.9189 8.17382C33.9409 8.26334 33.993 8.27435 34.0657 8.23166C34.6405 8.72605 35.3195 9.10199 35.7763 9.73133C35.9382 9.95442 36.1288 10.1624 36.1714 10.4529C36.1233 10.4667 36.0753 10.4805 36.0273 10.4929C35.4567 10.3992 34.8997 10.5328 34.3373 10.5824C33.2961 10.5755 32.2632 10.6691 31.2398 10.8688C30.5197 10.8454 29.8228 10.9955 29.1301 11.1677C27.3975 11.4362 25.7295 11.9471 24.0778 12.5269C21.1381 13.5569 18.4577 15.1392 15.6552 16.4626C14.9432 16.7987 14.3108 17.041 14.7759 18.0009C14.8239 18.1 14.8033 18.2308 14.8157 18.3479C14.8115 18.7335 14.7759 19.1218 14.8925 19.4992C14.8115 20.0059 14.8225 20.5141 14.8623 21.0222C14.7526 21.8265 14.6428 22.6307 14.5317 23.4349ZM16.0379 14.6338C16.5811 14.6504 17.1298 14.1174 17.1367 13.5666C17.1435 13.0226 16.6003 12.4773 16.0557 12.4814C15.5331 12.4856 15.02 12.9827 14.994 13.5115C14.9652 14.0527 15.4906 14.6159 16.0379 14.6338Z" fill="#1075BB"/>
<path d="M4.1817 7.89564C5.46704 7.63537 6.74416 7.33241 8.0542 7.21948C7.11316 8.48091 6.55211 9.87868 6.83607 11.4665C7.06789 12.7596 7.60562 13.9549 8.34089 15.0566C8.96505 15.9917 9.6866 16.8413 10.4836 17.629C10.6798 17.8218 10.9281 17.9802 11.0035 18.2735C9.98016 18.4884 8.96094 18.7225 7.93485 18.9139C5.68927 19.3325 3.40802 19.4083 1.13637 19.5763C0.849666 17.8673 1.05817 16.1776 1.36408 14.4961C1.66587 12.8312 2.2914 11.2737 2.99237 9.74372C3.42722 9.15156 3.681 8.44373 4.1817 7.89564Z" fill="#006096"/>
<path d="M36.0273 10.4929C36.0753 10.4791 36.1234 10.4653 36.1714 10.4529C36.9766 10.6375 37.1824 11.03 36.8435 11.7571C36.6666 12.1371 36.4718 12.5076 36.2852 12.8822C36.2221 12.9097 36.1412 12.9207 36.0973 12.9675C32.5664 16.7436 28.0628 18.9538 23.3933 20.8763C21.7541 21.5511 20.097 22.1914 18.3672 22.6142C17.6662 22.4186 17.0119 22.1239 16.2656 21.7053C16.6209 21.5882 16.8157 21.518 17.0146 21.4588C19.9077 20.5967 22.6855 19.4344 25.355 18.0422C28.3976 16.4558 31.2783 14.5912 33.9354 12.4043C34.6638 11.8053 35.4855 11.3012 36.0273 10.4929Z" fill="#DBEBF8"/>
<path d="M1.1391 19.5763C3.41075 19.4096 5.69063 19.3325 7.93759 18.9139C8.96504 18.7225 9.98427 18.4884 11.0062 18.2735C10.3272 19.8324 9.36835 21.2371 8.56038 22.723C8.24213 23.3096 8.00344 23.9513 7.51371 24.4347C5.76745 24.476 4.02118 24.516 2.27629 24.5573C1.5424 22.9791 1.17065 21.3169 1.1391 19.5763Z" fill="#B6DAF0"/>
<path d="M34.0657 8.23166C33.993 8.27435 33.9395 8.26333 33.9189 8.17382C33.9888 8.13664 34.0382 8.15592 34.0657 8.23166Z" fill="#1D325F"/>
<path d="M36.0273 10.4929C35.4855 11.2999 34.6638 11.8053 33.9354 12.4043C31.2783 14.5911 28.3976 16.4558 25.355 18.0422C22.6855 19.4344 19.9077 20.5967 17.0146 21.4588C16.8157 21.518 16.6195 21.5882 16.2656 21.7053C17.0119 22.1239 17.6662 22.4186 18.3672 22.6142C17.2122 23.0907 15.9693 23.2311 14.7731 23.5479C14.7073 23.5658 14.614 23.4735 14.5331 23.4336C14.6428 22.6293 14.7526 21.8251 14.8637 21.0209C15.3369 21.1296 15.614 20.7 16.0214 20.6022C18.7129 19.9522 21.2342 18.8395 23.7267 17.6662C26.3536 16.4296 28.8091 14.8845 31.1726 13.2058C32.2865 12.4153 33.4361 11.6414 34.3387 10.581C34.8997 10.5328 35.4581 10.3992 36.0273 10.4929Z" fill="#B6DAF0"/>
<path d="M34.3373 10.5838C33.4346 11.6441 32.2851 12.4167 31.1712 13.2085C28.8077 14.8858 26.3522 16.4323 23.7253 17.669C21.2328 18.8423 18.7115 19.955 16.02 20.605C15.6126 20.7027 15.3355 21.1324 14.8623 21.0236C14.8225 20.5155 14.8115 20.0073 14.8924 19.5005C15.6675 19.2513 16.448 19.0144 17.2176 18.7486C21.9749 17.103 26.3399 14.7082 30.4044 11.7488C30.7185 11.5202 31.2055 11.3935 31.2398 10.8716C32.2632 10.6705 33.2947 10.5769 34.3373 10.5838Z" fill="#DBEBF8"/>
<path d="M14.8156 18.3465C14.8047 18.2295 14.8239 18.0986 14.7758 17.9995C14.3108 17.0396 14.9432 16.7986 15.6552 16.4613C18.4577 15.1379 21.1381 13.5556 24.0778 12.5255C25.7294 11.9471 27.3961 11.4362 29.13 11.1663C29.1355 11.5326 28.8022 11.6028 28.5882 11.7515C25.3275 14.0196 21.824 15.8347 18.1381 17.2848C17.0585 17.7117 15.9967 18.2295 14.8156 18.3465Z" fill="#DBEBF8"/>
<path d="M14.8157 18.3465C15.9968 18.2295 17.0585 17.7117 18.1367 17.2861C21.8227 15.8347 25.3262 14.0196 28.5869 11.7529C28.8008 11.6042 29.1342 11.534 29.1287 11.1677C29.8214 10.9969 30.5183 10.8454 31.2385 10.8688C31.2042 11.3907 30.7172 11.5174 30.4031 11.746C26.3385 14.7054 21.9736 17.1002 17.2163 18.7459C16.4467 19.0117 15.6661 19.2471 14.8911 19.4978C14.7759 19.1204 14.8115 18.7335 14.8157 18.3465Z" fill="#B6DAF0"/>
<path d="M16.0379 14.6338C15.4919 14.6173 14.9665 14.0527 14.9939 13.5129C15.02 12.9841 15.5344 12.4869 16.0557 12.4828C16.6003 12.4786 17.1435 13.024 17.1367 13.5679C17.1298 14.1174 16.5811 14.6504 16.0379 14.6338Z" fill="#1D325F"/>
<path d="M16.6222 31.765C18.2534 31.765 19.5757 30.4376 19.5757 28.8001C19.5757 27.1627 18.2534 25.8352 16.6222 25.8352C14.9911 25.8352 13.6688 27.1627 13.6688 28.8001C13.6688 30.4376 14.9911 31.765 16.6222 31.765Z" fill="#CECEEF"/>
<path d="M24.4976 26.5417C25.8181 26.5417 26.8886 25.467 26.8886 24.1414C26.8886 22.8157 25.8181 21.7411 24.4976 21.7411C23.1771 21.7411 22.1066 22.8157 22.1066 24.1414C22.1066 25.467 23.1771 26.5417 24.4976 26.5417Z" fill="#CECEEF"/>
<path d="M15.0749 4.23529C15.8514 4.23529 16.481 3.60332 16.481 2.82375C16.481 2.04418 15.8514 1.41222 15.0749 1.41222C14.2983 1.41222 13.6688 2.04418 13.6688 2.82375C13.6688 3.60332 14.2983 4.23529 15.0749 4.23529Z" fill="#CECEEF"/>
<path d="M18.4508 5.22405C18.9948 5.22405 19.4357 4.78136 19.4357 4.23528C19.4357 3.6892 18.9948 3.24652 18.4508 3.24652C17.9069 3.24652 17.4659 3.6892 17.4659 4.23528C17.4659 4.78136 17.9069 5.22405 18.4508 5.22405Z" fill="#CECEEF"/>
</g>
<defs>
<filter id="filter0_d" x="0" y="0" width="38" height="38" filterUnits="userSpaceOnUse" color-interpolation-filters="sRGB">
<feFlood flood-opacity="0" result="BackgroundImageFix"/>
<feColorMatrix in="SourceAlpha" type="matrix" values="0 0 0 0 0 0 0 0 0 0 0 0 0 0 0 0 0 0 127 0"/>
<feOffset dy="1"/>
<feGaussianBlur stdDeviation="0.5"/>
<feColorMatrix type="matrix" values="0 0 0 0 0 0 0 0 0 0 0 0 0 0 0 0 0 0 0.25 0"/>
<feBlend mode="normal" in2="BackgroundImageFix" result="effect1_dropShadow"/>
<feBlend mode="normal" in="SourceGraphic" in2="effect1_dropShadow" result="shape"/>
</filter>
</defs>
</svg>
