<svg width="38" height="38" viewBox="0 0 38 38" fill="none" xmlns="http://www.w3.org/2000/svg">
<g filter="url(#filter0_d)">
<path d="M19 36C28.8482 36 36.8318 27.9411 36.8318 18C36.8318 8.05887 28.8482 0 19 0C9.15176 0 1.16819 8.05887 1.16819 18C1.16819 27.9411 9.15176 36 19 36Z" fill="#FEE500"/>
<path d="M18.8319 36C24.3833 36 29.2618 33.4528 32.4581 29.5471C34.3086 22.4151 36.159 14.7735 36.159 14.7735L24.2151 23.2641L11.7665 20.5471L1.8412 13.7547H1.67297C1.67297 13.9245 1.67297 14.0943 1.50475 14.2641C1.67297 14.7735 4.86924 29.0377 4.86924 29.2075C8.06551 33.283 13.1122 36 18.8319 36Z" fill="#C6AE02"/>
<path d="M29.0934 23.0943C29.5981 23.0943 29.7663 23.4339 29.7663 23.9434C29.7663 24.4528 29.4299 24.6226 28.9252 24.6226C28.4205 24.6226 28.2523 24.283 28.2523 23.9434C28.2523 23.4339 28.5888 23.0943 29.0934 23.0943Z" fill="#524741"/>
<path d="M8.23373 23.7735C8.23373 23.2641 8.57018 23.0943 9.07486 23.0943C9.57953 23.0943 9.74775 23.4339 9.74775 23.7735C9.74775 24.283 9.4113 24.4528 9.07486 24.4528C8.57018 24.6226 8.23373 24.283 8.23373 23.7735Z" fill="#524741"/>
<path d="M9.07486 23.0943C8.57018 23.0943 8.40196 23.2641 8.23373 23.7735C8.23373 24.283 8.40196 24.4528 8.90663 24.4528C9.41131 24.4528 9.57953 24.1132 9.57953 23.7735C9.74776 23.4339 9.57953 23.0943 9.07486 23.0943Z" fill="#524741"/>
<path d="M29.0934 23.0943C28.5888 23.0943 28.2523 23.4339 28.2523 23.7735C28.2523 24.1132 28.4205 24.4528 28.9252 24.4528C29.4299 24.4528 29.7663 24.283 29.7663 23.7735C29.7663 23.4339 29.4299 23.0943 29.0934 23.0943Z" fill="#524741"/>
<path d="M32.458 29.717C32.458 29.2076 32.6262 28.6982 32.6262 28.0189C32.7944 26.8302 32.458 25.6416 31.9533 24.4529C31.7851 24.2831 31.6169 23.9434 31.6169 23.7736C30.944 22.9246 30.1028 22.0755 29.0935 21.5661C28.9253 21.5661 28.757 21.3963 28.9253 21.2265C28.9253 21.2265 29.0935 21.2265 29.0935 21.0566H28.9253C28.9253 21.0566 28.4206 21.0566 27.5795 21.2265C27.5795 21.2265 27.4112 21.2265 27.243 21.2265C26.4019 21.2265 25.0561 21.3963 23.5421 21.2265C21.8598 21.2265 20.8505 21.2265 20.0094 21.0566C20.0094 22.0755 20.0094 22.9246 19.6729 23.7736C19.5047 24.2831 19.6729 24.7925 19.6729 25.3019C20.0094 26.151 20.3458 27.1699 20.6823 28.0189C20.8505 28.3585 21.0187 28.6982 21.1869 29.0378C21.8598 30.0566 22.3645 31.0755 23.0374 32.0944C23.2056 32.2642 23.3739 32.6038 23.5421 32.7736C24.0468 33.2831 24.5514 33.9623 25.0561 34.4717C27.9159 33.7925 30.4393 32.0944 32.458 29.717ZM28.9253 24.6227C28.4206 24.6227 28.2524 24.2831 28.2524 23.9434C28.2524 23.434 28.5888 23.2642 29.0935 23.2642C29.5982 23.2642 29.7664 23.6038 29.7664 24.1133C29.7664 24.2831 29.4299 24.6227 28.9253 24.6227Z" fill="#E4E5E4"/>
<path d="M17.9907 23.2642C17.6542 22.5849 17.8224 21.9057 17.8224 21.2264C17.1495 21.2264 15.972 21.2264 14.2897 21.3962C12.7757 21.3962 11.4299 21.3962 10.5888 21.3962H10.4206C9.57943 21.3962 9.07475 21.2264 9.07475 21.2264C9.4112 21.566 9.07475 21.566 8.90653 21.566C7.72895 22.2453 6.88783 23.0943 6.21493 24.1132C5.87848 24.7925 5.71026 25.4717 5.37381 26.1509C5.37381 27.3396 5.37381 28.5283 5.54203 29.5472C7.56073 31.7547 9.91588 33.4528 12.7757 34.6415C15.2991 32.0943 16.8131 29.0377 18.1589 25.8113C18.3271 25.1321 18.3271 24.283 17.9907 23.2642ZM9.07475 24.6226C8.57008 24.6226 8.40185 24.283 8.40185 23.9434C8.40185 23.434 8.7383 23.2642 9.24298 23.2642C9.74765 23.2642 9.91587 23.6038 9.91587 23.9434C9.74765 24.283 9.4112 24.6226 9.07475 24.6226Z" fill="#E4E5E4"/>
<path d="M17.9907 19.868C17.8225 19.3585 14.7944 12.2264 9.91591 8.83022C9.91591 8.83022 8.23366 7.47173 6.21497 6.62268C6.21497 7.30192 5.87852 7.81135 5.20562 8.15097C4.36449 8.66041 3.6916 9.16984 2.85047 9.50946C2.17757 9.84909 1.50467 10.3585 1 11.0378C1 11.8868 1.16822 13.0755 1.50467 14.434C1.50467 14.434 3.18692 20.0378 4.36449 20.717C4.36449 20.717 6.38319 21.7359 8.90656 21.0566C8.90656 21.0566 9.41123 21.0566 10.2524 21.2264C10.2524 21.2264 10.4206 21.2264 10.5888 21.2264C11.4299 21.2264 12.7757 21.3963 14.2897 21.2264C15.972 21.2264 16.9813 21.2264 17.8225 21.0566C18.6636 21.0566 19 21.0566 19 20.8868C19.1683 21.2264 18.1589 20.3774 17.9907 19.868Z" fill="#F0F0F0"/>
<path d="M3.01873 9.67928C3.85985 9.16985 4.53275 8.83022 5.37388 8.32079C5.87855 7.98117 6.38322 7.47173 6.38322 6.79249C4.8692 6.28305 3.35518 6.11324 2.00938 7.13211C2.00938 7.13211 0.83181 7.47173 1.16826 11.3774C1.67293 10.5283 2.34583 10.1887 3.01873 9.67928Z" fill="#524741"/>
<path d="M5.37381 13.9246C5.54203 12.9057 5.71026 12.5661 6.7196 12.5661C7.56073 12.9057 8.0654 13.5849 7.72895 14.2642C7.56073 14.9434 6.71961 15.2831 6.21493 14.9434C5.71026 14.6038 5.54203 14.2642 5.37381 13.9246Z" fill="#524741"/>
<path d="M20.0093 19.868C20.1775 19.3585 23.2056 12.2264 28.0841 8.83022C28.0841 8.83022 29.7663 7.47173 31.785 6.62268C31.785 7.30192 32.1215 7.81135 32.7944 8.15097C33.6355 8.66041 34.3084 9.16984 35.1495 9.50946C35.8224 9.84909 36.4953 10.3585 37 11.0378C37 11.8868 36.8318 13.0755 36.4953 14.434C36.4953 14.434 34.8131 20.0378 33.6355 20.717C33.6355 20.717 31.6168 21.7359 29.0934 21.0566C29.0934 21.0566 28.5888 21.0566 27.7477 21.2264C27.7477 21.2264 27.5794 21.2264 27.4112 21.2264C26.5701 21.2264 25.2243 21.3963 23.7103 21.2264C22.028 21.2264 21.0187 21.2264 20.1775 21.0566C19.3364 21.0566 19 21.0566 19 20.8868C19 21.2264 19.8411 20.3774 20.0093 19.868Z" fill="#F0F0F0"/>
<path d="M34.9813 9.67928C34.1402 9.16985 33.4673 8.83022 32.6262 8.32079C32.1215 7.98117 31.6168 7.47173 31.6168 6.79249C33.1308 6.28305 34.6449 6.11324 35.9907 7.13211C35.9907 7.13211 37.1682 7.47173 36.8318 11.3774C36.3271 10.5283 35.8224 10.1887 34.9813 9.67928Z" fill="#524741"/>
<path d="M32.6261 13.9246C32.4579 12.9057 32.2897 12.5661 31.2803 12.5661C30.4392 12.9057 29.9345 13.5849 30.271 14.2642C30.4392 14.9434 31.2803 15.2831 31.785 14.9434C32.2897 14.6038 32.4579 14.2642 32.6261 13.9246Z" fill="#524741"/>
<path d="M20.0093 19.8679C20.0093 20.2076 20.1775 20.5472 20.1775 20.8868C20.1775 21.9057 20.1775 22.9245 19.8411 23.9434C19.6729 24.4528 19.8411 24.9623 19.8411 25.4717C19.8411 26.8302 19.8411 28.0189 19.5046 29.2076C19.3364 29.3774 19.1682 29.5472 19 29.5472C18.1588 28.8679 18.3271 28.0189 18.1588 27.1698C18.1588 26.6604 18.1588 26.151 18.1588 25.6415C18.3271 24.7925 18.3271 23.9434 17.9906 23.0943C17.6542 22.4151 17.8224 21.5661 17.8224 20.717C17.8224 20.3774 17.9906 20.0377 17.9906 19.5283C18.1588 18.6793 17.8224 17.8302 18.3271 17.151C18.3271 17.151 18.3271 16.9811 18.1588 16.9811C17.6542 16.1321 17.3177 15.283 16.813 14.434C16.6448 14.0943 16.6448 13.9245 16.3084 13.5849C15.8037 12.3962 15.299 11.3774 14.7943 10.3585C14.7943 10.0189 14.9626 9.84907 15.299 10.0189C15.8037 11.0377 16.3084 12.0566 16.9813 13.0755C16.9813 13.4151 17.1495 13.7547 17.4859 14.0943C17.9906 15.1132 18.4953 16.1321 19 17.151C19.3364 17.151 19.3364 16.8113 19.5046 16.6415C20.514 14.6038 21.5233 12.7359 22.5327 10.6981C22.7009 10.5283 22.7009 10.0189 23.0374 10.1887C23.3738 10.3585 23.2056 10.6981 23.0374 10.8679C22.3645 12.3962 21.5233 13.9245 20.8504 15.4528C20.514 15.9623 20.1775 16.6415 20.0093 17.151C19.8411 17.4906 19.8411 17.6604 20.1775 17.8302C20.3458 18.3396 20.3458 18.6793 20.1775 19.1887C19.6729 19.5283 19.8411 19.6981 20.0093 19.8679Z" fill="#524741"/>
</g>
<defs>
<filter id="filter0_d" x="0" y="0" width="38" height="38" filterUnits="userSpaceOnUse" color-interpolation-filters="sRGB">
<feFlood flood-opacity="0" result="BackgroundImageFix"/>
<feColorMatrix in="SourceAlpha" type="matrix" values="0 0 0 0 0 0 0 0 0 0 0 0 0 0 0 0 0 0 127 0"/>
<feOffset dy="1"/>
<feGaussianBlur stdDeviation="0.5"/>
<feColorMatrix type="matrix" values="0 0 0 0 0 0 0 0 0 0 0 0 0 0 0 0 0 0 0.25 0"/>
<feBlend mode="normal" in2="BackgroundImageFix" result="effect1_dropShadow"/>
<feBlend mode="normal" in="SourceGraphic" in2="effect1_dropShadow" result="shape"/>
</filter>
</defs>
</svg>
