<svg width="38" height="38" viewBox="0 0 38 38" fill="none" xmlns="http://www.w3.org/2000/svg">
<g filter="url(#filter0_d)">
<circle cx="19" cy="18" r="18" fill="#2C2C68"/>
<path d="M32.6229 26.0041C32.6229 23.7446 31.8384 21.267 31.3242 19.8863C30.3942 21.731 28.9353 23.3255 27.1165 24.5235C26.6758 24.8146 26.2865 25.1717 25.9794 25.5922C24.4309 27.7139 23.6787 29.8315 19.0965 29.8315C19.0392 29.8315 18.9819 29.8315 18.9246 29.8301V30.2547C18.9819 30.2533 19.0392 30.2519 19.0965 30.2519C22.0245 30.2519 24.7174 31.7747 26.8521 34.3239C29.3335 33.1878 31.5005 31.5258 33.1944 29.4856C32.8433 28.275 32.6229 27.0685 32.6229 26.0041Z" fill="#F0E2C5"/>
<path d="M19.073 30.2519V29.8315C14.5127 29.8245 13.7605 27.7111 12.215 25.5922C11.9079 25.1717 11.5186 24.8146 11.0779 24.5235C9.26053 23.3255 7.80166 21.731 6.87169 19.8863C6.35749 21.267 5.57297 23.7446 5.57297 26.0041C5.57297 27.0685 5.3526 28.275 5 29.4842C6.69393 31.5244 8.86239 33.1864 11.3423 34.3225C13.4696 31.7817 16.1538 30.2604 19.073 30.2519Z" fill="#E5D2B1"/>
<path d="M19.0965 30.1099C16.1288 30.1099 13.4035 31.6735 11.2556 34.2832C13.6254 35.3827 16.286 36 19.0965 36C21.9069 36 24.5661 35.3827 26.9373 34.2832C24.7909 31.6735 22.0641 30.1099 19.0965 30.1099Z" fill="#F9F0E1"/>
<path d="M27.1165 24.4856C26.6758 24.7752 26.2865 25.1338 25.9794 25.5542C24.4309 27.6774 23.6802 29.7935 19.0965 29.7935C14.5142 29.7935 13.762 27.676 12.2135 25.5542C11.9065 25.1338 11.5171 24.7766 11.0764 24.4856C9.56023 23.4858 8.29382 22.2105 7.37413 20.744C7.37266 20.8044 7.3712 20.8649 7.3712 20.9254C7.3712 26.8815 12.6205 31.71 19.095 31.71C25.5695 31.71 30.8188 26.8815 30.8188 20.9254C30.8188 20.8649 30.8173 20.8044 30.8159 20.744C29.9006 22.2119 28.6342 23.4872 27.1165 24.4856Z" fill="#1BAFEA"/>
<path d="M21.716 29.4814C20.5274 29.8174 19.3874 29.7767 19.0965 29.7949C14.5142 29.7949 13.762 27.6774 12.2135 25.5556C11.9065 25.1352 11.5171 24.778 11.0764 24.487C9.56023 23.4872 8.29382 22.2119 7.37413 20.7454C7.37266 20.8058 7.3712 20.8663 7.3712 20.9268C7.3712 27.998 14.6582 33.1597 22.0935 31.3543C21.1489 31.1827 20.8991 29.9862 21.716 29.4814Z" fill="#0596D6"/>
<path d="M31.1655 0C28.618 0 26.1601 2.06273 24.7453 3.5124C24.5103 3.75425 24.1489 3.84002 23.8198 3.73737C22.3874 3.29165 20.7992 3.22556 19.095 3.71909C17.3908 3.22697 15.8026 3.29305 14.3702 3.73737C14.0411 3.84002 13.6812 3.75425 13.4446 3.5124C12.0313 2.06132 9.57345 0 7.02448 0C4.76934 0 5.66111 4.35043 6.82908 8.05827C7.15083 9.07769 7.09059 10.173 6.65131 11.1517C6.05631 12.4776 5.73016 13.9216 5.73016 15.4332C5.73016 19.2648 7.82957 22.6661 11.0735 24.8033C11.5142 25.0944 11.9035 25.4515 12.2106 25.872C13.7591 27.9937 14.5113 30.1113 19.0935 30.1113C23.6758 30.1113 24.428 27.9937 25.9765 25.872C26.2835 25.4515 26.6729 25.093 27.1136 24.8033C30.3575 22.6661 32.4569 19.2648 32.4569 15.4332C32.4569 13.9216 32.1307 12.4776 31.5357 11.1517C31.0965 10.173 31.0362 9.07769 31.358 8.05827C32.5303 4.35183 33.4207 0 31.1655 0Z" fill="#F9F0E1"/>
<path d="M17.999 25.872C17.7801 25.4515 17.501 25.0944 17.1851 24.8033C14.8624 22.6661 13.3609 19.2648 13.3609 15.4332C13.3609 13.9216 13.5945 12.4776 14.0206 11.1517C14.335 10.173 14.3776 9.07769 14.1469 8.05827C13.7958 6.50033 13.4784 4.8285 13.3506 3.41397C11.9241 1.96993 9.51909 0 7.02888 0C4.77374 0 5.66551 4.35043 6.83348 8.05827C7.15523 9.07769 7.095 10.173 6.65572 11.1517C6.06072 12.4776 5.73456 13.9216 5.73456 15.4332C5.73456 19.2648 7.83398 22.6661 11.0779 24.8033C11.5186 25.0944 11.9079 25.4515 12.215 25.872C13.7635 27.9937 14.5157 30.1113 19.0979 30.1113C19.9691 30.1113 20.7037 30.034 21.3296 29.8962C19.4197 29.3042 18.8952 27.5902 17.999 25.872Z" fill="#F0E2C5"/>
<path d="M31.1655 0C28.618 0 26.1601 2.06273 24.7453 3.5124C24.5103 3.75425 24.1489 3.84002 23.8198 3.73737C22.3874 3.29165 20.7992 3.22556 19.095 3.71909C17.3908 3.22697 15.8026 3.29305 14.3702 3.73737C14.0411 3.84002 13.6812 3.75425 13.4446 3.5124C12.0313 2.06132 9.57345 0 7.02448 0C4.76934 0 5.66111 4.35043 6.82908 8.05827C7.15083 9.07769 7.09059 10.173 6.65131 11.1517C6.05631 12.4776 5.73016 13.9216 5.73016 15.4332C5.73016 16.0926 5.79334 16.7394 5.91381 17.3694C6.32664 16.267 7.27129 14.4981 9.25905 13.6362C9.60724 13.4858 9.87021 13.2017 9.98334 12.8516C10.3932 11.5791 11.7404 8.69523 15.3384 9.62887C17.2997 10.1379 18.0122 12.5043 17.8345 13.6432C17.783 13.9695 18.046 14.2647 18.3913 14.2647H19.0921H19.7928C20.1381 14.2647 20.4011 13.9695 20.3496 13.6432C20.1719 12.5043 20.8844 10.1379 22.8457 9.62887C26.4451 8.69523 27.7909 11.5791 28.2008 12.8516C28.3139 13.2003 28.5769 13.4844 28.9251 13.6362C30.9128 14.4995 31.8589 16.2684 32.2718 17.3708C32.3908 16.7408 32.4554 16.0941 32.4554 15.4346C32.4554 13.9231 32.1293 12.479 31.5343 11.1531C31.095 10.1744 31.0348 9.07909 31.3565 8.05968C32.5304 4.35183 33.4207 0 31.1655 0Z" fill="#FBB03B"/>
<path d="M16.4946 3.38215C15.7556 3.40465 15.0475 3.52979 14.3732 3.7393C14.0441 3.84194 13.6841 3.75617 13.4476 3.51432C12.0343 2.06324 9.57639 0.00192261 7.02741 0.00192261C4.77227 0.00192261 5.66405 4.35235 6.83202 8.0602C7.15377 9.07961 7.09353 10.1749 6.65425 11.1536C6.05925 12.4795 5.7331 13.9236 5.7331 15.4351C5.7331 16.0946 5.79627 16.7414 5.91674 17.3713C6.32957 16.2689 7.27423 14.5001 9.26199 13.6381C9.61018 13.4877 9.87316 13.2037 9.98628 12.8535C10.3536 11.7132 11.4731 9.27927 14.2909 9.45785C13.1846 5.61642 15.5117 3.91225 16.4946 3.38215Z" fill="#F7931E"/>
<path d="M25.4902 14.2647C25.4902 15.0507 24.8232 15.6891 24.0019 15.6891C23.1807 15.6891 22.5137 15.0507 22.5137 14.2647C22.5137 13.4787 23.1807 12.8404 24.0019 12.8404C24.8247 12.839 25.4902 13.4773 25.4902 14.2647Z" fill="#574F7F"/>
<path d="M19.0965 23.4844C19.0965 23.4844 17.7272 23.9428 16.4417 23.5351C16.4755 25.2378 17.6508 26.7297 19.0965 26.7297C20.5421 26.7297 21.716 25.2378 21.7512 23.5351C20.4672 23.9428 19.0965 23.4844 19.0965 23.4844Z" fill="#ED435C"/>
<path d="M17.5832 25.0297C18.1724 25.0719 18.6983 24.9622 18.9466 24.8975C19.045 24.8722 19.1493 24.8722 19.2478 24.8975C19.4961 24.9622 20.022 25.0719 20.6111 25.0297C20.8947 25.01 21.1283 25.1914 21.1973 25.4305C21.5338 24.8919 21.738 24.2311 21.7527 23.5365C20.4686 23.9442 19.0979 23.4858 19.0979 23.4858C19.0979 23.4858 17.7287 23.9442 16.4432 23.5365C16.4579 24.2325 16.6621 24.8933 16.9985 25.4305C17.0661 25.1914 17.2997 25.01 17.5832 25.0297Z" fill="#DA2F3C"/>
<path d="M32.1748 0.496353C32.1748 0.496353 29.8212 0.888651 28.311 3.34789C28.0348 3.79925 27.9451 4.33356 28.0671 4.84256C28.1538 5.20533 28.2316 5.69184 28.214 6.22615C28.1949 6.81389 28.5343 7.35664 29.0734 7.63927C29.6332 7.93454 30.3736 8.42386 31.1626 9.21689C31.1773 8.826 31.2434 8.43652 31.3624 8.05687C32.2923 5.10409 33.0475 1.74074 32.1748 0.496353Z" fill="#F7931E"/>
<path d="M30.1151 7.88252C29.9755 7.23853 29.7375 6.67891 29.526 6.26833C29.2292 5.69184 29.1748 5.02957 29.3717 4.41511C30.0299 2.35379 31.3007 1.14034 32.1822 0.510414C32.1792 0.506196 32.1763 0.500571 32.1734 0.496353C32.1734 0.496353 29.8198 0.890057 28.3095 3.34789C28.0333 3.79925 27.9437 4.33356 28.0656 4.84256C28.1523 5.20533 28.2302 5.69184 28.2125 6.22756C28.1934 6.8153 28.5328 7.35664 29.072 7.64067C29.4452 7.83612 29.8977 8.12015 30.3913 8.52088C30.2605 8.32825 30.165 8.11452 30.1151 7.88252Z" fill="#F47A21"/>
<path d="M6.01958 0.496353C6.01958 0.496353 8.37315 0.888651 9.88344 3.34789C10.1596 3.79925 10.2493 4.33356 10.1273 4.84256C10.0406 5.20533 9.96277 5.69184 9.9804 6.22615C9.9995 6.81389 9.66013 7.35664 9.12242 7.63927C8.56267 7.93454 7.82076 8.42386 7.03329 9.21689C7.0186 8.826 6.95248 8.43652 6.83348 8.05687C5.90204 5.10409 5.14544 1.74074 6.01958 0.496353Z" fill="#F47A21"/>
<path d="M25.9016 19.3365C25.7385 19.0482 25.3624 18.9414 25.0612 19.0974C24.7909 19.2915 23.3893 19.6514 22.571 21.5553C22.0377 22.7983 21.0387 23.237 19.7164 22.9192V21.7817C19.7164 21.454 19.4388 21.1883 19.0965 21.1883C18.7541 21.1883 18.4765 21.454 18.4765 21.7817V22.9192C17.1631 23.2341 16.1596 22.8067 15.6219 21.5553C14.8036 19.6514 13.405 19.2929 13.1317 19.0974C12.8305 18.9414 12.4544 19.0482 12.2914 19.3365C12.1283 19.6247 12.2399 19.9847 12.5411 20.1408C12.8511 20.3601 13.8457 20.5457 14.473 22.0052C15.3193 23.9752 17.1675 24.5882 19.095 23.9808C20.9946 24.5798 22.8575 24.0061 23.7169 22.0052C24.3472 20.5373 25.3359 20.3615 25.6489 20.1408C25.953 19.9861 26.0646 19.6247 25.9016 19.3365Z" fill="#493D71"/>
<path d="M21.0901 19.5165C21.0901 18.5913 20.1969 18.3241 19.0965 18.3241C17.9961 18.3241 17.1028 18.5913 17.1028 19.5165C17.1028 20.4403 17.9946 21.7803 19.0965 21.7803C20.1983 21.7803 21.0901 20.4417 21.0901 19.5165Z" fill="#574F7F"/>
<path d="M18.7747 19.3505C18.7747 18.8261 19.0627 18.5125 19.5137 18.3396C19.3785 18.3297 19.239 18.3255 19.0965 18.3255C17.9961 18.3255 17.1028 18.5927 17.1028 19.5179C17.1028 20.4417 17.9961 21.7817 19.0965 21.7817C19.4476 21.7817 19.7767 21.6453 20.0632 21.4301C19.311 21.0308 18.7747 20.0662 18.7747 19.3505Z" fill="#3D3660"/>
<path d="M22.521 14.1269C22.4167 15.1618 23.4657 15.9506 24.4926 15.6075C24.735 15.384 24.8864 15.0676 24.8864 14.7161C24.8864 13.4506 23.1469 13.0105 22.521 14.1269Z" fill="#3D3660"/>
<path d="M15.6792 14.2647C15.6792 15.0507 15.0122 15.6891 14.191 15.6891C13.3697 15.6891 12.7027 15.0507 12.7027 14.2647C12.7027 13.4787 13.3697 12.8404 14.191 12.8404C15.0137 12.839 15.6792 13.4773 15.6792 14.2647Z" fill="#574F7F"/>
<path d="M15.6733 14.1269C15.7777 15.1618 14.7287 15.9506 13.7017 15.6075C13.4593 15.384 13.308 15.0676 13.308 14.7161C13.308 13.4506 15.0475 13.0105 15.6733 14.1269Z" fill="#3D3660"/>
<path d="M8.07786 7.88252C8.21743 7.23853 8.45544 6.67891 8.66699 6.26833C8.96376 5.69184 9.01812 5.02957 8.82125 4.41511C8.16307 2.35379 6.89226 1.14034 6.01077 0.510414C6.01371 0.506196 6.01665 0.500571 6.01959 0.496353C6.01959 0.496353 8.37316 0.890057 9.88344 3.34789C10.1596 3.79925 10.2493 4.33356 10.1273 4.84256C10.0406 5.20533 9.96278 5.69184 9.98041 6.22756C9.99951 6.8153 9.66013 7.35664 9.12096 7.64067C8.74779 7.83612 8.2953 8.12015 7.80166 8.52088C7.93389 8.32825 8.02791 8.11452 8.07786 7.88252Z" fill="#EA631F"/>
</g>
<defs>
<filter id="filter0_d" x="0" y="0" width="38" height="38" filterUnits="userSpaceOnUse" color-interpolation-filters="sRGB">
<feFlood flood-opacity="0" result="BackgroundImageFix"/>
<feColorMatrix in="SourceAlpha" type="matrix" values="0 0 0 0 0 0 0 0 0 0 0 0 0 0 0 0 0 0 127 0"/>
<feOffset dy="1"/>
<feGaussianBlur stdDeviation="0.5"/>
<feColorMatrix type="matrix" values="0 0 0 0 0 0 0 0 0 0 0 0 0 0 0 0 0 0 0.25 0"/>
<feBlend mode="normal" in2="BackgroundImageFix" result="effect1_dropShadow"/>
<feBlend mode="normal" in="SourceGraphic" in2="effect1_dropShadow" result="shape"/>
</filter>
</defs>
</svg>
