<svg width="38" height="38" viewBox="0 0 38 38" fill="none" xmlns="http://www.w3.org/2000/svg">
<g filter="url(#filter0_d)">
<path d="M16.7389 35.8322C14.1956 35.6065 11.8498 34.7472 9.70472 33.4147C4.94627 30.4585 1.97205 26.1994 1.2036 20.6389C0.28738 13.9933 2.46982 8.39077 7.62183 4.07093C11.198 1.07273 15.4167 -0.21154 20.0709 0.0281912C27.1083 0.394015 33.4721 5.15751 35.8645 11.8031C36.2441 12.86 36.6143 13.9186 36.6781 15.0534C36.5521 14.9491 36.4198 14.8526 36.3063 14.739C34.0569 12.4896 31.8185 10.2308 29.5614 7.9907C28.667 7.10494 27.827 6.15847 26.8501 5.35677C26.5949 5.40191 26.4767 5.62452 26.3165 5.78486C25.2898 6.80605 24.2554 7.82413 23.2536 8.87023C22.9316 9.20804 22.7434 9.19558 22.4338 8.85778C21.4492 7.79456 20.4101 6.78115 19.4378 5.70547C19.0661 5.2945 18.8654 5.34743 18.5107 5.71325C17.5229 6.73911 16.4605 7.6996 15.4898 8.74103C15.0232 9.24228 14.7681 9.15044 14.3636 8.69588C13.4645 7.68247 12.5141 6.71109 11.5776 5.73037C11.4625 5.61051 11.3878 5.39257 11.1281 5.45484C11.1281 7.60775 11.1281 9.75599 11.1281 11.9042C7.32938 12.748 5.76605 16.607 7.95005 19.7951C8.15072 20.0878 8.12271 20.2684 7.95627 20.5315C7.6576 21.0016 7.35272 21.4779 7.30294 22.057C6.79894 23.3584 6.98872 24.6271 7.51605 25.8647C8.0216 27.0556 8.89427 27.9647 9.85405 28.7991C9.90538 28.8504 9.95672 28.9018 10.0065 28.9532L9.99561 28.9407C10.0454 29.0637 10.1449 29.1057 10.2694 29.1073L10.2647 29.1057C10.3161 29.1509 10.3674 29.196 10.4187 29.2412L10.4141 29.2334C10.4078 29.565 10.6816 29.7097 10.8729 29.9043C12.8221 31.8891 14.7805 33.8615 16.7389 35.8322Z" fill="#D7F5FF"/>
<path d="M16.7389 35.8322C14.7805 33.8583 12.8236 31.8891 10.8714 29.9106C10.6816 29.7191 10.4078 29.5728 10.4125 29.2396C10.7905 29.3206 11.0674 29.5899 11.3941 29.7642C14.4243 31.3988 17.6878 31.7895 21.0447 31.4455C23.7094 31.1715 26.2014 30.3246 28.3154 28.6014C30.8603 26.5294 31.8201 23.4285 29.9954 20.5128C29.8181 20.231 29.8243 20.0504 30.0281 19.7765C30.7498 18.8066 31.1232 17.692 30.9832 16.4887C30.6892 13.984 29.3296 12.5254 26.8345 11.9136C26.8392 9.72797 26.8407 7.54237 26.8454 5.35677C27.8238 6.15847 28.6623 7.10494 29.5567 7.9907C31.8154 10.2292 34.0538 12.4896 36.3016 14.739C36.4167 14.8542 36.5505 14.9491 36.6734 15.0534C37.0452 16.4529 37.0514 17.8882 36.9285 19.3048C36.4618 24.6334 34.1736 29.0341 29.913 32.2892C26.0287 35.2578 21.6203 36.4767 16.7389 35.8322Z" fill="#63C7FF"/>
<path d="M26.8345 11.9167C29.3281 12.5269 30.6892 13.9871 30.9832 16.4918C31.1247 17.6952 30.7514 18.8097 30.0281 19.7796C29.8243 20.0535 29.8181 20.2341 29.9954 20.5159C31.8201 23.4316 30.8603 26.5294 28.3154 28.6045C26.2014 30.3278 23.7094 31.1746 21.0447 31.4486C17.6878 31.7926 14.4243 31.4019 11.394 29.7673C11.0674 29.5899 10.7905 29.3237 10.4125 29.2427L10.4172 29.2505C10.3658 29.2054 10.3145 29.1602 10.2632 29.1151L10.2678 29.1166C10.2103 29.0077 10.1154 28.9579 9.99405 28.9501L10.0049 28.9625C9.9536 28.9112 9.90227 28.8598 9.85249 28.8084C8.89271 27.9756 8.02005 27.0649 7.51449 25.874C6.98871 24.6349 6.79738 23.3678 7.30138 22.0664C7.85205 23.0082 8.3436 24.0013 9.19294 24.7159C11.7892 26.9061 14.8225 27.9071 18.1934 28.002C18.7938 28.0192 18.9992 27.876 18.9929 27.2346C18.9618 23.4004 18.9758 19.5663 18.9758 15.7306C19.5545 15.6263 20.1347 15.7228 20.7118 15.754C20.9732 15.768 21.1474 15.7648 21.2749 15.4255C22.2658 12.8242 24.0998 11.6832 26.8345 11.9167ZM29.6983 16.881C29.7123 14.7981 28.1054 13.1761 26.0272 13.1761C23.9925 13.1761 22.3623 14.7904 22.3514 16.8156C22.3405 18.8393 23.9598 20.5065 25.9618 20.5346C28.0261 20.5626 29.6827 18.9421 29.6983 16.881Z" fill="#269B47"/>
<path d="M18.9758 15.7337C18.9758 19.5679 18.9618 23.402 18.9929 27.2377C18.9992 27.8791 18.7923 28.0207 18.1934 28.0052C14.824 27.9102 11.7892 26.9092 9.19294 24.719C8.34205 24.0013 7.85205 23.0097 7.30138 22.0695C7.35116 21.4904 7.65916 21.014 7.95472 20.5439C8.12116 20.2793 8.14916 20.1002 7.94849 19.8076C5.76449 16.6179 7.32782 12.7589 11.1265 11.9167C13.1518 11.705 14.7852 12.3759 16.0281 14.0198C16.4372 14.56 16.3874 15.4597 16.9676 15.7181C17.5401 15.9672 18.2961 15.631 18.9758 15.7337ZM8.26116 16.8499C8.23627 18.8409 9.8416 20.4988 11.8234 20.5361C13.8923 20.575 15.5878 18.9576 15.6096 16.9215C15.6329 14.8635 14.0509 13.2041 12.0396 13.1776C9.88827 13.148 8.29072 14.7032 8.26116 16.8499Z" fill="#21CE5A"/>
<path d="M18.9758 15.7337C18.2976 15.631 17.5416 15.9688 16.9692 15.715C16.3874 15.4582 16.4372 14.5569 16.0296 14.0167C14.7867 12.3744 13.1534 11.7019 11.1281 11.9136C11.1281 9.76534 11.1281 7.61709 11.1281 5.46418C11.3894 5.40191 11.4625 5.61829 11.5776 5.73972C12.5141 6.72044 13.4629 7.69026 14.3636 8.70522C14.7681 9.16134 15.0232 9.25163 15.4898 8.75037C16.4589 7.70582 17.5198 6.74846 18.5107 5.72259C18.8638 5.35677 19.0629 5.30384 19.4378 5.71481C20.4101 6.78737 21.4492 7.80234 22.4338 8.86712C22.7434 9.20492 22.9316 9.21738 23.2536 8.87957C24.2538 7.83036 25.2883 6.81539 26.3165 5.7942C26.4767 5.63386 26.5965 5.41125 26.8501 5.36611C26.8454 7.55171 26.8438 9.73731 26.8392 11.9229C24.1029 11.6879 22.2674 12.8289 21.2796 15.4333C21.1505 15.7726 20.9778 15.7773 20.7165 15.7617C20.1332 15.7244 19.5561 15.631 18.9758 15.7337Z" fill="#FAB913"/>
<path d="M9.99405 28.9516C10.1138 28.9594 10.2103 29.0092 10.2678 29.1182C10.1418 29.1151 10.0423 29.0746 9.99405 28.9516Z" fill="#7A3EB4"/>
<path d="M9.84938 28.81C9.90071 28.8613 9.95205 28.9127 10.0018 28.9641C9.95205 28.9127 9.90071 28.8613 9.84938 28.81Z" fill="#7A3EB4"/>
<path d="M10.2632 29.1151C10.3145 29.1602 10.3658 29.2054 10.4172 29.2505C10.3658 29.2069 10.3145 29.1602 10.2632 29.1151Z" fill="#7A3EB4"/>
<path d="M29.6983 16.881C29.6843 18.9436 28.0261 20.561 25.9618 20.533C23.9583 20.505 22.3389 18.8362 22.3514 16.8141C22.3623 14.7888 23.9925 13.1745 26.0272 13.1745C28.1069 13.1761 29.7123 14.7981 29.6983 16.881ZM26.0085 18.7241C27.0352 18.7319 27.9001 17.9115 27.9343 16.8981C27.9669 15.8598 27.1098 14.9631 26.0583 14.9382C25.0254 14.9133 24.1512 15.7929 24.1558 16.8545C24.1589 17.9193 24.9507 18.7163 26.0085 18.7241Z" fill="#F7F8FA"/>
<path d="M8.26117 16.8499C8.28761 14.7032 9.88827 13.1496 12.0396 13.1792C14.0509 13.2056 15.6329 14.8651 15.6096 16.923C15.5863 18.9561 13.8923 20.575 11.8234 20.5377C9.84161 20.4988 8.23628 18.8378 8.26117 16.8499ZM13.8005 16.8779C13.8083 15.8474 12.9916 14.9881 11.9758 14.9569C10.9507 14.9258 10.0345 15.824 10.0469 16.853C10.0578 17.8726 10.9041 18.7163 11.9229 18.7226C12.9558 18.7272 13.7927 17.9069 13.8005 16.8779Z" fill="#F7F8FA"/>
<path d="M26.0085 18.7241C24.9507 18.7132 24.159 17.9178 24.1558 16.8576C24.1512 15.796 25.0254 14.9164 26.0583 14.9414C27.1098 14.9663 27.967 15.8598 27.9343 16.9012C27.8985 17.9146 27.0336 18.735 26.0085 18.7241Z" fill="#7A3EB4"/>
<path d="M13.8005 16.8779C13.7927 17.9084 12.9558 18.7288 11.9198 18.7226C10.9009 18.7163 10.0547 17.8742 10.0438 16.853C10.0329 15.8256 10.9476 14.9289 11.9727 14.9569C12.9916 14.9865 13.8083 15.8489 13.8005 16.8779Z" fill="#7A3EB4"/>
</g>
<defs>
<filter id="filter0_d" x="0" y="0" width="38" height="38" filterUnits="userSpaceOnUse" color-interpolation-filters="sRGB">
<feFlood flood-opacity="0" result="BackgroundImageFix"/>
<feColorMatrix in="SourceAlpha" type="matrix" values="0 0 0 0 0 0 0 0 0 0 0 0 0 0 0 0 0 0 127 0"/>
<feOffset dy="1"/>
<feGaussianBlur stdDeviation="0.5"/>
<feColorMatrix type="matrix" values="0 0 0 0 0 0 0 0 0 0 0 0 0 0 0 0 0 0 0.25 0"/>
<feBlend mode="normal" in2="BackgroundImageFix" result="effect1_dropShadow"/>
<feBlend mode="normal" in="SourceGraphic" in2="effect1_dropShadow" result="shape"/>
</filter>
</defs>
</svg>
