<svg width="97" height="36" viewBox="0 0 97 36" fill="none" xmlns="http://www.w3.org/2000/svg">
<path d="M81.8618 15.0838H57.7117C57.1621 15.0838 56.7151 15.4753 56.7151 15.958V35.1258C56.7151 35.6085 57.1607 36 57.7117 36H81.8618C82.7487 36 83.1943 35.0574 82.566 34.5063L73.0597 26.1594C72.6704 25.8175 72.6704 25.2637 73.0597 24.9217L82.566 16.5748C83.1943 16.0264 82.7501 15.0838 81.8618 15.0838Z" fill="#BF3A2B"/>
<path d="M1.04464 36L26.3094 36C26.8843 36 27.352 35.6085 27.352 35.1258L27.352 15.958C27.352 15.4753 26.8858 15.0838 26.3094 15.0838L1.04464 15.0838C0.116752 15.0838 -0.349391 16.0264 0.307925 16.5775L10.2529 24.9244C10.6603 25.2664 10.6603 25.8201 10.2529 26.1621L0.307923 34.509C-0.349394 35.0574 0.115278 36 1.04464 36Z" fill="#BF3A2B"/>
<path d="M60.1887 10.8624C60.1746 10.798 60.1606 10.7336 60.1445 10.6693C60.1766 10.7115 60.2128 10.7497 60.237 10.796C60.245 10.806 60.2068 10.8402 60.1887 10.8624Z" fill="#EBEDEE"/>
<path d="M26.4469 36L17.095 30.972H27.352V31.1806V35.2681C27.352 35.6772 26.7486 36 26.4469 36Z" fill="#FD6B5B"/>
<path d="M57.6201 36L66.972 30.972H56.7151V31.1806V35.2681C56.7151 35.6772 57.3184 36 57.6201 36Z" fill="#FD6B5B"/>
<path d="M65.8497 31.3743H18.6196C17.228 31.3743 16.0894 30.5598 16.0894 29.5642V1.81006C16.0894 0.814525 17.228 0 18.6196 0H65.8497C67.2413 0 68.3799 0.814525 68.3799 1.81006V29.5642C68.3799 30.5598 67.2413 31.3743 65.8497 31.3743Z" fill="#FD0005"/>
<path d="M40.775 19.544H47.447V23H36.527V20.72C36.527 19.248 36.567 18.16 36.647 17.456C36.727 16.736 36.919 16.144 37.223 15.68C37.543 15.216 38.055 14.816 38.759 14.48L40.007 13.928C40.871 13.544 41.479 13.264 41.831 13.088C42.215 12.912 42.487 12.76 42.647 12.632C42.807 12.504 42.911 12.344 42.959 12.152C43.023 11.944 43.055 11.632 43.055 11.216C43.055 10.752 42.991 10.416 42.863 10.208C42.751 10 42.551 9.864 42.263 9.8C41.991 9.736 41.543 9.704 40.919 9.704C39.959 9.704 38.591 9.8 36.815 9.992V6.8C37.503 6.656 38.335 6.536 39.311 6.44C40.303 6.344 41.207 6.296 42.023 6.296C43.175 6.296 44.127 6.408 44.879 6.632C45.647 6.84 46.263 7.288 46.727 7.976C47.207 8.648 47.447 9.648 47.447 10.976C47.447 12.432 47.247 13.512 46.847 14.216C46.463 14.904 45.879 15.416 45.095 15.752L41.711 17.24C41.551 17.32 41.391 17.408 41.231 17.504C41.087 17.584 40.991 17.68 40.943 17.792C40.879 17.936 40.831 18.12 40.799 18.344C40.783 18.568 40.775 18.896 40.775 19.328V19.544Z" fill="white"/>
<path d="M68.5865 13.0443C68.7809 13.1835 68.8477 13.4417 68.7346 13.6523C67.6361 15.6972 66.3461 17.736 65.1055 19.0689C65.8605 20.1829 66.7308 21.2735 67.6997 22.1645C68.5298 22.9278 69.7967 23.0268 70.7535 22.3233C71.7634 21.5808 73.154 20.4223 74.5718 18.8167C73.3991 17.5216 72.1959 15.5584 71.1632 13.6313C71.0426 13.4062 71.0918 13.1222 71.29 12.961C72.879 11.6681 72.0135 9.12865 70.0261 9.00497C67.7854 8.86561 66.7758 11.7476 68.5865 13.0443Z" fill="#F9BB4B"/>
<path d="M70.763 17.4139C71.2293 16.7781 71.6933 16.095 72.1487 15.3819C71.808 14.8078 71.4773 14.2172 71.1625 13.6298C71.0419 13.4046 71.0919 13.1221 71.2901 12.9609C72.8791 11.668 72.0135 9.12856 70.0262 9.00488C67.7856 8.86545 66.7759 11.7474 68.5866 13.0441C68.781 13.1833 68.8478 13.4415 68.7347 13.6522C67.6362 15.6972 66.3462 17.7359 65.1055 19.0688C65.8605 20.1828 66.7309 21.2734 67.6997 22.1644C68.5299 22.9277 69.7967 23.0267 70.7536 22.3232C70.8585 22.2461 70.9684 22.1634 71.0811 22.0772C71.0215 22.0072 70.9623 21.9368 70.9034 21.8661C69.8393 20.5884 69.7796 18.7548 70.763 17.4139Z" fill="#F2AA36"/>
<path d="M86.545 12.8506C86.8072 13.0986 86.8774 13.4869 86.7044 13.8034C85.6986 15.6434 84.54 17.5423 83.4086 18.7947C84.8332 20.412 86.2319 21.5774 87.2465 22.3233C88.2002 23.0244 89.4674 22.9304 90.3005 22.1645C91.2623 21.28 92.127 20.1987 92.8781 19.0931C91.6526 17.7801 90.3775 15.7693 89.2852 13.7612C89.1447 13.503 89.2066 13.1756 89.4392 12.996C91.0765 11.7317 90.2425 9.13092 88.2199 9.00499C86.9237 8.92435 85.8472 9.95168 85.8472 11.2306C85.8472 11.8688 86.1153 12.4442 86.545 12.8506Z" fill="#F9BB4B"/>
<path d="M89.5537 16.8424C89.8195 16.4433 90.0824 16.0251 90.34 15.5974C89.9755 14.9986 89.6215 14.3797 89.285 13.7611C89.1419 13.498 89.2137 13.1721 89.4498 12.9878C91.0728 11.7205 90.238 9.13063 88.2199 9.00506C86.9237 8.92441 85.8472 9.95174 85.8472 11.2307C85.8472 11.8706 86.1168 12.4473 86.5485 12.8539C86.8077 13.098 86.8805 13.4811 86.7098 13.7936C85.7028 15.6366 84.542 17.5401 83.4086 18.7947C84.8332 20.4121 86.2319 21.5774 87.2465 22.3234C88.2002 23.0245 89.4674 22.9305 90.3004 22.1645C90.5121 21.9699 90.7188 21.7652 90.9209 21.5533C90.6452 21.3265 90.3553 21.0775 90.0552 20.8058C88.9311 19.7887 88.7135 18.1041 89.5537 16.8424Z" fill="#F2AA36"/>
<path d="M61.2765 13.8767C62.2242 15.794 61.7587 17.3793 61.8779 24.0801C61.8779 25.5552 61.8779 32.4603 61.8779 34.1372H96.1221C96.1221 28.756 96.1221 22.0067 96.1221 16.7478C96.1221 15.4995 96.3554 14.6959 96.7341 13.8522C97.3134 12.562 96.8588 10.2914 95.6567 10.2914C94.6297 10.2914 94.1157 11.9707 94.3909 13.2651C94.5193 13.8666 95.0184 14.6365 94.597 15.8461C93.5915 17.7599 92.1169 20.1317 90.3004 21.8022C89.4699 22.5658 88.203 22.6643 87.2464 21.961C85.4379 20.6313 82.4087 17.9694 80.188 13.789C80.0446 13.519 80.1274 13.1894 80.3705 13.0041C82.0622 11.7144 81.151 8.9871 79.0053 9.00053C79.0036 9.00053 79.0017 9.00046 79 9.00046C78.9982 9.00046 78.9964 9.00053 78.9946 9.00053C76.8479 8.98717 75.9276 11.7319 77.6463 13.0168C77.8814 13.1926 77.9594 13.5111 77.8218 13.7705C75.6002 17.9615 72.5648 20.6294 70.7536 21.9611C69.7997 22.6622 68.5326 22.5681 67.6997 21.8023C65.8832 20.1318 64.4086 17.76 63.4031 15.8462C63.1677 15.1706 63.1949 14.4265 63.4647 13.7494C64.0423 12.3032 63.4307 10.2915 62.3434 10.2915C61.1436 10.2915 60.6473 12.6008 61.2765 13.8767Z" fill="#F9C85D"/>
<path d="M65.5323 19.3175C64.6883 18.1535 63.9708 16.9268 63.403 15.8462C63.1675 15.1706 63.1948 14.4265 63.4646 13.7495C64.0422 12.3032 63.4306 10.2915 62.3432 10.2915C61.1436 10.2915 60.6473 12.6008 61.2765 13.8769C62.2241 15.7942 61.7586 17.3795 61.8779 24.0803C61.8779 25.5554 61.8779 32.4605 61.8779 34.1374H65.5361C65.5361 32.4604 65.5361 25.5554 65.5361 24.0803C65.5006 22.0883 65.5168 20.5485 65.5323 19.3175Z" fill="#F9BB4B"/>
<path d="M88.0775 28.9388C88.979 28.9388 89.7098 28.208 89.7098 27.3065C89.7098 26.405 88.979 25.6742 88.0775 25.6742C87.176 25.6742 86.4452 26.405 86.4452 27.3065C86.4452 28.208 87.176 28.9388 88.0775 28.9388Z" fill="#F96989"/>
<path d="M88.0773 27.3064C87.7752 26.7832 87.7961 26.1625 88.0774 25.6741C87.7999 25.6739 87.5186 25.744 87.261 25.8927C86.4801 26.3434 86.2127 27.3419 86.6634 28.1228C87.1143 28.9037 88.1127 29.1711 88.8935 28.7204C89.1512 28.5716 89.3525 28.3631 89.491 28.1226C88.9273 28.122 88.3793 27.8297 88.0773 27.3064Z" fill="#ED5A81"/>
<path d="M79 30.3034C80.3739 30.3034 81.4876 28.9752 81.4876 27.3368C81.4876 25.6984 80.3739 24.3702 79 24.3702C77.6261 24.3702 76.5124 25.6984 76.5124 27.3368C76.5124 28.9752 77.6261 30.3034 79 30.3034Z" fill="#F96989"/>
<path d="M80.6661 29.458C79.2922 29.458 78.1784 28.1298 78.1784 26.4914C78.1784 25.661 78.4649 24.9107 78.926 24.3722C77.5864 24.419 76.5123 25.7277 76.5123 27.3365C76.5123 28.9749 77.626 30.3031 78.9999 30.3031C79.6775 30.3031 80.2914 29.9796 80.74 29.4556C80.7155 29.4566 80.691 29.458 80.6661 29.458Z" fill="#ED5A81"/>
<path d="M96.0221 33.7751C92.1792 33.7751 65.7455 33.7751 61.9779 33.7751C61.4378 33.7751 61 34.2557 61 34.8485C61 35.4412 61.4378 35.9219 61.9779 35.9219C65.8208 35.9219 92.2545 35.9219 96.0221 35.9219C96.5622 35.9219 97 35.4414 97 34.8485C97 34.2556 96.5622 33.7751 96.0221 33.7751Z" fill="#F4A32C"/>
<path d="M64.622 34.8485C64.622 34.2557 65.0598 33.7751 65.5999 33.7751C63.8932 33.7751 62.6131 33.7751 61.9779 33.7751C61.4378 33.7751 61 34.2556 61 34.8485C61 35.4413 61.4378 35.9219 61.9779 35.9219C62.6218 35.9219 63.9005 35.9219 65.5999 35.9219C65.0598 35.9219 64.622 35.4413 64.622 34.8485Z" fill="#ED9015"/>
<path d="M69.7471 28.9388C70.6486 28.9388 71.3794 28.208 71.3794 27.3065C71.3794 26.405 70.6486 25.6742 69.7471 25.6742C68.8456 25.6742 68.1148 26.405 68.1148 27.3065C68.1148 28.208 68.8456 28.9388 69.7471 28.9388Z" fill="#F96989"/>
<path d="M69.7468 27.3064C69.4447 26.7832 69.4656 26.1625 69.7469 25.6741C69.4694 25.6739 69.1881 25.744 68.9305 25.8927C68.1497 26.3434 67.8822 27.3419 68.333 28.1228C68.7838 28.9037 69.7822 29.1711 70.5631 28.7204C70.8207 28.5716 71.022 28.3631 71.1605 28.1226C70.5969 28.122 70.0489 27.8297 69.7468 27.3064Z" fill="#ED5A81"/>
</svg>
