<svg width="38" height="38" viewBox="0 0 38 38" fill="none" xmlns="http://www.w3.org/2000/svg">
<g filter="url(#filter0_d)">
<path d="M18.9269 35.95C28.8277 35.95 36.8539 27.9023 36.8539 17.975C36.8539 8.04769 28.8277 0 18.9269 0C9.02617 0 1 8.04769 1 17.975C1 27.9023 9.02617 35.95 18.9269 35.95Z" fill="#7BABEF"/>
<path d="M37 17.9991C37 17.975 35.8724 18.5317 33.9798 15.6792L16.9295 15.5327L8.45337 32.2375C8.93639 32.5787 10.2755 33.3112 10.7911 33.606L13.7993 35.2175C15.4598 35.726 17.2217 36 19.0473 36C28.9639 36 37 27.9406 37 17.9991Z" fill="#074EE8"/>
<path d="M25.746 32.3598H11.6953C11.2656 32.3598 10.9183 32.0117 10.9183 31.5808C10.9183 31.1499 11.2656 30.8017 11.6953 30.8017H25.746C26.1757 30.8017 26.523 31.1499 26.523 31.5808C26.523 32.0117 26.1757 32.3598 25.746 32.3598Z" fill="#6E391C"/>
<path d="M28.8952 5.76358H23.3842L20.9244 6.54264V14.9002C20.9244 15.3311 21.2716 15.6792 21.7013 15.6792H33.8285C34.2583 15.6792 34.6055 15.3311 34.6055 14.9002V11.4893C34.6072 8.33341 32.0443 5.76358 28.8952 5.76358Z" fill="#FCC515"/>
<path d="M23.3842 5.76358H16.0065C13.196 5.76358 10.9184 8.0473 10.9184 10.8653V31.5808C10.9184 32.0117 11.2656 32.3598 11.6953 32.3598H12.9003C18.6897 32.3598 23.3842 27.6528 23.3842 21.8478V5.76358Z" fill="#FF6C52"/>
<path d="M17.1512 31.4601C20.8229 29.8245 23.3842 26.1378 23.3842 21.8496V5.76529H17.1512V31.4601Z" fill="#F92814"/>
<path d="M18.535 11.3634C18.9407 11.3634 19.3309 11.0049 19.312 10.5844C19.2931 10.1621 18.9699 9.80531 18.535 9.80531C18.1293 9.80531 17.7391 10.1638 17.758 10.5844C17.7752 11.0066 18.0984 11.3634 18.535 11.3634Z" fill="black"/>
<path d="M17.1512 19.1091V29.3867C18.3133 27.9303 18.9475 26.1102 18.9475 24.2091V22.9854C18.9493 21.4221 18.2462 20.0243 17.1512 19.1091Z" fill="#FF6C52"/>
<path d="M14.107 17.9957C14.0571 17.9957 14.009 17.9957 13.9592 17.9974C12.8539 18.025 11.7984 18.3593 10.8857 18.9574V32.3391H11.5767C11.5956 32.3391 11.6145 32.3391 11.6351 32.3374C13.624 32.1892 15.4701 31.274 16.8333 29.7624C18.1981 28.2491 18.9493 26.2774 18.9493 24.2091V22.9854C18.9493 20.2346 16.7765 17.9957 14.107 17.9957Z" fill="#1DD882"/>
<path d="M9.78042 19.8916C8.68545 21.0619 8.08209 22.5993 8.08209 24.2212V31.5618C8.08209 31.9927 8.42932 32.3409 8.85906 32.3409H10.8857V18.9591C10.4886 19.2194 10.1173 19.5314 9.78042 19.8916Z" fill="#FCC515"/>
</g>
<defs>
<filter id="filter0_d" x="0" y="0" width="38" height="38" filterUnits="userSpaceOnUse" color-interpolation-filters="sRGB">
<feFlood flood-opacity="0" result="BackgroundImageFix"/>
<feColorMatrix in="SourceAlpha" type="matrix" values="0 0 0 0 0 0 0 0 0 0 0 0 0 0 0 0 0 0 127 0"/>
<feOffset dy="1"/>
<feGaussianBlur stdDeviation="0.5"/>
<feColorMatrix type="matrix" values="0 0 0 0 0 0 0 0 0 0 0 0 0 0 0 0 0 0 0.25 0"/>
<feBlend mode="normal" in2="BackgroundImageFix" result="effect1_dropShadow"/>
<feBlend mode="normal" in="SourceGraphic" in2="effect1_dropShadow" result="shape"/>
</filter>
</defs>
</svg>
