<svg width="97" height="36" viewBox="0 0 97 36" fill="none" xmlns="http://www.w3.org/2000/svg">
<path d="M81.8618 15.0838H57.7117C57.1621 15.0838 56.7151 15.4753 56.7151 15.958V35.1258C56.7151 35.6085 57.1607 36 57.7117 36H81.8618C82.7487 36 83.1943 35.0574 82.566 34.5063L73.0597 26.1594C72.6704 25.8175 72.6704 25.2637 73.0597 24.9217L82.566 16.5748C83.1943 16.0264 82.7501 15.0838 81.8618 15.0838Z" fill="#0C3489"/>
<path d="M1.04464 36L26.3094 36C26.8843 36 27.352 35.6085 27.352 35.1258L27.352 15.958C27.352 15.4753 26.8858 15.0838 26.3094 15.0838L1.04465 15.0838C0.116757 15.0838 -0.349386 16.0264 0.307931 16.5775L10.2529 24.9244C10.6603 25.2664 10.6603 25.8201 10.2529 26.1621L0.307928 34.509C-0.349388 35.0574 0.115284 36 1.04464 36Z" fill="#0C3489"/>
<path d="M60.1887 10.8624C60.1746 10.798 60.1606 10.7336 60.1445 10.6693C60.1766 10.7115 60.2128 10.7497 60.237 10.796C60.245 10.806 60.2068 10.8402 60.1887 10.8624Z" fill="#EBEDEE"/>
<path d="M26.4469 36L17.095 30.972H27.352V31.1806V35.2681C27.352 35.6772 26.7486 36 26.4469 36Z" fill="#7B9BE2"/>
<path d="M57.6201 36L66.972 30.972H56.7151V31.1806V35.2681C56.7151 35.6772 57.3184 36 57.6201 36Z" fill="#7B9BE2"/>
<path d="M65.8497 31.3743H18.6196C17.228 31.3743 16.0894 30.5598 16.0894 29.5642V1.81006C16.0894 0.814525 17.228 0 18.6196 0H65.8497C67.2413 0 68.3799 0.814525 68.3799 1.81006V29.5642C68.3799 30.5598 67.2413 31.3743 65.8497 31.3743Z" fill="#074EE8"/>
<path d="M41.3727 24.192C40.6527 24.192 39.8287 24.144 38.9007 24.048C37.9887 23.952 37.1887 23.832 36.5007 23.688V20.544C38.1487 20.704 39.5647 20.784 40.7487 20.784C41.4047 20.784 41.8767 20.752 42.1647 20.688C42.4687 20.624 42.6767 20.48 42.7887 20.256C42.9167 20.032 42.9807 19.664 42.9807 19.152C42.9807 18.608 42.9247 18.216 42.8127 17.976C42.7167 17.72 42.5487 17.552 42.3087 17.472C42.0847 17.376 41.7327 17.328 41.2527 17.328H38.8047V13.968H41.2527C41.7167 13.968 42.0527 13.936 42.2607 13.872C42.4847 13.792 42.6367 13.64 42.7167 13.416C42.7967 13.176 42.8367 12.808 42.8367 12.312C42.8367 11.8 42.7807 11.44 42.6687 11.232C42.5727 11.008 42.3727 10.864 42.0687 10.8C41.7647 10.736 41.2607 10.704 40.5567 10.704C39.3407 10.704 38.0127 10.792 36.5727 10.968V7.8C37.2447 7.656 38.0367 7.536 38.9487 7.44C39.8607 7.344 40.6767 7.296 41.3967 7.296C42.8367 7.296 43.9807 7.448 44.8287 7.752C45.6767 8.04 46.2847 8.504 46.6527 9.144C47.0367 9.768 47.2287 10.592 47.2287 11.616C47.2287 12.784 47.0207 13.672 46.6047 14.28C46.2047 14.888 45.5647 15.304 44.6847 15.528V15.624C45.6287 15.848 46.3087 16.248 46.7247 16.824C47.1567 17.384 47.3727 18.312 47.3727 19.608C47.3727 20.664 47.1967 21.528 46.8447 22.2C46.4927 22.856 45.8767 23.352 44.9967 23.688C44.1327 24.024 42.9247 24.192 41.3727 24.192Z" fill="white"/>
<path d="M66.1664 31.5503H91.8409C93.0131 31.5503 93.9634 32.5464 93.9634 33.7751C93.9634 35.0039 93.0131 36 91.8409 36H66.1664C64.9942 36 64.0439 35.0039 64.0439 33.7751C64.0439 32.5464 64.9942 31.5503 66.1664 31.5503Z" fill="#CE7419"/>
<path d="M63.6965 10.469L70.6155 15.2278C69.4602 17.0513 69.9314 19.5129 71.668 20.726C73.4047 21.9391 75.7491 21.4444 76.9044 19.6209C78.0598 17.7974 77.5885 15.3357 75.8519 14.1227C75.6534 13.9841 75.4429 13.8654 75.2232 13.7684L78.9999 4.362L82.7767 13.7684C80.85 14.6077 79.9364 16.9281 80.7357 18.9511C81.5351 20.974 83.7449 21.9334 85.6715 21.0941C87.5982 20.2548 88.5118 17.9344 87.7125 15.9114C87.6191 15.6751 87.5041 15.4487 87.3692 15.2357L94.2882 10.477L89.96 31.5502H68.0549L63.6965 10.469Z" fill="#FCBA29"/>
<path d="M78.9999 4.362L82.7766 13.7684C80.85 14.6077 79.9363 16.9281 80.7357 18.9511C81.535 20.974 83.7449 21.9334 85.6715 21.0941C87.5981 20.2548 88.5118 17.9344 87.7125 15.9114C87.6191 15.6751 87.5041 15.4487 87.3692 15.2357L94.2882 10.477L89.96 31.5502H78.9999V4.362Z" fill="#E99A23"/>
<path d="M62.7449 10.6755C63.7085 10.6755 64.4897 9.85521 64.4897 8.84336C64.4897 7.8315 63.7085 7.01123 62.7449 7.01123C61.7812 7.01123 61 7.8315 61 8.84336C61 9.85521 61.7812 10.6755 62.7449 10.6755Z" fill="#FCBA29"/>
<path d="M95.2551 10.8737C96.2188 10.8737 97 10.0534 97 9.04154C97 8.02968 96.2188 7.20941 95.2551 7.20941C94.2915 7.20941 93.5103 8.02968 93.5103 9.04154C93.5103 10.0534 94.2915 10.8737 95.2551 10.8737Z" fill="#FCBA29"/>
<path d="M79 4.36221C80.1472 4.36221 81.0772 3.38569 81.0772 2.1811C81.0772 0.976513 80.1472 0 79 0C77.8528 0 76.9228 0.976513 76.9228 2.1811C76.9228 3.38569 77.8528 4.36221 79 4.36221Z" fill="#FCBA29"/>
<path d="M79 22.4058L80.2237 24.1189L81.4549 25.8321L80.2237 27.5452L79 29.2584L77.7763 27.5452L76.5451 25.8321L77.7763 24.1189L79 22.4058Z" fill="#CE7419"/>
<path d="M86.8783 23.9286L87.7545 25.15L88.6307 26.3714L87.7545 27.5928L86.8783 28.8222L86.0021 27.5928L85.1259 26.3714L86.0021 25.15L86.8783 23.9286Z" fill="#CE7419"/>
<path d="M71.1216 23.9286L71.9978 25.15L72.874 26.3714L71.9978 27.5928L71.1216 28.8222L70.2454 27.5928L69.3692 26.3714L70.2454 25.15L71.1216 23.9286Z" fill="#CE7419"/>
</svg>
