<svg width="38" height="38" viewBox="0 0 38 38" fill="none" xmlns="http://www.w3.org/2000/svg">
<g filter="url(#filter0_d)">
<path d="M8.96486 32.9459C4.16097 29.7135 1 24.2265 1 18C1 8.05929 9.05892 0 18.9992 0C28.9394 0 36.9984 8.05929 36.9984 18C36.9984 24.2265 33.8374 29.7135 29.0335 32.9459H8.96486Z" fill="#607BC6"/>
<path d="M16.7108 32.9459H29.0352C33.839 29.7135 37 24.2265 37 18C37 16.7203 36.867 15.4714 36.6124 14.268L29.3011 6.95639L16.7108 32.9459Z" fill="#0E2984"/>
<path d="M23.8079 35.3512C25.6925 34.8306 27.4538 34.0099 29.0351 32.9459L25.819 21.046H12.181L8.96484 32.9459C10.5478 34.0099 12.3075 34.8306 14.192 35.3512H23.8079Z" fill="#E9EDF5"/>
<path d="M29.0351 32.9459L25.819 21.046H18.9749V35.3529H23.8063C25.6925 34.8306 27.4522 34.0099 29.0351 32.9459Z" fill="#CDD2E1"/>
<path d="M15.7831 8.9627L8.69727 6.95639L10.491 13.7733L15.7831 8.9627Z" fill="#E9EDF5"/>
<path d="M14.0574 9.84178L10.7116 8.89458L11.5582 12.1141L14.0574 9.84178Z" fill="#BEC3D2"/>
<path d="M22.2169 8.9627L29.3027 6.95639L27.509 13.7733L22.2169 8.9627Z" fill="#CDD2E1"/>
<path d="M23.9426 9.84178L27.2884 8.89458L26.4418 12.1141L23.9426 9.84178Z" fill="#9196AA"/>
<path d="M28.2323 16.683C28.2323 21.7823 24.0999 23.761 19.0008 23.761C13.9017 23.761 9.76929 21.7807 9.76929 16.683C9.76929 11.5853 13.9017 7.45107 19.0008 7.45107C24.0999 7.45107 28.2323 11.5837 28.2323 16.683Z" fill="white"/>
<path d="M19.0008 7.45107C18.9927 7.45107 18.9846 7.45107 18.9765 7.45107V23.761C18.9846 23.761 18.9927 23.761 19.0008 23.761C24.0999 23.761 28.2323 21.7807 28.2323 16.683C28.2323 11.5853 24.0982 7.45107 19.0008 7.45107Z" fill="#E9EDF5"/>
<path d="M14.3299 16.0861C14.9032 16.0861 15.3679 15.6214 15.3679 15.0481C15.3679 14.4748 14.9032 14.0101 14.3299 14.0101C13.7566 14.0101 13.2919 14.4748 13.2919 15.0481C13.2919 15.6214 13.7566 16.0861 14.3299 16.0861Z" fill="#636978"/>
<path d="M23.6717 16.0861C24.245 16.0861 24.7097 15.6214 24.7097 15.0481C24.7097 14.4748 24.245 14.0101 23.6717 14.0101C23.0984 14.0101 22.6337 14.4748 22.6337 15.0481C22.6337 15.6214 23.0984 16.0861 23.6717 16.0861Z" fill="#414952"/>
<path d="M19.0008 25.044C16.3458 25.044 14.1937 27.1963 14.1937 29.8513V35.3512C15.7231 35.7746 17.3352 36 19.0008 36C20.6648 36 22.2769 35.7746 23.8079 35.3512V29.8513C23.8079 27.1963 21.6558 25.044 19.0008 25.044Z" fill="white"/>
<path d="M19.0008 25.044C18.9927 25.044 18.9846 25.044 18.9765 25.044V36C18.9846 36 18.9927 36 19.0008 36C20.6648 36 22.2769 35.7746 23.8079 35.3512V29.8513C23.8079 27.1963 21.6558 25.044 19.0008 25.044Z" fill="#E9EDF5"/>
<path d="M26.5732 22.2429C24.4096 23.6929 21.7255 24.5525 18.8159 24.5525C16.0393 24.5525 13.4671 23.7691 11.3571 22.4359L10.8689 24.293C13.0632 25.8209 15.8204 26.7324 18.8143 26.7324C21.9672 26.7324 24.8573 25.7235 27.1035 24.0465L26.5732 22.2429Z" fill="#F1333F"/>
<path d="M26.5732 22.2429C24.4405 23.6718 21.8017 24.5282 18.9392 24.5509V26.7324C22.0434 26.7064 24.8881 25.7025 27.1051 24.0481L26.5732 22.2429Z" fill="#AE283F"/>
<path d="M18.9165 28.1434C19.6948 28.1434 20.3258 27.5124 20.3258 26.734C20.3258 25.9556 19.6948 25.3246 18.9165 25.3246C18.1381 25.3246 17.5071 25.9556 17.5071 26.734C17.5071 27.5124 18.1381 28.1434 18.9165 28.1434Z" fill="#FFDC00"/>
<path d="M20.3259 26.734C20.3259 25.9636 19.7079 25.3392 18.9392 25.3262V28.1418C19.7063 28.1289 20.3259 27.5044 20.3259 26.734Z" fill="#FFC000"/>
<path d="M20.3631 18.4979C20.3631 18.8174 20.1036 19.077 19.7841 19.077C19.4646 19.077 19.2052 18.8174 19.2052 18.4979V16.5873H18.6537V18.4979C18.6537 18.8174 18.3942 19.077 18.0747 19.077C17.7552 19.077 17.4957 18.8174 17.4957 18.4979H16.9443C16.9443 19.1224 17.4519 19.6284 18.0747 19.6284C18.4153 19.6284 18.7218 19.4759 18.9294 19.2375C19.137 19.4776 19.4436 19.6284 19.7841 19.6284C20.4086 19.6284 20.9146 19.1207 20.9146 18.4979H20.3631Z" fill="#999999"/>
<path d="M20.3631 18.4979C20.3631 18.8174 20.1036 19.077 19.7841 19.077C19.4646 19.077 19.2051 18.8174 19.2051 18.4979V16.5873H18.944V19.2521C19.1516 19.4824 19.4517 19.6284 19.7841 19.6284C20.4086 19.6284 20.9146 19.1207 20.9146 18.4979H20.3631Z" fill="#808080"/>
<path d="M19.9107 16.3878L19.1841 17.1161C19.043 17.2572 18.8159 17.2572 18.6748 17.1161L17.9482 16.3894C17.7212 16.1624 17.8817 15.7731 18.2029 15.7731L19.656 15.7715C19.9772 15.7715 20.1377 16.1608 19.9107 16.3878Z" fill="#B3B3B3"/>
<path d="M19.656 15.7715H18.944V17.2199C19.0316 17.2166 19.1176 17.1809 19.1841 17.1144L19.9106 16.3862C20.1377 16.1608 19.9771 15.7715 19.656 15.7715Z" fill="#999999"/>
</g>
<defs>
<filter id="filter0_d" x="0" y="0" width="38" height="38" filterUnits="userSpaceOnUse" color-interpolation-filters="sRGB">
<feFlood flood-opacity="0" result="BackgroundImageFix"/>
<feColorMatrix in="SourceAlpha" type="matrix" values="0 0 0 0 0 0 0 0 0 0 0 0 0 0 0 0 0 0 127 0"/>
<feOffset dy="1"/>
<feGaussianBlur stdDeviation="0.5"/>
<feColorMatrix type="matrix" values="0 0 0 0 0 0 0 0 0 0 0 0 0 0 0 0 0 0 0.25 0"/>
<feBlend mode="normal" in2="BackgroundImageFix" result="effect1_dropShadow"/>
<feBlend mode="normal" in="SourceGraphic" in2="effect1_dropShadow" result="shape"/>
</filter>
</defs>
</svg>
