<svg width="97" height="36" viewBox="0 0 97 36" fill="none" xmlns="http://www.w3.org/2000/svg">
<path d="M81.8618 15.0838H57.7117C57.1621 15.0838 56.7151 15.4753 56.7151 15.958V35.1258C56.7151 35.6085 57.1607 36 57.7117 36H81.8618C82.7487 36 83.1943 35.0574 82.566 34.5063L73.0597 26.1594C72.6704 25.8175 72.6704 25.2637 73.0597 24.9217L82.566 16.5748C83.1943 16.0264 82.7501 15.0838 81.8618 15.0838Z" fill="#6856D2"/>
<path d="M1.04464 36L26.3094 36C26.8843 36 27.352 35.6085 27.352 35.1258L27.352 15.958C27.352 15.4753 26.8858 15.0838 26.3094 15.0838L1.04465 15.0838C0.116759 15.0838 -0.349384 16.0264 0.307931 16.5775L10.2529 24.9244C10.6603 25.2664 10.6603 25.8201 10.2529 26.1621L0.307928 34.509C-0.349386 35.0574 0.115286 36 1.04464 36Z" fill="#6856D2"/>
<path d="M60.1887 10.8624C60.1746 10.798 60.1606 10.7336 60.1445 10.6693C60.1766 10.7115 60.2129 10.7497 60.237 10.796C60.245 10.806 60.2068 10.8402 60.1887 10.8624Z" fill="#EBEDEE"/>
<path d="M26.4469 36L17.095 30.972H27.352V31.1806V35.2681C27.352 35.6772 26.7486 36 26.4469 36Z" fill="#AA9CFD"/>
<path d="M57.6201 36L66.972 30.972H56.7151V31.1806V35.2681C56.7151 35.6772 57.3184 36 57.6201 36Z" fill="#AA9CFD"/>
<path d="M65.8497 31.3743H18.6196C17.228 31.3743 16.0894 30.5598 16.0894 29.5642V1.81006C16.0894 0.814525 17.228 0 18.6196 0H65.8497C67.2413 0 68.3799 0.814525 68.3799 1.81006V29.5642C68.3799 30.5598 67.2413 31.3743 65.8497 31.3743Z" fill="#7A63FF"/>
<path d="M71.5801 17.1678L70.3689 16.865C66.1357 15.8062 63.1094 11.9487 63.1094 7.58574V6.32813H68.8754C69.4584 6.32813 69.9301 5.8564 69.9301 5.27344C69.9301 4.69048 69.4584 4.21875 68.8754 4.21875C68.8754 4.21875 62.1317 4.21875 62.0547 4.21875C61.4717 4.21875 61 4.69048 61 5.27344V7.58574C61 12.919 64.6835 17.6169 69.858 18.9105L71.0692 19.2133C71.6301 19.3552 72.2058 19.0148 72.3475 18.446C72.4896 17.8815 72.1456 17.3089 71.5801 17.1678Z" fill="#FEA832"/>
<path d="M95.9453 4.21875C95.8646 4.21875 89.1246 4.21875 89.1246 4.21875C88.5416 4.21875 88.0699 4.69048 88.0699 5.27344C88.0699 5.8564 88.5416 6.32812 89.1246 6.32812H94.8906V8.05746C94.8906 12.237 92.1393 15.9493 88.1492 17.1905L85.7937 17.9239C85.2375 18.0969 84.9264 18.6881 85.0995 19.2443C85.2717 19.7962 85.8575 20.1111 86.4199 19.9384L88.7754 19.2051C93.6523 17.6869 97 13.165 97 8.05746V5.27344C97 4.69048 96.5283 4.21875 95.9453 4.21875Z" fill="#FE9923"/>
<path d="M82.1641 21.1641H75.8359V31.7812H82.1641V21.1641Z" fill="#FEA832"/>
<path d="M82.1641 21.1641H79V31.7812H82.1641V21.1641Z" fill="#FE9923"/>
<path d="M86.3828 30.7266V34.9453C86.3828 35.5359 85.9188 36 85.3281 36H72.6719C72.0812 36 71.6172 35.5359 71.6172 34.9453V30.7266C71.6172 28.9757 73.0304 27.5625 74.7812 27.5625H83.2188C84.9696 27.5625 86.3828 28.9757 86.3828 30.7266Z" fill="#FEDB41"/>
<path d="M86.3828 30.7266V34.9453C86.3828 35.5359 85.9188 36 85.3281 36H79V27.5625H83.2188C84.9696 27.5625 86.3828 28.9757 86.3828 30.7266Z" fill="#FFCC33"/>
<path d="M90.6016 1.16016L89.336 13.9289C88.7875 19.2656 84.3577 23.2734 79 23.2734C73.6423 23.2734 69.2125 19.2656 68.664 13.9289L67.3984 1.16016C67.3562 0.569461 67.7781 0.0632109 68.3477 0H89.6524C90.2219 0.0632109 90.6438 0.569461 90.6016 1.16016Z" fill="#FEDB41"/>
<path d="M90.6016 1.16016L89.336 13.9289C88.7875 19.2656 84.3577 23.2734 79 23.2734V0H89.6523C90.2219 0.0632109 90.6438 0.569461 90.6016 1.16016Z" fill="#FFCC33"/>
<path d="M92.7109 1.05469C92.7109 1.64524 92.2469 2.10938 91.6562 2.10938H66.3438C65.7531 2.10938 65.2891 1.64524 65.2891 1.05469C65.2891 0.463992 65.7531 0 66.3438 0H91.6562C92.2469 0 92.7109 0.463992 92.7109 1.05469Z" fill="#FEA832"/>
<path d="M92.7109 1.05469C92.7109 1.64524 92.2469 2.10938 91.6562 2.10938H79V0H91.6562C92.2469 0 92.7109 0.463992 92.7109 1.05469Z" fill="#FE9923"/>
<path d="M86.7421 8.35125L82.289 7.69316L80.3098 3.74404C80.0478 3.25755 79.5239 3 79 3C78.4761 3 77.9522 3.25755 77.6902 3.74404L75.711 7.69316L71.2579 8.35125C70.0644 8.49433 69.5696 9.95379 70.4428 10.7836L73.6736 13.8743L72.9168 18.3195C72.7133 19.4927 73.9647 20.3798 75.0126 19.8361L79 17.7758L82.9875 19.8361C84.0353 20.3798 85.2868 19.4927 85.0832 18.3195L84.3265 13.8743L87.5573 10.7836C88.4303 9.95379 87.9355 8.49433 86.7421 8.35125Z" fill="#FEA832"/>
<path d="M68.0807 21.3887L66.5963 21.1564L65.9366 19.7626C65.8493 19.5909 65.6746 19.5 65.5 19.5C65.3254 19.5 65.1507 19.5909 65.0634 19.7626L64.4037 21.1564L62.9193 21.3887C62.5215 21.4392 62.3565 21.9543 62.6476 22.2471L63.7245 23.338L63.4723 24.9069C63.4044 25.321 63.8216 25.6341 64.1709 25.4422L65.5 24.715L66.8292 25.4422C67.1784 25.6341 67.5956 25.321 67.5277 24.9069L67.2755 23.338L68.3524 22.2471C68.6434 21.9543 68.4785 21.4392 68.0807 21.3887Z" fill="#FEA832"/>
<path d="M66.7903 29.4443L66.0482 29.3282L65.7183 28.6313C65.6746 28.5455 65.5873 28.5 65.5 28.5C65.4127 28.5 65.3254 28.5455 65.2817 28.6313L64.9518 29.3282L64.2096 29.4443C64.0107 29.4696 63.9283 29.7271 64.0738 29.8736L64.6123 30.419L64.4861 31.2034C64.4522 31.4105 64.6608 31.567 64.8354 31.4711L65.5 31.1075L66.1646 31.4711C66.3392 31.567 66.5478 31.4105 66.5139 31.2034L66.3877 30.419L66.9262 29.8736C67.0717 29.7271 66.9893 29.4696 66.7903 29.4443Z" fill="#FEA832"/>
<path d="M69.7903 33.9443L69.0482 33.8282L68.7183 33.1313C68.6746 33.0455 68.5873 33 68.5 33C68.4127 33 68.3254 33.0455 68.2817 33.1313L67.9518 33.8282L67.2096 33.9443C67.0107 33.9696 66.9283 34.2271 67.0738 34.3736L67.6123 34.919L67.4861 35.7034C67.4522 35.9105 67.6608 36.067 67.8354 35.9711L68.5 35.6075L69.1646 35.9711C69.3392 36.067 69.5478 35.9105 69.5139 35.7034L69.3877 34.919L69.9262 34.3736C70.0717 34.2271 69.9893 33.9696 69.7903 33.9443Z" fill="#FEA832"/>
<path d="M90.7903 33.9443L90.0482 33.8282L89.7183 33.1313C89.6746 33.0455 89.5873 33 89.5 33C89.4127 33 89.3254 33.0455 89.2817 33.1313L88.9518 33.8282L88.2096 33.9443C88.0107 33.9696 87.9283 34.2271 88.0738 34.3736L88.6123 34.919L88.4861 35.7034C88.4522 35.9105 88.6608 36.067 88.8354 35.9711L89.5 35.6075L90.1646 35.9711C90.3392 36.067 90.5478 35.9105 90.5139 35.7034L90.3877 34.919L90.9262 34.3736C91.0717 34.2271 90.9893 33.9696 90.7903 33.9443Z" fill="#FEA832"/>
<path d="M93.7903 29.4443L93.0482 29.3282L92.7183 28.6313C92.6746 28.5455 92.5873 28.5 92.5 28.5C92.4127 28.5 92.3254 28.5455 92.2817 28.6313L91.9518 29.3282L91.2096 29.4443C91.0107 29.4696 90.9283 29.7271 91.0738 29.8736L91.6123 30.419L91.4861 31.2034C91.4522 31.4105 91.6608 31.567 91.8354 31.4711L92.5 31.1075L93.1646 31.4711C93.3392 31.567 93.5478 31.4105 93.5139 31.2034L93.3877 30.419L93.9262 29.8736C94.0717 29.7271 93.9893 29.4696 93.7903 29.4443Z" fill="#FEA832"/>
<path d="M95.0807 21.3887L93.5963 21.1564L92.9366 19.7626C92.8493 19.5909 92.6746 19.5 92.5 19.5C92.3254 19.5 92.1507 19.5909 92.0634 19.7626L91.4037 21.1564L89.9193 21.3887C89.5215 21.4392 89.3565 21.9543 89.6476 22.2471L90.7245 23.338L90.4723 24.9069C90.4044 25.321 90.8216 25.6341 91.1709 25.4422L92.5 24.715L93.8292 25.4422C94.1784 25.6341 94.5956 25.321 94.5277 24.9069L94.2755 23.338L95.3524 22.2471C95.6434 21.9543 95.4785 21.4392 95.0807 21.3887Z" fill="#FEA832"/>
<path d="M87.5572 10.7836L84.3264 13.8743L85.0832 18.3195C85.2867 19.4927 84.0353 20.3798 82.9874 19.8361L79 17.7757V3C79.5239 3 80.0478 3.25765 80.3098 3.74403L82.289 7.69313L86.7421 8.35122C87.9356 8.4943 88.4304 9.95375 87.5572 10.7836Z" fill="#FE9923"/>
<path d="M88.4922 34.9453C88.4922 35.5359 88.0282 36 87.4375 36H70.5625C69.9718 36 69.5078 35.5359 69.5078 34.9453C69.5078 34.3546 69.9718 33.8906 70.5625 33.8906H87.4375C88.0282 33.8906 88.4922 34.3546 88.4922 34.9453Z" fill="#FEA832"/>
<path d="M88.4922 34.9453C88.4922 35.5359 88.0282 36 87.4375 36H79V33.8906H87.4375C88.0282 33.8906 88.4922 34.3546 88.4922 34.9453Z" fill="#FE9923"/>
<path d="M79 6L76 11.5L79 17L82 11.5L79 6Z" fill="#FF4B00"/>
<path d="M87.25 12.5L88 14L87.25 15.5L86.5 14L87.25 12.5Z" fill="#CC1E0D"/>
<path d="M70.75 12.5L71.5 14L70.75 15.5L70 14L70.75 12.5Z" fill="#FF4B00"/>
<path d="M71.6095 27.2524L72.4864 23.69C72.5867 23.2823 73.2355 23.1626 73.5426 23.4953L76.1398 26.309C76.5521 26.7556 76.0422 26.8598 74.3335 28.5721C72.07 27.6701 71.4631 27.8471 71.6095 27.2524Z" fill="#FFC34D"/>
<path d="M83.7059 28.5721C81.9877 26.8966 81.4371 26.7672 81.8601 26.309L84.4573 23.4953C84.7644 23.1627 85.4132 23.2822 85.5136 23.69L86.3905 27.2524C86.543 27.8723 85.8097 27.7156 83.7059 28.5721Z" fill="#FF9933"/>
<path d="M88.1767 25.3255L83.9286 27.8928L79.5149 21.6176C79.4014 21.456 79.2013 21.375 79.0004 21.375C78.7999 21.375 78.599 21.456 78.4851 21.6176L74.0713 27.8928L69.8233 25.3255C69.376 25.0553 68.7575 25.393 68.8943 25.8313L70.5157 31.014L71.589 31.5387L70.8171 31.978L71.3067 33.5428C71.3735 33.7561 71.6104 33.9058 71.8817 33.9058H86.1183C86.3896 33.9058 86.6264 33.7561 86.6933 33.5428L87.1829 31.978L86.7115 31.496L87.4842 31.014L89.1056 25.8313C89.2428 25.392 88.6231 25.0559 88.1767 25.3255Z" fill="#FFEA80"/>
<path d="M89.1056 25.8313L87.4842 31.014L86.7115 31.496L87.1829 31.978L86.6933 33.5428C86.6264 33.7561 86.3896 33.9058 86.1183 33.9058H79.0003V21.375C79.2012 21.375 79.4013 21.456 79.5148 21.6176L83.9286 27.8928L88.1767 25.3255C88.6231 25.0559 89.2428 25.392 89.1056 25.8313Z" fill="#FFC34D"/>
<path d="M81.2881 28.8381L79.5085 26.4283C79.3931 26.2721 79.1969 26.1944 79.0004 26.1944C78.8034 26.1944 78.6061 26.2728 78.4914 26.4283L76.7118 28.8381C76.5991 28.9907 76.5991 29.1816 76.7118 29.3342L78.4914 31.7441C78.6069 31.9002 78.8038 31.978 79.0004 31.978C79.1969 31.9777 79.3939 31.8993 79.5085 31.7441L81.2881 29.3342C81.4008 29.1816 81.4008 28.9907 81.2881 28.8381Z" fill="#FF6A4D"/>
<path d="M81.2881 29.3342L79.5085 31.7441C79.3938 31.8993 79.1969 31.9777 79.0003 31.978V26.1944C79.1969 26.1944 79.393 26.2721 79.5085 26.4283L81.2881 28.8381C81.4008 28.9907 81.4008 29.1816 81.2881 29.3342Z" fill="#F03800"/>
<path d="M74.8476 31.496C74.8476 31.762 74.5819 31.978 74.2544 31.978H70.8171L70.5157 31.014H74.2544C74.5819 31.014 74.8476 31.23 74.8476 31.496Z" fill="#FFC34D"/>
<path d="M87.4842 31.014L87.1829 31.978H83.7455C83.4181 31.978 83.1523 31.762 83.1523 31.496C83.1523 31.23 83.4181 31.014 83.7455 31.014H87.4842Z" fill="#FF9933"/>
<path d="M39.6161 24V11.952L36.9521 13.008V9.504L40.9121 7.488H44.0081V24H39.6161Z" fill="#FEE500"/>
</svg>
