<svg width="38" height="38" viewBox="0 0 38 38" fill="none" xmlns="http://www.w3.org/2000/svg">
<g filter="url(#filter0_d)">
<path d="M30.0811 7.42011L36.9985 18.1374C36.9985 18.0921 37 18.0468 37 18C37 8.05871 28.9413 0 19 0C9.05872 0 1 8.05871 1 18C1 27.9413 9.05872 36 19 36C19.9043 36 20.792 35.9321 21.6601 35.8037L9.81354 30.085L30.0811 7.42011Z" fill="#FF4050"/>
<path d="M36.9985 18.1374L30.0811 7.42012L9.81354 30.0851L21.6601 35.8038C30.2955 34.5235 36.9305 27.1125 36.9985 18.1374Z" fill="#FD0005"/>
<path d="M27.1447 16.9311C27.1447 16.9311 27.2051 16.4692 26.639 15.4471C26.6209 15.4154 26.6013 15.3882 26.5786 15.3671C26.3552 14.8931 26.0729 14.4552 25.7468 14.0431L24.844 12.9033C24.7715 12.781 24.6809 12.6738 24.5828 12.5742L24.5753 12.5651L24.5737 12.5666C24.4001 12.393 24.2039 12.242 24.0242 12.073C23.5396 11.6155 23.0173 11.4585 22.4224 11.6819C22.3002 11.7001 22.0646 11.7756 21.8593 11.845C21.8306 11.8465 21.8005 11.851 21.7718 11.8601C21.4457 11.9582 20.946 12.1545 20.5172 12.3326C20.2168 12.4051 19.936 12.5228 19.6763 12.6934C19.6793 12.7644 19.6839 12.8369 19.6869 12.9093L19.6386 15.201V15.204C19.6295 15.3701 19.6416 15.5452 19.6763 15.7324C19.6778 15.7445 19.6793 15.7551 19.6808 15.7672L19.6884 15.8713C19.6899 16.1204 19.5616 16.3288 19.2476 16.3273C19.0015 16.3257 18.8883 16.1869 18.846 15.9951L18.8369 13.8801C18.849 13.7729 18.849 13.6596 18.8354 13.5389C18.8037 13.2596 18.8369 12.9727 18.8415 12.6889C18.4067 12.464 17.9658 12.2587 17.4933 12.1333C17.4918 12.1333 17.4918 12.1318 17.4903 12.1318C17.1431 11.9114 16.6434 11.7876 16.2871 11.7212C16.1527 11.6669 16.0063 11.6518 15.8523 11.6578C14.569 12.5591 13.701 13.8 12.8691 15.1754L12.8676 15.1769C12.1445 16.048 12.06 16.9855 12.1822 17.7524C12.1898 17.9215 12.2351 18.1057 12.3166 18.3261C12.4963 18.9058 12.7469 19.2998 12.7755 19.3436C12.7876 19.3663 12.7982 19.3889 12.8088 19.4115C12.8525 19.4976 12.8888 19.5701 12.922 19.6305L13.5319 20.8201C13.5379 20.8367 13.547 20.8533 13.5576 20.8699C13.8263 21.2926 13.9984 21.7802 14.3864 22.1939C14.4588 22.0052 14.5147 21.8618 14.569 21.7199C14.8665 20.9424 15.2061 20.1845 15.6621 19.4855C15.8025 19.2711 15.9731 19.1383 16.2342 19.3089C16.4728 19.4629 16.4924 19.6546 16.3641 19.8992C16.0923 20.417 15.8342 20.9409 15.576 21.4647C15.4099 21.8029 15.2786 22.1531 15.2243 22.6302C15.2243 22.6302 14.711 23.7142 15.2243 24.4464C15.4311 24.8464 15.6062 25.2616 16.1965 25.2903C17.1687 25.3356 17.8738 24.9144 18.4822 24.2048C18.7026 23.9482 18.8807 23.7187 18.8249 23.3699C18.4429 23.1314 18.0474 22.9095 17.6805 22.6483C17.5763 22.5743 17.4752 22.4943 17.3937 22.4007C17.5824 22.126 17.7454 21.8754 17.8647 21.6866C18.6346 21.7712 19.4076 21.6866 20.1775 21.6761C19.9617 22.0777 19.7352 22.5789 19.5722 23.1526C19.1494 24.6381 20.2092 24.8585 20.2092 24.8585C20.2092 24.8585 20.2319 24.8434 20.2696 24.8192C20.721 24.9732 21.1724 25.1287 21.648 25.2193C22.67 25.4141 23.5849 24.6909 23.4913 23.6477C23.4279 22.9367 23.2935 22.2316 22.9569 21.5327C22.8965 21.1703 22.8225 20.9137 22.744 20.728C22.7214 20.4276 22.1401 19.8524 22.1401 19.8524C22.1296 19.8388 22.1205 19.8237 22.1099 19.8101C21.962 19.6154 22.0843 19.4433 22.2594 19.3195C22.4224 19.2047 22.6187 19.173 22.7274 19.3557C22.7727 19.4312 22.815 19.484 22.8572 19.5218C22.8572 19.5218 23.3011 20.254 23.5668 20.8548C23.7631 21.3183 23.9623 21.7863 24.1707 22.2815C25.004 21.2519 25.6668 20.1694 26.3506 19.099C26.5997 18.7111 26.6677 18.1932 27.1221 17.9426C27.2006 17.5984 27.2821 17.2572 27.1447 16.9311ZM23.5034 16.8119C23.215 17.0927 22.9357 17.381 22.6474 17.6633C22.4964 17.8113 22.3379 17.9562 22.0963 17.8581C22.0043 17.8218 21.9424 17.772 21.8986 17.7131L23.6045 16.0872C23.6483 16.131 23.6845 16.1853 23.7087 16.2563C23.7872 16.4858 23.6634 16.6564 23.5034 16.8119Z" fill="#FECF64"/>
<path d="M29.3927 11.6865C29.3912 11.7137 29.3881 11.7408 29.3806 11.7665C28.9745 12.0111 28.5714 12.2602 28.1608 12.4972C27.957 12.6149 28.0174 12.7327 28.1185 12.8837C28.4808 13.4272 28.8673 13.9601 29.1844 14.5292C30.6789 17.2029 30.928 19.9339 29.4923 22.7223C29.4093 22.7706 29.3761 22.8461 29.3761 22.9397L29.3791 22.9352C29.3444 22.9729 29.3097 23.0122 29.2749 23.0499L29.278 23.0469C29.1723 23.1375 29.0485 23.2145 28.9639 23.3216C28.1578 24.3512 27.2233 25.2616 26.3039 26.187C26.1514 26.3395 26.008 26.4965 25.7634 26.4542C25.2712 25.8806 24.7413 25.3431 24.1631 24.857C24.1601 23.8621 24.6462 23.0574 25.1369 22.2377C25.9506 20.8759 26.722 19.487 27.1433 17.9396C27.2308 17.5395 27.3289 17.138 27.0678 16.7605C27.0542 16.4933 27.0496 16.2246 26.8534 16.0102C26.5469 15.0757 26.011 14.2816 25.3543 13.5615C25.3029 13.3124 25.1127 13.1765 24.93 13.0331C24.7398 12.6149 24.3609 12.3734 24.0423 12.073C23.5094 11.5687 22.9282 11.4283 22.2564 11.762C21.7673 11.8254 21.3204 12.0201 20.869 12.2013C20.8282 12.233 20.789 12.2647 20.7482 12.2964C20.718 12.2949 20.6878 12.2979 20.6592 12.3055C20.3119 12.3719 19.9904 12.5017 19.6945 12.6965C19.4167 12.695 19.1389 12.6934 18.8596 12.6919C18.3493 12.4277 17.83 12.1892 17.2608 12.0775C17.0404 11.9205 16.7913 11.8661 16.5271 11.8601C16.3384 11.6955 16.1135 11.6518 15.8719 11.6608C15.4447 11.46 15.0778 11.605 14.7487 11.8767C13.2889 13.0814 12.2215 14.5715 11.5135 16.3273C11.2704 16.9296 11.2764 17.5048 11.4606 18.1298C11.838 19.4146 12.4555 20.5816 13.1077 21.735C13.6829 22.754 14.4453 23.696 14.3879 24.9642C13.9441 25.3899 13.4927 25.8066 13.0594 26.2429C12.8737 26.4286 12.7016 26.5207 12.4646 26.3501C12.3634 26.1674 12.217 26.03 12.0434 25.9168C11.512 25.2072 10.9806 24.4977 10.4507 23.7896C10.4174 23.539 10.2514 23.3549 10.1215 23.1541C9.6641 22.3086 9.36668 21.3998 9.06022 20.494C9.02248 20.1407 8.98473 19.786 8.94699 19.4327C8.98322 18.9239 8.93794 18.4167 9.00889 17.9049C9.16288 16.7892 9.62485 15.7823 10.031 14.7542C10.0611 14.7149 10.0913 14.6772 10.1215 14.6379C10.2061 14.5941 10.2272 14.5171 10.2302 14.4296C10.6197 13.8468 11.0092 13.2611 11.4017 12.6799C11.5165 12.5108 11.5874 12.3598 11.3066 12.2919C11.0455 12.1152 10.7903 11.9265 10.5216 11.7635C10.2604 11.605 10.2272 11.4691 10.4703 11.2472C10.9307 10.8305 11.4591 10.518 11.9845 10.1979C12.1279 10.1104 12.294 10.0424 12.0962 9.85825C11.7384 9.52159 11.5104 9.06264 11.0877 8.78788C10.9458 8.60974 10.8054 8.4316 10.6635 8.25496C10.6952 8.22175 10.7269 8.18854 10.7586 8.15532C11.1496 8.11305 11.5391 8.06927 11.9301 8.027C12.5174 7.95755 13.1062 7.89264 13.6935 7.81564C14.0709 7.76582 14.2596 7.62089 14.0769 7.1861C13.861 6.67281 13.7085 6.13234 13.5289 5.60244C13.6164 5.48469 13.7463 5.4877 13.8671 5.50129C15.1397 5.65377 16.4396 5.54658 17.6881 5.91495C17.7047 5.91948 17.7228 5.91948 17.7409 5.924C18.298 6.04176 18.7856 6.52637 19.2959 6.50372C19.8077 6.48108 20.3013 6.05082 20.8539 5.91495C21.7129 5.70359 22.581 5.59791 23.4657 5.58885C24.1163 5.58282 24.767 5.53149 25.4177 5.49978C25.7755 5.48318 25.8932 5.60848 25.771 5.97835C25.5913 6.52788 25.2788 7.03664 25.2365 7.62995L25.2411 7.62089C25.2033 7.65713 25.1671 7.69185 25.1293 7.72808C25.5143 8.027 25.9687 7.92283 26.402 7.94548C26.9485 8.15532 27.5358 8.13268 28.1004 8.23836C28.5246 8.31686 28.4431 8.48896 28.2891 8.73504C28.1125 9.01735 27.7698 9.16832 27.6671 9.51102C27.4271 9.65444 27.0074 9.89448 27.3138 10.1149C28.0204 10.6176 28.6348 11.2487 29.3927 11.6865Z" fill="#FEEEAE"/>
<path d="M29.4923 22.7223C30.9281 19.9339 30.679 17.2029 29.1844 14.5292C28.8658 13.9601 28.4808 13.4287 28.1185 12.8837C28.0174 12.7312 27.957 12.6149 28.1608 12.4972C28.5714 12.2602 28.9745 12.0111 29.3806 11.7665C30.848 13.3456 31.9124 15.1467 32.4981 17.2361C33.0929 19.3602 32.9661 21.4632 32.4091 23.5647C32.3789 23.6809 32.3079 23.7881 32.2551 23.8983C32.1373 23.9089 32.0679 23.9768 32.015 24.0795C31.2421 25.5998 30.2366 26.96 29.1678 28.2825C28.3948 29.2381 28.4159 29.2623 27.5781 28.4274C27.0527 27.9035 27.0331 27.902 26.5243 28.4108C25.7589 29.1747 24.9904 29.9326 24.2356 30.707C23.9986 30.9501 23.8099 30.9773 23.5774 30.7131C23.1698 30.2496 22.6248 29.925 22.267 29.4057C22.039 29.0735 21.8035 29.0509 21.5016 29.3755C20.8856 30.0352 20.2198 30.6497 19.5963 31.3034C19.3533 31.557 19.1963 31.554 18.9562 31.3018C18.3584 30.6738 17.7183 30.0835 17.1265 29.4495C16.8381 29.14 16.6389 29.0705 16.3324 29.4283C15.9882 29.8314 15.5881 30.1862 15.2122 30.5621C14.7125 31.0603 14.6793 31.0603 14.1947 30.5787C13.4293 29.8163 12.6518 29.0645 11.909 28.2795C11.6071 27.9594 11.4244 27.9503 11.1134 28.2734C10.2317 29.1883 10.191 29.1943 9.39086 28.213C7.70152 26.1417 6.75191 23.7428 6.52697 21.0964C6.33977 18.8983 6.78061 16.7787 7.61697 14.733C7.94458 13.9299 8.42163 13.2037 8.73866 12.3991L8.73564 12.4066C8.83528 12.3643 8.84585 12.2768 8.84887 12.1847L8.84284 12.1952C8.88058 12.153 8.91984 12.1122 8.95758 12.0699C9.03608 11.9673 9.11609 11.8646 9.19459 11.762C9.25347 11.771 9.31386 11.7786 9.37274 11.7876C9.59467 12.0745 9.91321 12.233 10.2212 12.3975C10.4597 12.5244 10.579 12.6708 10.4295 12.9365C9.79696 13.7593 9.2112 14.6107 8.86096 15.6011C8.20575 17.0262 7.94004 18.5057 8.21783 20.0652C8.20575 20.3687 8.28576 20.651 8.4171 20.9212C8.57109 21.8889 8.97719 22.7555 9.49199 23.5783C9.61579 23.8017 9.67921 24.0614 9.90113 24.2229C10.3208 25.0185 10.8447 25.7356 11.4954 26.3591C11.5905 26.6445 11.826 26.809 12.0373 26.9932C12.1656 27.1366 12.3 27.2755 12.4223 27.4235C12.5989 27.6378 12.7514 27.6197 12.9401 27.4235C13.5591 26.7773 14.1886 26.1417 14.8152 25.5016C14.9903 25.6375 15.1669 25.7749 15.342 25.9108C15.3481 27.6393 16.0456 28.6901 17.4315 29.0826C18.1259 29.2789 18.84 29.2804 19.5344 29.1898C20.2727 29.0932 20.9883 28.8577 21.4049 28.1421L21.4019 28.1526C21.4397 28.1058 21.4759 28.0575 21.5136 28.0107C21.8729 27.6091 22.3485 27.2815 22.3681 26.6641L22.3651 26.6671C22.4678 26.6233 22.4708 26.5343 22.4693 26.4437C22.4934 26.3486 22.5191 26.2519 22.5432 26.1568C23.0475 26.1297 23.3509 25.7341 23.7434 25.5016C24.2039 26.0315 24.6991 26.5282 25.2305 26.9872C25.2848 27.0551 25.3347 27.1291 25.3966 27.1925C25.8751 27.6907 25.8691 27.6831 26.3597 27.203C27.3244 26.2595 28.1155 25.1801 28.8205 24.0387C29.0092 23.7338 29.2961 23.456 29.2825 23.0484L29.2795 23.0514C29.3142 23.0137 29.3489 22.9744 29.3836 22.9367L29.3806 22.9412C29.4682 22.8944 29.4893 22.8129 29.4923 22.7223Z" fill="#C28677"/>
<path d="M8.73714 12.3975C8.42011 13.2022 7.94456 13.9284 7.61545 14.7315C6.77909 16.7756 6.33826 18.8968 6.52546 21.0949C6.75192 23.7428 7.7015 26.1402 9.38933 28.2115C10.191 29.1943 10.2302 29.1868 11.1119 28.2719C11.4229 27.9488 11.6055 27.9579 11.9075 28.2779C12.6487 29.063 13.4277 29.8133 14.1932 30.5772C14.6763 31.0588 14.711 31.0588 15.2107 30.5606C15.5866 30.1862 15.9867 29.8299 16.3309 29.4268C16.6358 29.069 16.8366 29.14 17.125 29.448C17.7168 30.082 18.3569 30.6723 18.9547 31.3003C19.1947 31.5525 19.3533 31.5555 19.5948 31.3018C20.2183 30.6482 20.8826 30.0337 21.5 29.374C21.8035 29.0494 22.039 29.072 22.2654 29.4042C22.6217 29.9235 23.1667 30.2481 23.5759 30.7116C23.8084 30.9758 23.9971 30.9486 24.2341 30.7055C24.9889 29.9326 25.7589 29.1732 26.5228 28.4093C27.033 27.9005 27.0512 27.902 27.5765 28.4259C28.4144 29.2608 28.3918 29.2366 29.1662 28.281C30.2366 26.9585 31.2405 25.5983 32.0135 24.078C32.0663 23.9753 32.1358 23.9074 32.2535 23.8968C32.0044 25.0517 31.4685 26.0844 30.8812 27.0928C30.2638 28.1526 29.5074 29.1113 28.6786 30.0156C28.4265 30.2904 28.2574 30.3009 27.9947 30.0367C27.6852 29.7272 27.421 29.1672 27.0436 29.1807C26.6405 29.1943 26.3703 29.7484 26.0427 30.0654C25.4448 30.6451 24.8485 31.2279 24.2794 31.8363C23.9986 32.1367 23.8023 32.1744 23.5094 31.8499C23.0822 31.3773 22.5946 30.9607 22.1643 30.4896C21.9197 30.2224 21.7733 30.2511 21.5378 30.4987C20.9279 31.1403 20.2696 31.7382 19.6703 32.3903C19.3533 32.7345 19.1585 32.6847 18.8656 32.3737C18.2708 31.7412 17.6202 31.1614 17.0344 30.5213C16.746 30.2058 16.586 30.2587 16.3294 30.5364C15.8991 31.006 15.422 31.4332 14.9857 31.8982C14.7457 32.1533 14.5751 32.1427 14.3336 31.8952C13.5047 31.0452 12.6503 30.2194 11.8245 29.3679C11.5905 29.1264 11.4168 29.0615 11.2055 29.3634C11.1753 29.4057 11.1315 29.4389 11.0938 29.4766C10.194 30.3749 10.1683 30.396 9.36064 29.4434C6.97534 26.6339 5.55775 23.4319 5.674 19.6893C5.75854 16.9749 6.81683 14.6062 8.52278 12.5153C8.57712 12.4504 8.62844 12.3689 8.73714 12.3975Z" fill="#8C5E5E"/>
<path d="M8.59675 9.53216C8.5892 9.51253 8.58165 9.4914 8.5741 9.47177C8.58014 9.49291 8.58769 9.51253 8.59675 9.53216Z" fill="#F2C45E"/>
<path d="M10.0913 10.5165C9.99924 10.592 9.90564 10.6674 9.79996 10.7278C9.90564 10.6674 9.99773 10.5905 10.0913 10.5165Z" fill="#F2C45E"/>
<path d="M9.56747 10.8214C9.54935 10.8109 9.53124 10.8018 9.51161 10.7927C9.53124 10.8033 9.54935 10.8124 9.56747 10.8214Z" fill="#F2C45E"/>
<path d="M14.0784 7.18309C13.8625 6.66979 13.71 6.12932 13.5304 5.59942C13.2783 5.57527 12.9824 5.37599 12.7861 5.60848C12.5899 5.83946 12.8465 6.0946 12.9084 6.33464C13.0201 6.7649 13.3205 7.1378 13.313 7.60882C13.2315 7.53937 13.15 7.46993 13.0699 7.40199C13.0699 7.40199 12.5868 6.92795 12.0539 6.56713C11.9528 6.49618 11.8501 6.43277 11.7459 6.37691C11.7384 6.37238 11.7324 6.36936 11.7248 6.36483C11.7157 6.36031 11.7052 6.35729 11.6961 6.35276C10.7586 5.88475 9.66861 6.02516 8.74469 6.76792L8.62995 6.86605L8.61334 6.95965C8.40803 7.73563 8.325 8.51614 8.52579 9.30872C8.53938 9.36005 8.55295 9.40988 8.57107 9.4612C8.57258 9.46573 8.57409 9.46875 8.5756 9.47328C8.58315 9.49291 8.5907 9.51253 8.59825 9.53367C8.61184 9.56537 8.62541 9.59858 8.64202 9.6318C8.87753 10.127 9.35309 10.6976 9.35309 10.6976C9.39386 10.7429 9.45423 10.7686 9.51311 10.7958C9.53274 10.8048 9.55085 10.8139 9.56897 10.8245C9.65351 10.8033 9.73051 10.7701 9.79996 10.7308C9.90563 10.6705 9.99924 10.5935 10.0913 10.5195C10.1532 10.4697 10.2151 10.4199 10.28 10.3761C10.3133 10.3549 10.3465 10.3338 10.3812 10.3157C10.4627 10.2719 10.5412 10.2281 10.585 10.1723C10.6424 10.1013 10.6409 10.0107 10.5186 9.87939C10.4838 9.84164 10.4491 9.80692 10.4159 9.77673L9.61729 8.87847C9.60521 8.86035 9.5886 8.84072 9.56897 8.8211C9.55689 8.80902 9.54331 8.79694 9.53123 8.78335C9.49198 8.74561 9.44971 8.70334 9.42253 8.65956C9.3863 8.60068 9.37423 8.53426 9.42707 8.4633C9.44971 8.43311 9.4799 8.40593 9.51613 8.38329C9.57501 8.34554 9.64749 8.31837 9.71542 8.30026C9.78336 8.28214 9.84675 8.27459 9.88902 8.2761C9.91469 8.27761 9.9313 8.28063 9.93734 8.28818C9.94187 8.29422 9.94488 8.29723 9.94941 8.30176L9.96602 8.45122L10.8386 9.30872L12.4057 7.96963C12.8359 7.91981 13.2662 7.86999 13.6965 7.81262C14.0724 7.7628 14.2611 7.61788 14.0784 7.18309ZM13.3372 7.65411C13.3326 7.64807 13.3281 7.64052 13.3251 7.63297C13.3387 7.64203 13.3507 7.65109 13.3643 7.66015C13.3553 7.65713 13.3417 7.66015 13.3372 7.65411Z" fill="#FECF64"/>
<path d="M27.8966 6.12027C27.8226 6.52033 27.4422 6.67432 27.2248 6.95814C26.9651 7.29782 26.5228 7.48653 26.402 7.94246C25.9687 7.91981 25.5143 8.02398 25.1293 7.72506C25.1671 7.68883 25.2033 7.65411 25.241 7.61788L25.2365 7.62693C25.6728 7.30235 25.9868 6.84039 26.4624 6.55959C26.9062 6.29539 27.3637 6.08856 27.8966 6.12027Z" fill="#EBB044"/>
<path d="M8.84585 12.1847C8.84283 12.2768 8.83227 12.3628 8.73263 12.4066C8.68583 12.2888 8.76282 12.2345 8.84585 12.1847Z" fill="#8D605F"/>
<path d="M30.3513 10.4999C30.3453 10.3927 30.374 10.3096 30.4932 10.2855C30.46 10.367 30.454 10.4667 30.3513 10.4999Z" fill="#F2C45E"/>
<path d="M8.95455 12.0699C8.91681 12.1122 8.87756 12.153 8.83981 12.1952C8.87756 12.153 8.9153 12.1107 8.95455 12.0699Z" fill="#8D605F"/>
<path d="M10.123 14.6364C10.1276 14.5504 10.1487 14.4734 10.2317 14.4281C10.2287 14.5141 10.2061 14.5911 10.123 14.6364Z" fill="#FECF64"/>
<path d="M29.4923 22.7223C29.4893 22.8129 29.4667 22.8944 29.3761 22.9397C29.3776 22.8461 29.4093 22.7706 29.4923 22.7223Z" fill="#F2C45E"/>
<path d="M29.3806 22.9352C29.3459 22.9729 29.3112 23.0122 29.2764 23.0499C29.3112 23.0122 29.3459 22.9729 29.3806 22.9352Z" fill="#F2C45E"/>
<path d="M25.241 7.61787C25.2033 7.65411 25.1671 7.68883 25.1293 7.72506C25.1656 7.68883 25.2033 7.6526 25.241 7.61787Z" fill="#F7F9FA"/>
<path d="M20.8705 12.1998C20.8297 12.2315 20.7905 12.2632 20.7497 12.2949C20.7905 12.2632 20.8297 12.2315 20.8705 12.1998Z" fill="#FECF64"/>
<path d="M16.9393 26.7683C16.6404 26.1478 16.6675 26.2157 17.291 25.9666C18.6045 25.4428 19.8786 25.3537 21.1905 25.9651C21.5997 26.1553 22.0798 26.175 22.5417 26.1568C22.5176 26.2535 22.4919 26.3486 22.4678 26.4452C22.3847 26.4965 22.3575 26.575 22.3636 26.6686L22.3666 26.6656C21.9046 27.1004 21.3793 27.431 20.7694 27.6197C20.3799 27.6635 19.9888 27.7073 19.5993 27.7526C19.4046 27.7465 19.2114 27.7345 19.0166 27.7345C18.1742 27.7299 17.4662 27.4416 16.9393 26.7683Z" fill="#FEEEAE"/>
<path d="M15.3375 25.9123C16.1301 25.9817 16.0093 26.7954 16.3913 27.2015C16.968 28.2689 17.9613 28.515 19.0604 28.5542C19.4574 28.595 19.8514 28.601 20.2349 28.4682C20.6606 28.4923 20.9913 28.1753 21.4019 28.1436C20.9837 28.8592 20.2696 29.0947 19.5314 29.1913C18.8354 29.2819 18.1229 29.2819 17.4284 29.0841C16.041 28.6916 15.3435 27.6409 15.3375 25.9123Z" fill="#8D605F"/>
<path d="M22.3621 26.6686C22.356 26.575 22.3832 26.4965 22.4662 26.4452C22.4677 26.5358 22.4647 26.6248 22.3621 26.6686Z" fill="#FECF64"/>
<path d="M21.3974 28.1541C21.4351 28.1073 21.4714 28.059 21.5091 28.0122C21.4729 28.059 21.4351 28.1058 21.3974 28.1541Z" fill="#8D605F"/>
<path d="M13.313 7.6224C13.3311 7.63448 13.3477 7.64807 13.3658 7.66014C13.3568 7.65863 13.3432 7.66014 13.3387 7.65411C13.3296 7.64354 13.3266 7.62844 13.3205 7.61485C13.319 7.61485 13.313 7.6224 13.313 7.6224Z" fill="#F7F9FA"/>
<path d="M18.849 23.3699C18.4671 23.1314 18.0715 22.9095 17.7047 22.6483C17.4526 22.4687 17.205 22.2543 17.2684 21.8799C17.3001 21.8482 17.3318 21.8165 17.3635 21.7848C17.4979 21.7455 17.6398 21.6565 17.7666 21.6731C18.8687 21.821 19.9738 21.593 21.0743 21.7108C21.3808 21.9025 21.2993 22.1486 21.1694 22.4007C21.103 22.4672 21.035 22.5336 20.9686 22.6C20.5369 22.8265 20.1474 23.1178 19.6899 23.3156C19.3804 23.45 19.1359 23.4545 18.849 23.3699Z" fill="#8D605F"/>
<path d="M16.3913 16.9221C16.4984 17.0489 16.6056 17.1757 16.7128 17.3025C16.7566 17.689 16.5785 17.8883 16.195 17.9109C16.0259 17.7766 15.8553 17.6422 15.6862 17.5078C15.4583 17.2648 15.2318 17.0202 15.0008 16.7787C14.794 16.5628 14.6929 16.3242 14.9405 16.0902C15.1639 15.8774 15.3903 15.971 15.5911 16.1627C15.8553 16.4178 16.124 16.67 16.3913 16.9221Z" fill="#8D605F"/>
<path d="M23.2226 15.9755C23.4566 15.9513 23.6453 16.0253 23.7253 16.2563C23.8038 16.4858 23.68 16.6564 23.5215 16.8119C23.2332 17.0927 22.9539 17.381 22.6655 17.6633C22.5145 17.8113 22.356 17.9562 22.1145 17.8581C21.8503 17.7524 21.811 17.5456 21.8563 17.2995C22.3107 16.8572 22.7667 16.4163 23.2226 15.9755Z" fill="#8D605F"/>
<path d="M28.9654 23.3216C28.1593 24.3513 27.2248 25.2616 26.3054 26.187C26.1529 26.3395 26.0095 26.4965 25.7649 26.4542C25.2727 25.8806 24.7429 25.3431 24.1646 24.857C24.1616 23.8621 24.6477 23.0575 25.1384 22.2377C25.9521 20.876 26.7236 19.487 27.1448 17.9396C26.6903 18.1917 26.6224 18.708 26.3733 19.096C25.6879 20.1664 25.0267 21.2488 24.1933 22.2785C23.9835 21.7848 23.7857 21.3168 23.5894 20.8518C23.3237 20.2509 22.8799 19.5187 22.8799 19.5187L22.8784 19.5172C22.8678 19.5082 22.8588 19.4976 22.8482 19.487C22.8422 19.481 22.8361 19.4735 22.8301 19.4659C22.8225 19.4568 22.8135 19.4463 22.8059 19.4357C22.8014 19.4297 22.7954 19.4221 22.7908 19.4161C22.7772 19.3965 22.7637 19.3768 22.7501 19.3527C22.6414 19.17 22.4451 19.2017 22.2821 19.3164C22.1069 19.4402 21.9847 19.6123 22.1326 19.8071C22.1432 19.8222 22.1537 19.8358 22.1628 19.8494C22.1628 19.8494 22.744 20.4261 22.7667 20.725C22.8452 20.9092 22.9207 21.1673 22.9795 21.5296C23.0626 21.7033 23.1335 21.8769 23.1939 22.0505C23.1954 22.0535 23.1969 22.058 23.1984 22.0611C23.2573 22.2301 23.3056 22.4007 23.3464 22.5713C23.3479 22.5774 23.3494 22.5849 23.3509 22.591C23.3705 22.674 23.3887 22.7585 23.4053 22.8416C23.4068 22.8476 23.4068 22.8521 23.4083 22.8582C23.4234 22.9382 23.437 23.0182 23.4491 23.0967C23.4506 23.1043 23.4521 23.1118 23.4521 23.1178C23.4642 23.1979 23.4747 23.2779 23.4838 23.3564C23.4853 23.373 23.4868 23.3881 23.4898 23.4047C23.4989 23.4832 23.5079 23.5632 23.514 23.6432C23.6076 24.6864 22.6927 25.4095 21.6706 25.2148C21.6057 25.2027 21.5423 25.1891 21.4789 25.174C21.4578 25.1695 21.4366 25.1635 21.4155 25.1589C21.3732 25.1484 21.331 25.1393 21.2887 25.1272C21.2645 25.1212 21.2389 25.1136 21.2147 25.1076C21.177 25.097 21.1377 25.0865 21.1 25.0759C21.0743 25.0684 21.0486 25.0608 21.023 25.0533C20.9852 25.0427 20.949 25.0306 20.9113 25.02C20.8856 25.0125 20.8614 25.0049 20.8358 24.9959C20.798 24.9838 20.7588 24.9717 20.721 24.9597C20.6969 24.9521 20.6742 24.9446 20.6501 24.937C20.6078 24.9234 20.5655 24.9083 20.5218 24.8947C20.5036 24.8887 20.484 24.8827 20.4659 24.8766C20.407 24.857 20.3481 24.8374 20.2893 24.8162C20.2515 24.8419 20.2289 24.8555 20.2289 24.8555C20.2289 24.8555 19.2763 24.6577 19.539 23.3684C19.2944 23.447 19.0845 23.4394 18.843 23.3684C18.8989 23.7172 18.7207 23.9467 18.5003 24.2033C17.8919 24.9129 17.1869 25.3356 16.2146 25.2888C16.1769 25.2873 16.1391 25.2827 16.1044 25.2782C16.0923 25.2767 16.0818 25.2737 16.0697 25.2722C16.0471 25.2676 16.0244 25.2646 16.0033 25.2586C15.9912 25.2556 15.9791 25.251 15.967 25.248C15.9489 25.242 15.9293 25.2374 15.9127 25.2314C15.9006 25.2269 15.8885 25.2223 15.8765 25.2163C15.8598 25.2103 15.8448 25.2027 15.8297 25.1952C15.8176 25.1891 15.807 25.1831 15.7964 25.1771C15.7829 25.1695 15.7678 25.1604 15.7542 25.1529C15.7436 25.1454 15.733 25.1393 15.724 25.1318C15.7104 25.1227 15.6983 25.1136 15.6862 25.1031C15.6772 25.0955 15.6666 25.088 15.6576 25.0789C15.6455 25.0684 15.6349 25.0578 15.6228 25.0472C15.6138 25.0382 15.6062 25.0306 15.5972 25.0216C15.5866 25.0095 15.576 24.9989 15.5655 24.9868C15.5579 24.9778 15.5504 24.9687 15.5428 24.9597C15.5323 24.9476 15.5232 24.934 15.5126 24.9204C15.5051 24.9113 15.499 24.9023 15.4915 24.8932C15.4809 24.8796 15.4719 24.8645 15.4628 24.8495C15.4568 24.8404 15.4507 24.8313 15.4447 24.8223C15.4341 24.8057 15.4251 24.7891 15.4145 24.7725C15.41 24.7649 15.4054 24.7574 15.4009 24.7483C15.3888 24.7287 15.3783 24.7075 15.3662 24.6864C15.3632 24.6819 15.3616 24.6773 15.3586 24.6728C15.3179 24.5973 15.2801 24.5203 15.2394 24.4449C14.7261 23.7127 15.2394 22.6287 15.2394 22.6287C15.2937 22.1516 15.4251 21.8014 15.5911 21.4632C15.8478 20.9379 16.1074 20.414 16.3792 19.8977C16.5075 19.6531 16.4879 19.4629 16.2493 19.3074C15.9882 19.1368 15.8161 19.2696 15.6772 19.484C15.2213 20.183 14.8801 20.9409 14.5842 21.7184C14.5298 21.8618 14.474 22.0037 14.4015 22.1924C14.012 21.7803 13.8414 21.2926 13.5727 20.8684C13.5621 20.8503 13.553 20.8337 13.547 20.8186L12.9371 19.629C12.9039 19.5686 12.8661 19.4976 12.8239 19.41C12.8118 19.3874 12.8012 19.3648 12.7907 19.3421C12.762 19.2983 12.5114 18.9043 12.3317 18.3246C12.3121 18.2717 12.2955 18.2204 12.2789 18.1721C12.2774 18.1676 12.2759 18.1646 12.2759 18.16C12.2457 18.0619 12.223 17.9698 12.2109 17.8838C12.2109 17.8822 12.2109 17.8807 12.2109 17.8792C12.2049 17.8354 12.2004 17.7932 12.1989 17.7509C12.0766 16.9855 12.1626 16.048 12.8843 15.1754L12.8858 15.1739C12.8873 15.1724 12.8873 15.1708 12.8888 15.1693C12.9386 15.0878 12.9884 15.0063 13.0382 14.9248C13.0443 14.9142 13.0503 14.9051 13.0564 14.8946C13.1016 14.8206 13.1484 14.7481 13.1937 14.6742C13.2028 14.6591 13.2134 14.644 13.2224 14.6304C13.2662 14.5624 13.3085 14.4945 13.3523 14.4266C13.3643 14.4085 13.3764 14.3888 13.3885 14.3707C13.4293 14.3073 13.4715 14.2439 13.5138 14.182C13.5289 14.1609 13.5425 14.1397 13.5576 14.1186C13.5983 14.0597 13.6376 14.0008 13.6784 13.942C13.695 13.9178 13.7116 13.8952 13.7282 13.871C13.7674 13.8151 13.8067 13.7608 13.8474 13.7049C13.8656 13.6793 13.8852 13.6536 13.9048 13.6279C13.9426 13.5766 13.9818 13.5238 14.021 13.474C14.0422 13.4468 14.0648 13.4181 14.086 13.3909C14.1237 13.3426 14.1615 13.2943 14.1992 13.2475C14.2234 13.2188 14.2475 13.1901 14.2701 13.1615C14.3079 13.1162 14.3441 13.0709 14.3819 13.0271C14.4075 12.9969 14.4347 12.9667 14.4604 12.938C14.4966 12.8957 14.5343 12.8535 14.5721 12.8127C14.6008 12.781 14.6295 12.7508 14.6581 12.7206C14.6944 12.6814 14.7306 12.6421 14.7684 12.6029C14.8001 12.5712 14.8318 12.5395 14.8635 12.5078C14.8997 12.4715 14.9344 12.4353 14.9706 12.4006C15.0054 12.3658 15.0431 12.3341 15.0778 12.2994C15.1125 12.2677 15.1458 12.2345 15.1805 12.2028C15.2197 12.1666 15.2605 12.1334 15.3013 12.0986C15.3345 12.0699 15.3662 12.0413 15.3994 12.0141C15.4462 11.9748 15.496 11.9371 15.5443 11.8978C15.5715 11.8752 15.5987 11.8526 15.6274 11.8314C15.7043 11.7725 15.7844 11.7137 15.8644 11.6563C15.4371 11.4555 15.0703 11.6004 14.7412 11.8722C13.2813 13.0769 12.214 14.567 11.5059 16.3227C11.2629 16.9251 11.2689 17.5003 11.4531 18.1253C11.8305 19.41 12.448 20.577 13.1001 21.7304C13.6753 22.7495 14.4377 23.6915 14.3804 24.9597C13.9365 25.3854 13.4851 25.8021 13.0518 26.2384C12.8661 26.4241 12.694 26.5161 12.457 26.3456C12.451 26.4784 12.3861 26.572 12.306 26.655C12.3861 26.572 12.451 26.4784 12.457 26.3456C12.3559 26.1629 12.2094 26.0255 12.0358 25.9138C11.5044 25.2042 10.973 24.4947 10.4431 23.7866C10.4099 23.536 10.2438 23.3518 10.114 23.1511C9.65654 22.3056 9.35914 21.3968 9.05268 20.491C9.01494 20.1377 8.97719 19.7829 8.93945 19.4297C8.97568 18.9209 8.93038 18.4137 9.00134 17.9019C9.15532 16.7862 9.61729 15.7792 10.0234 14.7512C9.76977 14.7647 9.63843 14.9444 9.49501 15.1074C9.63843 14.9444 9.76977 14.7647 10.0234 14.7512C10.0536 14.7119 10.0838 14.6742 10.114 14.6349C10.1185 14.5489 10.1397 14.4719 10.2227 14.4266C10.6122 13.8438 11.0017 13.2581 11.3942 12.6768C11.5089 12.5078 11.5799 12.3568 11.2991 12.2889C11.0379 12.1107 10.7843 11.9235 10.514 11.759C10.2529 11.6004 10.2197 11.4646 10.4627 11.2426C10.9232 10.826 11.4516 10.5135 11.9769 10.1934C12.1204 10.1058 12.2864 10.0379 12.0887 9.85373C11.7309 9.51707 11.5029 9.05812 11.0802 8.78336C10.8205 8.93131 10.7058 9.08378 10.8281 9.30571L9.95547 8.44821L9.93886 8.29875C9.93433 8.29422 9.9313 8.28969 9.92677 8.28516C9.92074 8.27761 9.90414 8.27308 9.87847 8.27308C9.8362 8.27157 9.77279 8.27912 9.70486 8.29724C9.63692 8.31536 9.56446 8.34253 9.50558 8.38027C9.46935 8.40292 9.43915 8.43009 9.4165 8.46029C9.36366 8.53275 9.37575 8.59767 9.41198 8.65655C9.43916 8.70184 9.48143 8.7426 9.52068 8.78034C9.53426 8.79242 9.54634 8.806 9.55842 8.81808C9.57805 8.83771 9.59313 8.85582 9.60672 8.87545L10.4054 9.77371C10.4401 9.80391 10.4733 9.83863 10.508 9.87637C10.6303 10.0077 10.6303 10.0983 10.5744 10.1693C10.5307 10.2251 10.4522 10.2689 10.3706 10.3127C10.3359 10.3308 10.3027 10.3519 10.2695 10.3731C10.2046 10.4168 10.1427 10.4667 10.0808 10.5165C9.98867 10.592 9.89508 10.6674 9.78941 10.7278C9.71845 10.7686 9.64296 10.8018 9.55842 10.8214C9.5403 10.8109 9.52219 10.8018 9.50256 10.7928C9.44368 10.7656 9.38329 10.7399 9.34253 10.6946C9.34253 10.6946 8.86698 10.1255 8.63147 9.62878C8.61486 9.59557 8.60127 9.56236 8.58768 9.53065C8.58013 9.51103 8.57258 9.4914 8.56503 9.47178C8.54541 9.41743 8.52881 9.36308 8.51522 9.30873C8.31594 8.51463 8.39897 7.73564 8.60278 6.95966C8.0306 7.34614 7.84191 7.93642 7.76944 8.57502C7.6215 9.90807 8.20574 10.9226 9.181 11.762C9.23988 11.771 9.30025 11.7786 9.35913 11.7876C9.58105 12.0745 9.8996 12.233 10.2076 12.3976C10.4461 12.5244 10.5654 12.6708 10.4159 12.9365C9.78335 13.7593 9.19761 14.6108 8.84736 15.6011C8.19216 17.0263 7.92645 18.5073 8.20424 20.0653C8.19216 20.3687 8.27216 20.651 8.40351 20.9212C8.55749 21.889 8.96209 22.7555 9.4784 23.5783C9.50105 23.5692 9.52219 23.5587 9.54333 23.5451C9.52219 23.5572 9.50105 23.5692 9.4784 23.5783C9.6022 23.8017 9.6656 24.0614 9.88752 24.2229C10.3072 25.0185 10.8311 25.7356 11.4802 26.3591C11.5754 26.6445 11.8109 26.809 12.0222 26.9932C12.1505 27.1366 12.2849 27.2755 12.4072 27.4235C12.5838 27.6378 12.7363 27.6197 12.925 27.4235C13.544 26.7773 14.1735 26.1417 14.8 25.5016C14.9752 25.639 15.1518 25.7749 15.3269 25.9123C16.1195 25.9817 15.9987 26.7954 16.3807 27.2015C16.9574 28.2689 17.9508 28.515 19.0498 28.5542C19.4469 28.595 19.8409 28.601 20.2244 28.4682C20.6501 28.4923 20.9807 28.1738 21.3913 28.1436L21.3883 28.1542C21.4261 28.1074 21.4623 28.059 21.5 28.0122C21.8593 27.6107 22.3349 27.2831 22.356 26.6656C21.8941 27.1004 21.3687 27.431 20.7588 27.6197C20.7558 27.6922 20.7346 27.7541 20.7029 27.8099C20.7346 27.7541 20.7558 27.6922 20.7588 27.6197C20.3693 27.6635 19.9783 27.7073 19.5888 27.7511C19.5858 27.7737 19.5812 27.7949 19.5767 27.8145C19.5827 27.7933 19.5873 27.7722 19.5888 27.7511C19.394 27.745 19.2008 27.733 19.006 27.733C18.1651 27.7299 17.4586 27.4416 16.9302 26.7683C16.6313 26.1478 16.6585 26.2157 17.282 25.9666C18.5954 25.4428 19.8696 25.3537 21.1815 25.9651C21.5906 26.1553 22.0707 26.175 22.5327 26.1568C23.0369 26.1297 23.3404 25.7341 23.7314 25.5016C23.7344 25.4911 23.7374 25.4805 23.7404 25.4699C23.7374 25.4805 23.7344 25.4911 23.7314 25.5016C24.1918 26.0315 24.687 26.5282 25.2184 26.9872C25.2727 27.0551 25.3226 27.1291 25.383 27.1925C25.8615 27.6907 25.8555 27.6831 26.3461 27.2031C27.3108 26.2595 28.1019 25.1801 28.8069 24.0387C28.9956 23.7338 29.2825 23.456 29.2689 23.0484C29.1738 23.1375 29.05 23.2145 28.9654 23.3216ZM10.899 9.40082C10.8945 9.39629 10.8915 9.39025 10.8884 9.38572C10.8915 9.39025 10.8945 9.39629 10.899 9.40082Z" fill="#EBB044"/>
<path d="M25.0191 13.1011L25.3377 13.5041C25.2833 13.329 25.1565 13.2113 25.0191 13.1011Z" fill="#F2C45E"/>
<path d="M21.103 25.0789C21.1407 25.0895 21.1785 25.1001 21.2177 25.1106C21.1785 25.1001 21.1407 25.0895 21.103 25.0789Z" fill="#FECF64"/>
<path d="M21.2917 25.1302C21.334 25.1408 21.3762 25.1514 21.4185 25.162C21.3747 25.1514 21.3325 25.1408 21.2917 25.1302Z" fill="#FECF64"/>
<path d="M20.9143 25.0231C20.952 25.0351 20.9882 25.0457 21.026 25.0563C20.9898 25.0457 20.952 25.0336 20.9143 25.0231Z" fill="#FECF64"/>
<path d="M15.6938 25.1046C15.7059 25.1152 15.7195 25.1242 15.7315 25.1333C15.7179 25.1227 15.7059 25.1136 15.6938 25.1046Z" fill="#FECF64"/>
<path d="M15.7617 25.1544C15.7753 25.1635 15.7889 25.171 15.804 25.1786C15.7889 25.171 15.7753 25.162 15.7617 25.1544Z" fill="#FECF64"/>
<path d="M15.8372 25.1967C15.8523 25.2042 15.8689 25.2118 15.884 25.2178C15.8689 25.2118 15.8523 25.2042 15.8372 25.1967Z" fill="#FECF64"/>
<path d="M20.5263 24.8962C20.5686 24.9098 20.6108 24.9249 20.6546 24.9385C20.6123 24.9249 20.5701 24.9098 20.5263 24.8962Z" fill="#FECF64"/>
<path d="M16.112 25.2797C16.1467 25.2842 16.1829 25.2888 16.2222 25.2903C16.1829 25.2888 16.1467 25.2857 16.112 25.2797Z" fill="#FECF64"/>
<path d="M15.3752 24.6894C15.3858 24.7106 15.3979 24.7302 15.41 24.7513C15.3979 24.7302 15.3858 24.709 15.3752 24.6894Z" fill="#FECF64"/>
<path d="M15.4704 24.851C15.4794 24.866 15.49 24.8796 15.499 24.8947C15.49 24.8796 15.4809 24.8645 15.4704 24.851Z" fill="#FECF64"/>
<path d="M16.0108 25.2601C16.032 25.2646 16.0546 25.2691 16.0772 25.2737C16.0546 25.2691 16.032 25.2661 16.0108 25.2601Z" fill="#FECF64"/>
<path d="M15.9202 25.2329C15.9384 25.2389 15.9565 25.245 15.9746 25.2495C15.9565 25.245 15.9368 25.2389 15.9202 25.2329Z" fill="#FECF64"/>
<path d="M20.7256 24.9627C20.7633 24.9748 20.8011 24.9868 20.8403 24.9989C20.8011 24.9868 20.7633 24.9748 20.7256 24.9627Z" fill="#FECF64"/>
<path d="M15.573 24.9868C15.5836 24.9989 15.5941 25.011 15.6047 25.0216C15.5941 25.011 15.5836 24.9989 15.573 24.9868Z" fill="#FECF64"/>
<path d="M15.5202 24.9204C15.5307 24.934 15.5398 24.9461 15.5504 24.9596C15.5398 24.9476 15.5307 24.934 15.5202 24.9204Z" fill="#FECF64"/>
<path d="M15.4236 24.774C15.4326 24.7906 15.4432 24.8072 15.4537 24.8238C15.4432 24.8072 15.4326 24.7906 15.4236 24.774Z" fill="#FECF64"/>
<path d="M15.407 12.0141C15.4538 11.9748 15.5036 11.9371 15.5519 11.8978C15.5036 11.9371 15.4553 11.9748 15.407 12.0141Z" fill="#FECF64"/>
<path d="M14.2037 13.2505C14.2279 13.2218 14.252 13.1931 14.2747 13.1645C14.252 13.1931 14.2279 13.2218 14.2037 13.2505Z" fill="#FECF64"/>
<path d="M13.3568 14.4296C13.3689 14.4115 13.3809 14.3918 13.393 14.3737C13.3809 14.3933 13.3689 14.4115 13.3568 14.4296Z" fill="#FECF64"/>
<path d="M14.0256 13.477C14.0467 13.4498 14.0694 13.4211 14.0905 13.3939C14.0694 13.4211 14.0467 13.4498 14.0256 13.477Z" fill="#FECF64"/>
<path d="M14.7729 12.6029C14.8046 12.5712 14.8363 12.5395 14.868 12.5078C14.8378 12.5395 14.8046 12.5712 14.7729 12.6029Z" fill="#FECF64"/>
<path d="M21.4804 25.177C21.5438 25.1921 21.6072 25.2057 21.6721 25.2178C21.6072 25.2042 21.5438 25.1906 21.4804 25.177Z" fill="#FECF64"/>
<path d="M13.5183 14.185C13.5334 14.1639 13.547 14.1427 13.5621 14.1216C13.547 14.1427 13.5334 14.1639 13.5183 14.185Z" fill="#FECF64"/>
<path d="M13.6829 13.945C13.6995 13.9208 13.7161 13.8982 13.7327 13.874C13.7176 13.8982 13.6995 13.9208 13.6829 13.945Z" fill="#FECF64"/>
<path d="M13.852 13.708C13.8701 13.6823 13.8897 13.6566 13.9093 13.631C13.8912 13.6566 13.8716 13.6823 13.852 13.708Z" fill="#FECF64"/>
<path d="M14.3879 13.0286C14.4136 12.9984 14.4408 12.9682 14.4664 12.9395C14.4392 12.9697 14.4136 12.9984 14.3879 13.0286Z" fill="#FECF64"/>
<path d="M14.9767 12.4006C15.0114 12.3658 15.0491 12.3341 15.0839 12.2994C15.0491 12.3341 15.0114 12.3658 14.9767 12.4006Z" fill="#FECF64"/>
<path d="M15.8734 11.6578C15.7919 11.7152 15.7134 11.7725 15.6364 11.8329C15.7134 11.7725 15.7919 11.7152 15.8734 11.6578Z" fill="#FECF64"/>
<path d="M15.188 12.2043C15.2273 12.1681 15.2681 12.1349 15.3088 12.1001C15.2681 12.1333 15.2273 12.1681 15.188 12.2043Z" fill="#FECF64"/>
<path d="M12.3378 18.3261C12.5174 18.9058 12.768 19.2998 12.7967 19.3436C12.768 19.2878 12.7393 19.2304 12.7122 19.1745C12.5491 18.8348 12.4238 18.5601 12.3378 18.3261Z" fill="#FECF64"/>
<path d="M14.5766 12.8127C14.6053 12.781 14.634 12.7508 14.6627 12.7206C14.634 12.7523 14.6053 12.7825 14.5766 12.8127Z" fill="#FECF64"/>
<path d="M22.7486 19.3527C22.7621 19.3753 22.7757 19.3965 22.7893 19.4161C22.7772 19.3965 22.7636 19.3768 22.7486 19.3527Z" fill="#FECF64"/>
<path d="M23.1984 22.0626C23.1969 22.0595 23.1954 22.055 23.1939 22.052C23.1954 22.055 23.1969 22.0595 23.1984 22.0626Z" fill="#FECF64"/>
<path d="M13.1983 14.6772C13.2073 14.6621 13.2179 14.647 13.2269 14.6334C13.2164 14.6485 13.2073 14.6621 13.1983 14.6772Z" fill="#FECF64"/>
<path d="M22.8044 19.4357C22.812 19.4463 22.821 19.4568 22.8286 19.4659C22.821 19.4568 22.8135 19.4478 22.8044 19.4357Z" fill="#FECF64"/>
<path d="M23.4898 23.4077C23.4883 23.3911 23.4868 23.376 23.4838 23.3594C23.4868 23.376 23.4883 23.3926 23.4898 23.4077Z" fill="#FECF64"/>
<path d="M23.4083 22.8612C23.4068 22.8551 23.4068 22.8506 23.4053 22.8446C23.4053 22.8491 23.4068 22.8551 23.4083 22.8612Z" fill="#FECF64"/>
<path d="M23.4521 23.1209C23.4506 23.1133 23.4491 23.1058 23.4491 23.0997C23.4506 23.1073 23.4506 23.1133 23.4521 23.1209Z" fill="#FECF64"/>
<path d="M23.3509 22.5925C23.3494 22.5864 23.3479 22.5789 23.3464 22.5728C23.3479 22.5804 23.3494 22.5864 23.3509 22.5925Z" fill="#FECF64"/>
<path d="M12.2849 18.1736C12.2834 18.1691 12.2819 18.1661 12.2819 18.1615C12.2819 18.1645 12.2834 18.1691 12.2849 18.1736Z" fill="#FECF64"/>
<path d="M22.8769 19.5172C22.8663 19.5082 22.8572 19.4976 22.8467 19.487C22.8572 19.4991 22.8678 19.5082 22.8769 19.5172Z" fill="#FECF64"/>
<path d="M13.0413 14.9278C13.0473 14.9172 13.0533 14.9082 13.0594 14.8976C13.0548 14.9082 13.0473 14.9172 13.0413 14.9278Z" fill="#FECF64"/>
<path d="M15.6651 25.0804C15.653 25.0699 15.6424 25.0593 15.6304 25.0487C15.6424 25.0593 15.653 25.0699 15.6651 25.0804Z" fill="#FECF64"/>
<path d="M19.6567 15.2584L19.708 12.9395C19.7035 12.8565 19.7005 12.775 19.696 12.695C19.4182 12.6934 19.1404 12.6919 18.8611 12.6904C18.8566 12.9743 18.8234 13.2611 18.8551 13.5404C18.8732 13.7034 18.8687 13.8529 18.84 13.9918C18.843 14.5156 18.8566 15.038 18.8264 15.5619C18.8611 15.6449 18.8475 15.7113 18.846 15.7717C18.843 16.0721 18.9336 16.3273 19.2687 16.3288C19.6401 16.3303 19.7518 16.0404 19.696 15.734C19.6643 15.5664 19.6537 15.4094 19.6567 15.2584Z" fill="#EBB044"/>
<path d="M29.8078 10.7792C29.5603 10.9498 29.3746 10.9452 29.1496 10.7414L27.8679 9.7254C27.8302 9.70578 27.7939 9.67709 27.7607 9.63935C27.7275 9.60312 27.6958 9.55783 27.6671 9.50499C27.4271 9.64841 27.0074 9.88845 27.3138 10.1089C28.0219 10.6161 28.6363 11.2472 29.3927 11.685C29.7746 11.3408 30.1883 11.0237 30.3634 10.5104C30.1173 10.4697 29.9739 10.6644 29.8078 10.7792Z" fill="#EBB044"/>
<path d="M30.6956 8.35007C30.6638 8.02549 30.605 7.71298 30.3589 7.47143C29.8365 6.47655 28.9821 6.08705 27.8951 6.12026C27.8211 6.52033 27.4407 6.67432 27.2233 6.95814C26.9636 7.29782 26.5213 7.48653 26.4005 7.94245C26.9455 8.1523 27.5343 8.12966 28.0989 8.23533C28.5231 8.31384 28.4416 8.48594 28.2876 8.73202C28.111 9.01433 27.7683 9.1653 27.6656 9.508C27.723 9.61519 27.7924 9.68916 27.8664 9.72841L29.1481 10.7444C29.3731 10.9467 29.5588 10.9528 29.8063 10.7822C29.9709 10.669 30.1158 10.4742 30.3619 10.515L30.3483 10.5029C30.3423 10.3957 30.371 10.3127 30.4902 10.2885C30.7831 9.6635 30.8586 9.01886 30.6956 8.35007ZM27.9223 9.74804C27.9177 9.74653 27.9147 9.74653 27.9102 9.74502C27.9147 9.74502 27.9192 9.74653 27.9223 9.74804ZM27.957 9.75559C27.9615 9.75559 27.966 9.7571 27.9706 9.7571C27.966 9.7571 27.9615 9.75559 27.957 9.75559ZM28.0038 9.75861C28.0083 9.75861 28.0113 9.75861 28.0159 9.75861C28.0128 9.75861 28.0083 9.75861 28.0038 9.75861ZM28.123 9.72841C28.1185 9.72992 28.114 9.73294 28.1095 9.73445C28.114 9.73294 28.1185 9.73143 28.123 9.72841ZM28.1562 9.71181C28.1623 9.70879 28.1668 9.70577 28.1729 9.70124C28.1668 9.70577 28.1623 9.70879 28.1562 9.71181ZM28.2061 9.67859C28.2106 9.67558 28.2151 9.67105 28.2212 9.66803C28.2151 9.67105 28.2106 9.67407 28.2061 9.67859ZM28.8115 10.3881C28.8281 10.4183 28.8507 10.45 28.8809 10.4833C28.8507 10.45 28.8281 10.4183 28.8115 10.3881ZM29.1255 9.84919C29.0092 9.9594 28.9232 10.0439 28.8673 10.1149C28.8251 10.1677 28.7994 10.2145 28.7903 10.2568C28.7843 10.2855 28.7858 10.3142 28.7948 10.3429C28.7858 10.3142 28.7843 10.2855 28.7903 10.2568C28.7994 10.213 28.8251 10.1677 28.8673 10.1149C28.9232 10.0454 29.0092 9.96091 29.1255 9.84919C29.1904 9.78729 29.2553 9.72238 29.3187 9.65897C29.2553 9.72389 29.1904 9.78729 29.1255 9.84919Z" fill="#FECF64"/>
<path d="M8.63902 9.63028C8.62392 9.59707 8.60882 9.56385 8.59523 9.53215C8.60882 9.56385 8.62392 9.59707 8.63902 9.63028Z" fill="#FECF64"/>
<path d="M8.5741 9.47327C8.57259 9.46874 8.57107 9.46573 8.56956 9.4612C8.57107 9.46422 8.57259 9.46874 8.5741 9.47327Z" fill="#FECF64"/>
<path d="M8.59675 9.53216C8.5892 9.51253 8.58165 9.49291 8.5741 9.47328C8.58014 9.49291 8.58769 9.51253 8.59675 9.53216Z" fill="#FECF64"/>
<path d="M8.56957 9.4612C8.55146 9.41138 8.53788 9.36005 8.52429 9.30872C8.53335 9.35703 8.54995 9.40836 8.56957 9.4612Z" fill="#FECF64"/>
<path d="M17.1355 3.02542C17.5257 3.02542 17.8421 2.70909 17.8421 2.31888C17.8421 1.92868 17.5257 1.61235 17.1355 1.61235C16.7453 1.61235 16.429 1.92868 16.429 2.31888C16.429 2.70909 16.7453 3.02542 17.1355 3.02542Z" fill="#F2A5B4"/>
<path d="M19.7563 3.12505C19.9231 3.12505 20.0583 2.98987 20.0583 2.82312C20.0583 2.65636 19.9231 2.52118 19.7563 2.52118C19.5896 2.52118 19.4544 2.65636 19.4544 2.82312C19.4544 2.98987 19.5896 3.12505 19.7563 3.12505Z" fill="#F2A5B4"/>
<path d="M10.6816 33.278C11.0718 33.278 11.3882 32.9617 11.3882 32.5715C11.3882 32.1813 11.0718 31.865 10.6816 31.865C10.2914 31.865 9.9751 32.1813 9.9751 32.5715C9.9751 32.9617 10.2914 33.278 10.6816 33.278Z" fill="#F2A5B4"/>
<path d="M33.5715 18.3533C33.9617 18.3533 34.278 18.0369 34.278 17.6467C34.278 17.2565 33.9617 16.9402 33.5715 16.9402C33.1813 16.9402 32.865 17.2565 32.865 17.6467C32.865 18.0369 33.1813 18.3533 33.5715 18.3533Z" fill="#F2A5B4"/>
<path d="M6.24464 12.4036C6.46726 12.4036 6.64774 12.2231 6.64774 12.0005C6.64774 11.7779 6.46726 11.5974 6.24464 11.5974C6.02202 11.5974 5.84157 11.7779 5.84157 12.0005C5.84157 12.2231 6.02202 12.4036 6.24464 12.4036Z" fill="#F2A5B4"/>
<path d="M9.37121 30.7553C9.53797 30.7553 9.67315 30.6202 9.67315 30.4534C9.67315 30.2867 9.53797 30.1515 9.37121 30.1515C9.20446 30.1515 9.06927 30.2867 9.06927 30.4534C9.06927 30.6202 9.20446 30.7553 9.37121 30.7553Z" fill="#F2A5B4"/>
</g>
<defs>
<filter id="filter0_d" x="0" y="0" width="38" height="38" filterUnits="userSpaceOnUse" color-interpolation-filters="sRGB">
<feFlood flood-opacity="0" result="BackgroundImageFix"/>
<feColorMatrix in="SourceAlpha" type="matrix" values="0 0 0 0 0 0 0 0 0 0 0 0 0 0 0 0 0 0 127 0"/>
<feOffset dy="1"/>
<feGaussianBlur stdDeviation="0.5"/>
<feColorMatrix type="matrix" values="0 0 0 0 0 0 0 0 0 0 0 0 0 0 0 0 0 0 0.25 0"/>
<feBlend mode="normal" in2="BackgroundImageFix" result="effect1_dropShadow"/>
<feBlend mode="normal" in="SourceGraphic" in2="effect1_dropShadow" result="shape"/>
</filter>
</defs>
</svg>
