<svg width="158" height="154" viewBox="0 0 158 154" fill="none" xmlns="http://www.w3.org/2000/svg">
<path d="M126.646 113.746C127.241 113.877 127.835 113.948 128.44 113.948C129.851 113.948 131.253 113.555 132.492 112.799C134.246 111.71 135.476 109.996 135.96 107.99C136.938 103.837 134.357 99.6541 130.204 98.6764C128.188 98.2026 126.112 98.5352 124.348 99.6239C122.594 100.713 121.364 102.416 120.89 104.432C120.416 106.438 120.749 108.514 121.838 110.279C122.926 112.043 124.63 113.272 126.646 113.746ZM125.91 105.622C125.91 105.611 125.91 105.611 125.91 105.611C126.071 104.946 126.475 104.372 127.069 104.009C127.483 103.757 127.946 103.626 128.42 103.626C128.612 103.626 128.813 103.646 129.015 103.696C130.396 104.019 131.263 105.42 130.93 106.801C130.779 107.476 130.365 108.041 129.781 108.404C129.196 108.766 128.501 108.877 127.825 108.716C127.16 108.565 126.585 108.152 126.223 107.567C125.86 106.982 125.749 106.287 125.91 105.622Z" fill="white"/>
<path d="M152.562 149.974L156.332 134.007C156.483 133.342 156.372 132.646 156.009 132.061L142.774 110.641C145.314 101.025 144.165 90.9146 139.498 82.1248L136.988 77.3771C136.645 76.7118 136.02 76.2381 135.295 76.0667C134.569 75.8953 133.813 76.0465 133.208 76.48L128.833 79.6048C121.031 85.169 115.457 95.6523 113.169 104.019L92.1822 116.992C91.5976 117.355 91.1843 117.929 91.023 118.594L87.1724 134.924C85.3479 134.864 83.4831 134.823 81.578 134.803V72.9318L81.9308 67.5994C81.961 67.1156 81.8098 66.6519 81.578 66.2286V43.5988L141.927 18.4591C142.966 18.0257 143.611 16.9572 143.5 15.8282C143.389 14.7093 142.562 13.782 141.464 13.5501L81.578 1.0206V0.587158H76.417V65.2407L49.4629 68.9905C50.1382 67.3575 50.4306 65.5532 50.1685 63.6783C49.7955 60.9466 48.3742 58.5274 46.1768 56.8642C43.9692 55.211 41.2577 54.4954 38.526 54.8784C35.7943 55.2614 33.3751 56.6827 31.7119 58.8802C30.0487 61.0776 29.3431 63.7993 29.7261 66.531C29.9076 67.8313 30.341 69.051 30.9458 70.1396L5.10051 60.12C4.30419 59.8075 3.40706 59.9184 2.70146 60.3922C2.00593 60.876 1.58257 61.6724 1.58257 62.5191V70.0892C1.58257 71.0065 2.07649 71.8633 2.8829 72.3169L27.2767 86.3786L29.2221 100.299L29.7866 140.609C9.88854 145.891 0.604804 152.917 0 153.381L3.16514 157.453C3.39698 157.282 26.2989 139.934 78.9975 139.934C131.474 139.934 154.608 157.282 154.83 157.453L157.995 153.381C157.743 153.189 155.969 151.849 152.562 149.974ZM81.8098 6.34288L132.25 16.8967L81.6082 37.9943L81.8098 6.34288ZM149.104 142.121L145.526 132.505C145.334 132.011 145.012 131.588 144.578 131.285L137.099 126.094C138.44 123.604 139.76 120.127 140.758 117.193L151.06 133.866L149.104 142.121ZM131.837 83.8082L133.803 82.397L134.942 84.544C139.044 92.2855 140.032 101.206 137.714 109.653C137.704 109.684 137.633 109.936 137.633 109.966C137.583 110.107 137.542 110.248 137.522 110.339V110.349C136.484 113.958 134.518 119.794 132.815 123.151L132.402 123.05C132.301 123.03 132.2 123.05 132.099 123.04L129.65 122.455C128.833 122.274 127.987 122.475 127.362 123.02C126.737 123.564 126.414 124.38 126.485 125.207L126.898 129.763L118.794 127.848L121.203 123.957C121.636 123.251 121.707 122.375 121.394 121.608C121.072 120.842 120.406 120.278 119.6 120.086L116.445 119.34C116.445 119.159 116.445 118.967 116.455 118.776C116.475 115.016 117.181 109.936 117.816 106.569L117.876 106.307C119.731 98.7267 124.771 88.8381 131.837 83.8082ZM95.8009 120.822L111.919 110.863C111.899 110.994 111.889 111.135 111.869 111.266C111.818 111.669 111.768 112.063 111.727 112.466C111.697 112.728 111.667 112.98 111.637 113.242C111.596 113.615 111.566 113.988 111.526 114.361C111.506 114.623 111.486 114.885 111.465 115.147C111.435 115.54 111.405 115.913 111.385 116.296C111.375 116.518 111.354 116.75 111.344 116.972C111.314 117.566 111.294 118.141 111.294 118.695C111.284 119.199 111.284 119.693 111.304 120.187L102.756 121.407C102.232 121.487 101.748 121.719 101.365 122.082L93.8555 129.078L95.8009 120.822ZM104.288 126.407L114.53 124.935L112.524 128.181C112.09 128.886 112.02 129.763 112.332 130.529C112.655 131.295 113.32 131.86 114.127 132.051L129.196 135.61C129.388 135.66 129.589 135.68 129.791 135.68C130.406 135.68 131.001 135.458 131.474 135.045C132.099 134.501 132.432 133.694 132.361 132.868L131.998 128.836L140.97 135.065L145.203 146.395C135.033 142.021 118.542 136.93 94.7425 135.307L104.288 126.407ZM70.3488 134.934L59.8857 96.0252L58.0713 82.9514L76.417 76.4901V134.803C74.3506 134.823 72.3245 134.864 70.3488 134.934ZM55.4504 99.4222L64.9055 134.581L64.2705 134.672L48.8379 112.204C48.2835 111.397 47.3158 110.964 46.3582 111.115C45.3905 111.246 44.5741 111.911 44.2616 112.839L35.5524 138.664L34.9173 138.755L34.4133 102.356L55.4504 99.4222ZM45.4006 86.9028L43.3644 89.6042L40.6529 87.558L40.9855 75.3812L41.7617 75.2704L45.4006 86.9028ZM35.8346 61.9949C36.6612 60.8962 37.8708 60.1805 39.2417 59.989C39.4836 59.9588 39.7255 59.9386 39.9574 59.9386C41.0763 59.9386 42.1548 60.3015 43.062 60.9869C44.1608 61.8135 44.8664 63.0231 45.0579 64.394C45.451 67.2063 43.4854 69.8171 40.663 70.2102V70.2203C37.8406 70.6033 35.2298 68.6377 34.8367 65.8153C34.6452 64.4545 34.998 63.0937 35.8346 61.9949ZM6.74356 68.5974V66.289L32.4175 76.2481C32.8207 76.4094 33.2642 76.4598 33.7077 76.3993L35.8044 76.107L35.4617 88.7474C35.4415 89.5841 35.8246 90.3804 36.4898 90.8743L42.306 95.2793C42.7697 95.6321 43.314 95.7934 43.8584 95.7934C44.6446 95.7934 45.4107 95.4406 45.9248 94.7753L50.3197 88.949C50.8237 88.2837 50.9749 87.4169 50.7229 86.6205L46.9429 74.5547L76.417 70.4521V71.0166L54.3618 78.7782C53.2026 79.1915 52.497 80.3608 52.6683 81.5704L54.4424 94.3519L34.0001 97.1945L32.2159 84.4231C32.105 83.6267 31.6413 82.9312 30.9458 82.5381L6.74356 68.5974ZM47.5074 119.381L58.6962 135.67C52.3055 136.245 46.4893 137.061 41.2073 138.049L47.5074 119.381Z" fill="white"/>
</svg>
