<svg width="33" height="48" viewBox="0 0 33 48" fill="none" xmlns="http://www.w3.org/2000/svg">
<path d="M6.88575e-05 23.9293C-0.00297332 23.4578 0.0978606 22.9903 0.296782 22.5538C0.495705 22.1173 0.788804 21.7202 1.15927 21.3854L17.1483 7.05371C17.521 6.71964 17.9635 6.45465 18.4504 6.27385C18.9374 6.09306 19.4593 6 19.9864 6C20.5135 6 21.0354 6.09306 21.5223 6.27385C22.0093 6.45465 22.4517 6.71964 22.8244 7.05371C23.1971 7.38778 23.4928 7.78437 23.6945 8.22085C23.8962 8.65733 24 9.12515 24 9.59759C24 10.07 23.8962 10.5379 23.6945 10.9743C23.4928 11.4108 23.1971 11.8074 22.8244 12.1415L9.5935 23.9293L22.3048 35.753C22.7137 36.0826 23.0423 36.4843 23.2701 36.9329C23.4979 37.3815 23.6199 37.8675 23.6286 38.3603C23.6373 38.8532 23.5325 39.3423 23.3207 39.7972C23.1089 40.2521 22.7946 40.6629 22.3976 41.0039C22.0006 41.3449 21.5293 41.6089 21.0133 41.7792C20.4973 41.9496 19.9476 42.0227 19.3986 41.9939C18.8496 41.9651 18.3132 41.8351 17.8228 41.6121C17.3325 41.389 16.8987 41.0776 16.5487 40.6974L1.1193 26.3657C0.414522 25.7105 0.0143624 24.8394 6.88575e-05 23.9293Z" fill="#7A63FF"/>
</svg>
