<svg width="180" height="161" viewBox="0 0 180 161" fill="none" xmlns="http://www.w3.org/2000/svg">
<path d="M140.625 135C140.625 138.102 138.102 140.625 135 140.625C131.898 140.625 129.375 138.102 129.375 135V132.188H118.125V126.205C122.974 124.957 126.562 120.544 126.562 115.312C126.562 110.081 122.974 105.668 118.125 104.42V92.8125H84.375C78.1706 92.8125 73.125 97.8581 73.125 104.062V132.188V137.812V165.938C73.125 172.142 78.1706 177.188 84.375 177.188H112.5H118.125H146.25C152.454 177.188 157.5 172.142 157.5 165.938V132.188H140.625V135ZM78.75 104.062C78.75 100.96 81.2728 98.4375 84.375 98.4375H112.5V109.688H115.312C118.415 109.688 120.938 112.21 120.938 115.312C120.938 118.415 118.415 120.938 115.312 120.938H112.5V132.188H106.518C105.269 127.339 100.856 123.75 95.625 123.75C90.3937 123.75 85.9809 127.339 84.7322 132.188H78.75V104.062ZM84.375 171.562C81.2728 171.562 78.75 169.04 78.75 165.938V137.812H90V135C90 131.898 92.5228 129.375 95.625 129.375C98.7272 129.375 101.25 131.898 101.25 135V137.812H112.5V143.795C107.651 145.043 104.062 149.456 104.062 154.688C104.062 159.919 107.651 164.332 112.5 165.58V171.562H84.375ZM145.893 137.812H151.875V165.938C151.875 169.04 149.352 171.562 146.25 171.562H118.125V160.312H115.312C112.21 160.312 109.688 157.79 109.688 154.688C109.688 151.585 112.21 149.062 115.312 149.062H118.125V137.812H124.107C125.356 142.661 129.769 146.25 135 146.25C140.231 146.25 144.644 142.661 145.893 137.812Z" fill="white"/>
<path d="M120.938 45C120.938 41.8978 123.46 39.375 126.562 39.375C129.665 39.375 132.188 41.8978 132.188 45V47.8125H149.062V36.5625C155.267 36.5625 160.312 31.5169 160.312 25.3125C160.312 19.1081 155.267 14.0625 149.062 14.0625V2.8125H115.312C109.108 2.8125 104.062 7.85812 104.062 14.0625V47.8125H120.938V45ZM115.67 42.1875H109.688V14.0625C109.688 10.9603 112.21 8.4375 115.312 8.4375H143.438V19.6875H149.062C152.165 19.6875 154.688 22.2103 154.688 25.3125C154.688 28.4147 152.165 30.9375 149.062 30.9375H143.438V42.1875H137.455C136.207 37.3387 131.794 33.75 126.562 33.75C121.331 33.75 116.918 37.3387 115.67 42.1875Z" fill="white"/>
<path d="M149.062 64.6875C144.411 64.6875 140.625 68.4731 140.625 73.125V75.9375H146.25V73.125C146.25 71.5725 147.51 70.3125 149.062 70.3125C150.615 70.3125 151.875 71.5725 151.875 73.125V73.6088C151.875 74.3484 151.577 75.0741 151.051 75.5972L148.722 77.9259C147.128 79.5178 146.25 81.6384 146.25 83.8912V87.1875H151.875V83.8912C151.875 83.1516 152.173 82.4259 152.699 81.9028L155.028 79.5741C156.622 77.9822 157.5 75.8616 157.5 73.6088V73.125C157.5 68.4731 153.714 64.6875 149.062 64.6875Z" fill="white"/>
<path d="M146.25 92.8125H151.875V98.4375H146.25V92.8125Z" fill="white"/>
<path d="M149.062 53.4375C133.554 53.4375 120.938 66.0544 120.938 81.5625C120.938 92.7647 127.64 102.873 137.812 107.314V121.317L151.982 109.51C166.191 108.034 177.188 95.9344 177.188 81.5625C177.188 66.0544 164.571 53.4375 149.062 53.4375ZM150.66 103.981L149.754 104.043L143.438 109.308V103.416L141.564 102.755C132.592 99.5737 126.562 91.0603 126.562 81.5625C126.562 69.1566 136.657 59.0625 149.062 59.0625C161.468 59.0625 171.562 69.1566 171.562 81.5625C171.562 93.3075 162.38 103.154 150.66 103.981Z" fill="white"/>
<path d="M81.5625 143.438H87.1875V149.062H81.5625V143.438Z" fill="white"/>
<path d="M81.5625 154.688H87.1875V160.312H81.5625V154.688Z" fill="white"/>
<path d="M115.312 14.0625H120.938V19.6875H115.312V14.0625Z" fill="white"/>
<path d="M126.562 14.0625H132.188V19.6875H126.562V14.0625Z" fill="white"/>
<path d="M84.375 104.062H90V109.688H84.375V104.062Z" fill="white"/>
<path d="M95.625 104.062H101.25V109.688H95.625V104.062Z" fill="white"/>
<path d="M92.8125 46.0687V12.6562C92.8125 7.22813 88.3969 2.8125 82.9688 2.8125C77.5406 2.8125 73.125 7.22813 73.125 12.6562V39.6197L56.9588 41.0963C60.0103 37.6284 61.875 33.0947 61.875 28.125C61.875 17.2716 53.0409 8.4375 42.1875 8.4375C31.3341 8.4375 22.5 17.2716 22.5 28.125C22.5 33.8541 24.9778 39.0066 28.8984 42.6066C14.1412 44.9466 2.8125 57.7209 2.8125 73.125V81.5625C2.8125 89.3166 9.12094 95.625 16.875 95.625H19.6875V106.875V109.688V164.531C19.6875 171.509 25.3659 177.188 32.3438 177.188C36.3403 177.188 39.8672 175.289 42.1875 172.389C44.5078 175.289 48.0347 177.188 52.0312 177.188C59.0091 177.188 64.6875 171.509 64.6875 164.531V61.6078L80.1506 60.0609C87.3675 59.3381 92.8125 53.3222 92.8125 46.0687ZM28.125 28.125C28.125 20.3709 34.4334 14.0625 42.1875 14.0625C49.9416 14.0625 56.25 20.3709 56.25 28.125C56.25 35.8791 49.9416 42.1875 42.1875 42.1875C34.4334 42.1875 28.125 35.8791 28.125 28.125ZM37.9688 95.625C43.3969 95.625 47.8125 91.2094 47.8125 85.7812C47.8125 80.3531 43.3969 75.9375 37.9688 75.9375H25.3125V70.3125H47.8125V85.7812V104.062H25.3125V95.625H37.9688ZM32.3438 171.562C28.4653 171.562 25.3125 168.41 25.3125 164.531V109.688H39.375V164.531C39.375 168.41 36.2222 171.562 32.3438 171.562ZM59.0625 56.5172V164.531C59.0625 168.41 55.9097 171.562 52.0312 171.562C48.1528 171.562 45 168.41 45 164.531V109.688H53.4375V64.6875H19.6875V75.9375H14.0625V81.5625H37.9688C40.2947 81.5625 42.1875 83.4553 42.1875 85.7812C42.1875 88.1072 40.2947 90 37.9688 90H16.875C12.2231 90 8.4375 86.2144 8.4375 81.5625V73.125C8.4375 59.1666 19.7916 47.8125 33.75 47.8125L42.03 47.8041C42.0834 47.8041 42.1341 47.8125 42.1875 47.8125C42.2409 47.8125 42.2944 47.8041 42.3506 47.8041L45.2559 47.8013L78.75 44.7553V12.6562C78.75 10.3303 80.6428 8.4375 82.9688 8.4375C85.2947 8.4375 87.1875 10.3303 87.1875 12.6562V46.0687C87.1875 50.4225 83.9222 54.0309 79.5909 54.4641L59.0625 56.5172Z" fill="white"/>
</svg>
