<svg width="180" height="180" viewBox="0 0 180 180" fill="none" xmlns="http://www.w3.org/2000/svg">
<g clip-path="url(#clip0)">
<path d="M150.402 64.9557C147.121 61.6045 142.564 59.6825 137.897 59.6825H133.179C132.27 59.6825 131.53 58.9428 131.53 58.0336V47.927C131.53 46.4705 130.35 45.2903 128.894 45.2903C127.437 45.2903 126.257 46.4705 126.257 47.927V58.0336C126.257 61.8506 129.362 64.956 133.179 64.956H137.897C144.297 64.956 149.948 70.2085 149.99 76.6862C150.032 83.1329 144.654 88.5253 138.21 88.5253H133.179C129.362 88.5253 126.257 91.6307 126.257 95.4474V125.626H115.171L114.593 116.949C114.229 111.421 108.353 107.696 103.197 109.744V90.782C103.197 84.573 96.4683 80.3474 90.8681 83.064C89.8661 80.0901 87.2156 77.8383 84.1222 77.3306C80.186 76.6844 76.8985 79.1205 75.5847 81.0987C75.1751 81.7157 74.8147 82.3493 74.5974 83.0651C73.7614 82.658 72.8821 82.3985 71.9596 82.287C70.6465 82.1274 69.2824 82.2979 68.04 82.7409C65.0678 83.8006 62.7815 86.4623 62.353 89.6145C56.7837 87.2139 50.3911 91.4694 50.3911 97.4974V125.626H30.0317V95.4477C30.0317 94.5386 30.7714 93.7992 31.6806 93.7992H37.1405C46.4029 93.7992 54.18 86.0752 54.1955 76.8011C54.2113 67.416 46.148 59.6828 36.8272 59.6828H31.6802C30.7711 59.6828 30.0314 58.9431 30.0314 58.034V29.4056H59.4402C63.2572 29.4056 66.3626 26.3002 66.3626 22.4832V17.3433C66.3626 11.2509 71.0937 5.79103 77.2353 5.30586C83.9872 4.77253 89.9284 10.2848 89.9284 17.055V22.4829C89.9284 26.2999 93.0324 29.4053 96.8473 29.4053H126.256V35.5486C126.256 37.0052 127.437 38.1854 128.893 38.1854C130.349 38.1854 131.53 37.0052 131.53 35.5486V26.7682C131.53 25.3116 130.349 24.1314 128.893 24.1314H96.8473C95.9399 24.1314 95.2019 23.3917 95.2019 22.4825V17.0546C95.2019 7.22965 86.5558 -0.754151 76.7547 0.0569215C67.9471 0.785726 61.0891 8.56914 61.0891 17.3426V22.4825C61.0891 23.3917 60.3494 24.1314 59.4402 24.1314H27.3946C25.9384 24.1314 24.7578 25.3116 24.7578 26.7682V58.0333C24.7578 61.8503 27.8632 64.9557 31.6802 64.9557H36.8272C43.2268 64.9557 48.8783 70.2082 48.9202 76.6858C48.962 83.1326 43.5837 88.5249 37.1401 88.5249H31.6802C27.8632 88.5249 24.7578 91.6304 24.7578 95.447V128.263C24.7578 129.719 25.9384 130.899 27.3946 130.899H50.3908V148.496C50.3908 154.307 53.0979 159.556 53.0979 165.332V177.363C53.0979 178.82 54.2785 180 55.7347 180H60.7705C62.2267 180 63.4073 178.82 63.4073 177.363C63.4073 175.907 62.2267 174.726 60.7705 174.726H58.3714V165.332C58.3714 159.522 55.6643 154.272 55.6643 148.496V97.497C55.6643 93.236 62.2739 93.2339 62.2739 97.497V125.802C62.2739 127.258 63.4544 128.439 64.9106 128.439C66.3668 128.439 67.5474 127.258 67.5474 125.802V90.7824C67.5474 86.5147 74.1569 86.521 74.1569 90.7824V125.802C74.1569 127.258 75.3375 128.439 76.7937 128.439C78.2499 128.439 79.4305 127.258 79.4305 125.802V85.7968C79.4305 81.5266 86.04 81.5368 86.04 85.7968V125.802C86.04 127.258 87.2206 128.439 88.6768 128.439C90.133 128.439 91.3135 127.258 91.3135 125.802V90.7824C91.3135 86.5147 97.9231 86.521 97.9231 90.7824V133.593C97.9231 135.05 99.1036 136.23 100.56 136.23C102.016 136.23 103.197 135.05 103.197 133.593V117.502C103.197 113.663 109.079 113.475 109.33 117.297L110.842 139.984C111.425 148.722 104.107 154.369 98.6543 160.072C98.1853 160.563 97.9234 161.216 97.9234 161.894V174.727H73.9579C72.5017 174.727 71.3212 175.907 71.3212 177.364C71.3212 178.82 72.5017 180 73.9579 180H100.56C102.016 180 103.197 178.82 103.197 177.364V162.952C109.638 156.215 116.791 149.921 116.104 139.633L115.522 130.9H128.893C130.349 130.9 131.53 129.72 131.53 128.263V95.4477C131.53 94.5386 132.27 93.7992 133.179 93.7992H138.21C144.973 93.7992 151.242 89.6647 153.899 83.4416C156.578 77.1706 155.164 69.8193 150.402 64.9557Z" fill="white"/>
</g>
<defs>
<clipPath id="clip0">
<rect width="180" height="180" fill="white"/>
</clipPath>
</defs>
</svg>
