<svg width="25" height="24" viewBox="0 0 25 24" fill="none" xmlns="http://www.w3.org/2000/svg">
<path d="M12.4875 15.9976C12.2209 15.9981 11.9626 15.9168 11.7573 15.7678L4.91214 10.7703C4.67916 10.6007 4.53264 10.3569 4.50483 10.0926C4.47701 9.82832 4.57018 9.56518 4.76383 9.36107C4.95747 9.15695 5.23574 9.0286 5.53742 9.00423C5.83909 8.97986 6.13946 9.06148 6.37244 9.23113L12.4875 13.7088L18.6025 9.39105C18.7192 9.30803 18.8534 9.24603 18.9976 9.20862C19.1417 9.1712 19.2929 9.15912 19.4423 9.17305C19.5918 9.18698 19.7367 9.22666 19.8686 9.2898C20.0005 9.35294 20.1169 9.4383 20.2111 9.54097C20.3156 9.64374 20.3947 9.7643 20.4435 9.89511C20.4923 10.0259 20.5098 10.1641 20.4948 10.3011C20.4798 10.4381 20.4327 10.5709 20.3564 10.6912C20.2801 10.8115 20.1762 10.9167 20.0514 11.0002L13.2062 15.8277C12.995 15.9532 12.742 16.013 12.4875 15.9976Z" fill="#7A63FF"/>
</svg>
