<svg width="25" height="24" viewBox="0 0 25 24" fill="none" xmlns="http://www.w3.org/2000/svg">
<path d="M24.5 12.6534C24.5 11.2772 24.2409 9.95762 23.7659 8.73686C23.4412 12.3337 21.4132 14.1812 19.2941 13.3209C17.3092 12.5146 18.6468 9.3716 18.7456 7.87185C18.9122 5.32955 18.7372 2.41949 13.8532 0C15.8826 3.67095 14.0882 5.95161 12.2064 6.09044C10.1184 6.24462 8.20612 4.39379 8.912 1.39029C6.62635 2.98281 6.56 5.66327 7.26518 7.3973C8.00071 9.20474 7.23553 10.7065 5.44188 10.8734C3.43718 11.0602 2.32329 8.84365 3.35035 5.31153C1.57294 7.29051 0.5 9.8535 0.5 12.6534C0.5 18.9201 5.87247 24 12.5 24C19.1275 24 24.5 18.9201 24.5 12.6534Z" fill="#F4900C"/>
<path d="M19.8369 15.99C19.9414 18.0484 18.0292 18.8553 17 18.4655C15.5134 17.9029 15.9122 16.9364 15.5297 14.9341C15.1471 12.9318 13.6767 11.5415 11.5005 10.9294C13.0887 15.1563 10.6202 16.7142 9.32636 16.9925C8.00495 17.2768 6.67718 16.9918 6.52542 14.318C4.98377 15.7691 4.02942 17.7767 4.02942 19.9953C4.02942 20.2409 4.04565 20.4826 4.06824 20.7228C6.2353 22.7479 9.21201 24 12.5 24C15.788 24 18.7647 22.7479 20.9318 20.7228C20.9544 20.4826 20.9706 20.2409 20.9706 19.9953C20.9706 18.5356 20.5584 17.168 19.8369 15.99Z" fill="#FFCC4D"/>
</svg>
