<svg width="157" height="153" viewBox="0 0 157 153" fill="none" xmlns="http://www.w3.org/2000/svg">
<g clip-path="url(#clip0)">
<path d="M87.944 79.9301C89.2327 79.9301 90.2776 78.8786 90.2776 77.5816V68.4321C90.2776 67.1351 89.2327 66.0836 87.944 66.0836C86.6552 66.0836 85.6104 67.1351 85.6104 68.4321V77.5816C85.6104 78.8786 86.6552 79.9301 87.944 79.9301Z" fill="white"/>
<path d="M120.171 79.9301C121.46 79.9301 122.505 78.8786 122.505 77.5816V68.4321C122.505 67.1351 121.46 66.0836 120.171 66.0836C118.882 66.0836 117.837 67.1351 117.837 68.4321V77.5816C117.837 78.8786 118.882 79.9301 120.171 79.9301Z" fill="white"/>
<path d="M142.796 89.3901C150.651 89.2551 157 82.7869 157 74.8507C157 68.1075 152.415 62.423 146.217 60.7844C148.495 58.3182 149.835 55.0322 149.835 51.5552V50.5689C149.835 46.926 148.365 43.4618 145.829 40.9383C153.047 28.2213 151.271 11.702 140.497 0.858979C139.585 -0.0581707 138.108 -0.0581707 137.197 0.858979L122.727 15.42C120.533 12.631 117.173 10.9458 113.507 10.9458C110.591 10.9458 107.819 12.0314 105.686 13.9386C100.832 9.04977 94.278 6.29268 87.3274 6.29268C84.5691 6.29268 81.8817 6.71916 79.307 7.5621C77.6252 3.18145 73.3986 0.0648883 68.4598 0.0648883H23.4181C22.1293 0.0648883 21.0845 1.11637 21.0845 2.41334C21.0845 3.71032 22.1293 4.7618 23.4181 4.7618H68.4592C72.2962 4.7618 75.418 7.90341 75.418 11.7652V83.5024C75.418 84.205 74.917 84.4872 74.7017 84.5755C74.4867 84.6641 73.9325 84.8156 73.4437 84.314L58.7384 69.225C58.2993 68.7747 57.6991 68.5208 57.0725 68.5208H11.6263C7.78891 68.5205 4.66718 65.3789 4.66718 61.5174V11.7649C4.66718 7.90309 7.78891 4.76149 11.6263 4.76149H14.0831C15.3718 4.76149 16.4167 3.71 16.4167 2.41303C16.4167 1.11606 15.3718 0.0645752 14.0831 0.0645752H11.6263C5.21542 0.0645752 0 5.31322 0 11.7649V61.5174C0 67.9688 5.21542 73.2174 11.6263 73.2174H50.2506C50.1903 73.7582 50.1573 74.303 50.1573 74.8516C50.1573 82.8717 56.6406 89.3964 64.61 89.3964C64.8455 89.3964 65.0808 89.3895 65.3154 89.3782C66.7796 97.8831 70.9496 105.466 76.8993 111.193C69.1406 118.648 64.7376 128.931 64.7376 139.807V142.192L51.2889 128.777C51.0525 128.541 50.7777 128.368 50.4855 128.255V125.038C50.4855 121.437 47.5745 118.507 43.996 118.507C40.4175 118.507 37.5064 121.437 37.5064 125.038V128.096H27.5165C22.9874 128.096 19.3028 131.804 19.3028 136.362C19.3028 140.238 22.0366 143.638 25.803 144.446L34.5406 146.322L45.2231 157.145C45.6612 157.588 46.2571 157.838 46.8787 157.838L141.046 157.933C142.335 157.933 143.38 156.882 143.38 155.585V139.806C143.38 138.509 142.335 137.458 141.046 137.458C139.758 137.458 138.713 138.509 138.713 139.806V153.236H118.776L124.264 147.714C124.965 147.008 125.147 145.933 124.716 145.034L122.374 140.138H127.784C128.883 140.138 129.833 139.366 130.065 138.285L133.635 121.625C135.556 124.784 136.972 128.237 137.812 131.87C138.063 132.954 139.022 133.687 140.083 133.687C140.258 133.687 140.436 133.667 140.614 133.625C141.869 133.331 142.65 132.069 142.357 130.805C140.698 123.628 137.069 117.063 131.862 111.821C131.655 111.612 131.444 111.405 131.229 111.199C137.202 105.44 141.336 97.8311 142.796 89.3901ZM152.333 74.8507C152.333 80.0182 148.357 84.2658 143.323 84.6656C143.358 83.9818 143.378 83.2941 143.378 82.6028V74.5397C144.323 74.5977 145.399 74.9518 145.919 76.1536C146.301 77.0382 147.159 77.5661 148.06 77.5661C148.37 77.5661 148.686 77.5035 148.989 77.3707C150.171 76.8537 150.713 75.47 150.199 74.2808C148.762 70.9566 145.859 69.9343 143.379 69.8463V65.0426C148.387 65.4691 152.333 69.7035 152.333 74.8507ZM145.168 50.5686V51.5549C145.168 53.5195 144.512 55.3895 143.372 56.9013C143.341 53.3479 142.846 49.8449 141.893 46.4638C142.33 45.9665 142.75 45.4593 143.153 44.9426C144.437 46.5105 145.168 48.4951 145.168 50.5686ZM103.884 18.9352C104.349 19.5114 105.053 19.8323 105.794 19.8019C106.53 19.7712 107.209 19.3917 107.625 18.7786C108.955 16.815 111.154 15.6424 113.506 15.6424C116.409 15.6424 118.994 17.394 120.092 20.1047C120.387 20.8331 121.025 21.3648 121.791 21.5204C122.557 21.676 123.35 21.4352 123.903 20.8788L138.779 5.90785C148.252 17.1363 147.724 34.0439 137.196 44.6398C128.145 53.7484 114.072 55.6406 102.974 49.2415C102.153 48.7687 101.131 48.8404 100.384 49.4235C96.6123 52.3666 92.0972 53.9222 87.3267 53.9222C84.8236 53.9222 82.3954 53.4894 80.0851 52.6465V12.265C82.3954 11.4223 84.8236 10.9896 87.3267 10.9896C93.7783 10.9893 99.8136 13.8854 103.884 18.9352ZM64.6097 84.6995C59.2141 84.6995 54.8242 80.2819 54.8242 74.8516C54.8242 74.3008 54.8693 73.7547 54.9586 73.2174H56.0921L64.736 82.087V82.6031C64.736 83.3048 64.755 84.0021 64.7911 84.6951C64.7307 84.696 64.6704 84.6995 64.6097 84.6995ZM69.7025 87.1829L70.1114 87.6025C71.2312 88.7516 72.7281 89.3619 74.258 89.3616C74.9995 89.3616 75.749 89.2182 76.4665 88.9232C78.6644 88.0196 80.0848 85.8915 80.0848 83.5021V57.5829C82.4218 58.2662 84.8444 58.6194 87.3264 58.6194C92.6259 58.6194 97.6658 57.045 101.997 54.0515C113.698 60.0924 127.883 58.5179 138.001 50.221C138.47 52.5212 138.711 54.8738 138.711 57.2526V82.6034C138.711 99.2997 126.906 113.701 110.639 116.846C108.483 117.264 106.268 117.476 104.055 117.476C86.491 117.476 71.9381 104.255 69.7025 87.1829ZM104.056 133.639L100.372 128.903L104.057 124.866L107.742 128.902L104.056 133.639ZM94.8798 127.977L90.9251 119.901C93.9149 120.97 97.0696 121.685 100.34 121.995L94.8798 127.977ZM97.1717 132.409L101.093 137.449L100.126 138.692L97.092 132.496L97.1717 132.409ZM104.056 141.259L105.697 143.369L104.056 146.718L102.416 143.369L104.056 141.259ZM107.986 138.692L107.02 137.449L110.941 132.408L111.021 132.495L107.986 138.692ZM113.234 127.977L107.775 121.996C109.035 121.877 110.287 121.697 111.522 121.457C113.469 121.081 115.359 120.561 117.183 119.912L113.234 127.977ZM84.1664 116.724L101.963 153.069C101.992 153.128 102.027 153.181 102.06 153.237H95.9371L88.3199 145.571L91.5549 138.809C91.9031 138.082 91.8551 137.225 91.4283 136.541C91.0014 135.857 90.2549 135.442 89.4525 135.442H82.2134L78.1787 116.613C78.9046 115.794 79.6704 115.004 80.4775 114.249C81.6573 115.142 82.8895 115.967 84.1664 116.724ZM69.4048 139.807C69.4048 133.301 71.1923 127.036 74.4786 121.626L78.0484 138.285C78.2802 139.367 79.2304 140.139 80.3297 140.139H85.7393L83.397 145.034C82.9667 145.934 83.148 147.008 83.8494 147.714L89.3374 153.236H75.8109L69.4051 146.847V139.807H69.4048ZM42.1733 125.038C42.1733 124.027 42.9907 123.204 43.9957 123.204C45.0007 123.204 45.8181 124.027 45.8181 125.038V128.097H42.173V125.038H42.1733ZM23.9697 136.363C23.9697 134.395 25.5606 132.794 27.5162 132.794H39.8394H43.9241L34.9687 141.612L26.7759 139.853C25.1502 139.504 23.9697 138.036 23.9697 136.363ZM39.0189 144.196L49.6355 133.741L69.0849 153.142H47.8492L39.0189 144.196ZM128.561 115.142C129.035 115.619 129.49 116.111 129.934 116.612L125.899 135.442H118.66C117.857 135.442 117.111 135.857 116.684 136.541C116.257 137.225 116.209 138.081 116.558 138.809L119.793 145.571L112.175 153.236H106.052C106.085 153.181 106.121 153.128 106.149 153.069L123.933 116.753C125.222 115.992 126.463 115.16 127.649 114.262C127.961 114.554 128.267 114.846 128.561 115.142Z" fill="white"/>
<path d="M104.058 100.9C108.866 100.9 112.778 96.963 112.778 92.1242C112.778 87.7558 109.844 85.541 104.058 85.541C98.2719 85.541 95.3384 87.7561 95.3384 92.1242C95.3384 96.963 99.2498 100.9 104.058 100.9ZM104.058 90.2379C108.111 90.2379 108.111 91.197 108.111 92.1242C108.111 94.3731 106.293 96.2027 104.058 96.2027C101.823 96.2027 100.006 94.3731 100.006 92.1242C100.006 91.197 100.006 90.2379 104.058 90.2379Z" fill="white"/>
<path d="M45.4034 36.6493C46.0682 35.6227 46.4545 34.399 46.4545 33.0867C46.4545 29.4693 43.5194 26.5262 39.9117 26.5262H34.5595C33.2872 26.5262 32.2563 27.5602 32.2563 28.8356V47.3106C32.2563 47.9248 32.5005 48.5139 32.9344 48.9471C33.3662 49.3782 33.9506 49.6199 34.5595 49.6199C34.5696 49.6199 39.4901 49.5981 40.8462 49.5981C44.8509 49.5981 48.1088 46.3314 48.1088 42.3159C48.1091 40.0293 47.0524 37.9853 45.4034 36.6493ZM36.863 31.145H39.912C40.9798 31.145 41.8485 32.0161 41.8485 33.0867C41.8485 34.1573 40.9798 35.0284 39.912 35.0284C39.8611 35.0284 39.8101 35.03 39.76 35.0333H36.863V31.145ZM40.8462 44.979C40.1129 44.979 38.341 44.9855 36.8627 44.9913V39.6521H40.8462C42.311 39.6521 43.5025 40.8468 43.5025 42.3155C43.5028 43.7843 42.311 44.979 40.8462 44.979Z" fill="white"/>
<path d="M20.7741 28.274C20.7676 28.2567 20.7608 28.2395 20.7538 28.2222C20.3346 27.1935 19.3439 26.5278 18.2354 26.5262C17.1268 26.5275 16.1361 27.1935 15.7169 28.2222C15.7099 28.2395 15.7031 28.2567 15.6967 28.274L8.77798 46.4887C8.32503 47.6807 8.92201 49.0149 10.1104 49.4687C11.2989 49.922 12.6298 49.3249 13.0827 48.1327L14.2426 45.0837H22.2287L23.3886 48.1327C23.8416 49.3249 25.1725 49.9223 26.3609 49.4687C27.5493 49.0149 28.146 47.6804 27.6934 46.4887L20.7741 28.274ZM15.9991 40.4647L18.2351 34.5878L20.471 40.4647H15.9991Z" fill="white"/>
<path d="M71.3511 42.9337C70.3764 42.1137 68.9239 42.2412 68.1064 43.2182C67.9458 43.4101 67.7723 43.5896 67.5908 43.7515C66.6628 44.5805 65.4768 45.0008 64.0664 45.0008C60.2566 45.0008 57.1569 41.893 57.1569 38.0727C57.1569 34.2524 60.2566 31.1446 64.0664 31.1446C65.4513 31.1446 66.7866 31.5532 67.928 32.3263C68.9822 33.0404 70.4139 32.7623 71.1257 31.7056C71.8375 30.6488 71.5605 29.213 70.5063 28.4989C68.6008 27.2082 66.3735 26.5255 64.0661 26.5255C57.7161 26.5255 52.5503 31.7053 52.5503 38.0724C52.5503 44.4394 57.7161 49.6192 64.0661 49.6192C66.6041 49.6192 68.8824 48.7826 70.6543 47.1999C71.0016 46.8898 71.3311 46.5487 71.6342 46.1865C72.4526 45.2101 72.3255 43.7534 71.3511 42.9337Z" fill="white"/>
</g>
<defs>
<clipPath id="clip0">
<rect width="157" height="158" fill="white"/>
</clipPath>
</defs>
</svg>
