<svg width="180" height="165" viewBox="0 0 180 165" fill="none" xmlns="http://www.w3.org/2000/svg">
<path d="M180 138.633V87.7467H150.751L129.867 124.238V64.239C133.684 63.101 136.474 59.5615 136.474 55.3803C136.474 51.1992 133.683 47.6597 129.867 46.5217V38.2262H124.594V46.1363H107.955L90.4783 39.7752C94.1472 37.8855 96.926 34.7467 98.3371 30.8687L101.595 21.9172C103.082 17.8323 102.884 13.3998 101.035 9.43701C99.1872 5.47384 95.9201 2.47255 91.835 0.985786C83.3739 -2.09391 73.984 2.28446 70.9036 10.7462L68.1259 18.3787H59.4332V23.6521H66.7422C66.4651 26.4151 66.9102 29.1572 67.9607 31.6393C65.8277 31.1105 63.5907 31.3243 61.5622 32.2703C61.3956 32.348 61.2328 32.431 61.0722 32.5171L40.673 30.8187L33.0385 50.7141L37.9618 52.6034L44.1788 36.4019L56.6681 37.4418C56.6344 37.5266 56.5992 37.6102 56.5679 37.696L39.7193 81.6024L29.8403 73.7678L36.0725 57.527L31.1492 55.6377L23.5298 75.4936L37.5125 86.5826C34.0693 92.8556 29.4508 102.02 36.0528 113.655L20.6772 151.52V159.726H0V165H180V143.906H174.727V159.726H61.6044L88.409 136.79H140.15V131.516H131.777L153.809 93.0201H174.727V138.633H180ZM90.0715 115.698H100.618V126.245H103.255C106.934 126.245 107.56 127.474 107.827 127.999C108.268 128.867 108.432 130.106 108.493 131.516H90.0719V115.698H90.0715ZM112.526 125.607C111.282 123.162 109.056 121.675 105.892 121.168V96.4468C105.892 89.1772 99.9775 83.2632 92.7079 83.2632H76.2084L88.3556 62.4703L102.48 64.6236H124.594V131.516H113.768C113.691 129.423 113.427 127.376 112.526 125.607ZM131.201 55.3803C131.201 57.5695 129.42 59.3506 127.231 59.3506H119.997V51.4098H127.231C129.42 51.4098 131.201 53.1912 131.201 55.3803ZM75.8592 12.5498C77.4919 8.06416 81.7427 5.27345 86.2609 5.27345C87.5139 5.27345 88.788 5.48826 90.0318 5.94072C95.1875 7.81736 98.102 13.1537 97.1151 18.3783H73.7383L75.8592 12.5498ZM95.3524 23.6521L93.3819 29.0651C92.3771 31.8263 90.344 34.0369 87.6574 35.2896C84.9728 36.5415 81.9743 36.6782 79.2149 35.6756L79.2051 35.6721C74.189 33.8436 71.2942 28.7399 72.0546 23.6521H95.3524ZM61.4989 39.5649L61.5148 39.522C62.3434 37.2446 64.8701 36.0665 67.1475 36.8955L107.025 51.4098H114.724V59.3506H102.88L78.1455 55.5797L77.3506 60.7927L82.7478 61.6157L70.101 83.2632H44.7297L61.4989 39.5649ZM41.2254 112.038C35.0153 102.089 38.9553 94.8883 42.4558 88.537H92.7079C97.0694 88.537 100.618 92.0853 100.618 96.4471V110.425H90.0712V99.0839H71.619C71.586 99.0839 71.5529 99.0839 71.5196 99.0839C65.827 99.0839 58.9529 100.007 56.0001 107.026L42.6109 138.851H31.5131L41.9376 113.179L41.2254 112.038ZM25.9506 152.55L29.3717 144.125H40.3925L35.9554 154.672H39.9253C43.5784 154.672 44.2175 155.944 44.4907 156.488C44.9027 157.308 45.0743 158.457 45.1463 159.726H25.9506V152.55ZM50.4282 159.726C50.3382 157.756 50.0608 155.827 49.2027 154.119C48.1086 151.942 46.2678 150.511 43.7091 149.841L60.8616 109.071C62.2875 105.682 65.2807 104.357 71.5319 104.357H71.6148H84.7984V132.939L53.4942 159.726H50.4282V159.726Z" fill="white"/>
<path d="M164.181 98.2935H169.454V103.567H164.181V98.2935Z" fill="white"/>
<path d="M164.181 108.841H169.454V114.114H164.181V108.841Z" fill="white"/>
<path d="M64.5908 47.8173L66.4787 42.8919L71.4038 44.7796L69.5159 49.705L64.5908 47.8173Z" fill="white"/>
<path d="M60.8149 57.6593L62.7028 52.7339L67.6282 54.6218L65.7403 59.5472L60.8149 57.6593Z" fill="white"/>
</svg>
