<svg width="121" height="176" viewBox="0 0 121 176" fill="none" xmlns="http://www.w3.org/2000/svg">
<path d="M38.332 97.0022C39.7564 97.0022 40.9105 95.8477 40.9105 94.4236C40.9105 92.9996 39.7564 91.8451 38.332 91.8451H30.0346C28.6102 91.8451 27.4561 92.9996 27.4561 94.4236V107.866C27.4561 109.29 28.6102 110.444 30.0346 110.444H38.3323C39.7567 110.444 40.9109 109.29 40.9109 107.866C40.9109 106.442 39.7567 105.287 38.3323 105.287H32.6131V103.723H36.5067C37.9311 103.723 39.0853 102.569 39.0853 101.145C39.0853 99.7206 37.9311 98.5661 36.5067 98.5661H32.6131V97.0022H38.332Z" fill="white"/>
<path d="M54.9877 107.006C56.4121 107.006 57.5663 105.852 57.5663 104.428V95.1343C57.5663 91.4247 54.5484 88.4071 50.839 88.4071C47.1297 88.4071 44.1118 91.425 44.1118 95.1343V104.428C44.1118 105.852 45.266 107.006 46.6904 107.006C48.1147 107.006 49.2689 105.852 49.2689 104.428V102.004H52.4096V104.428C52.4092 105.852 53.5634 107.006 54.9877 107.006ZM49.2686 96.8468V95.1343C49.2686 94.2683 49.973 93.5642 50.8387 93.5642C51.7044 93.5642 52.4089 94.2686 52.4089 95.1343V96.8468H49.2686Z" fill="white"/>
<path d="M68.2832 98.411H63.3461C61.9217 98.411 60.7676 99.5655 60.7676 100.99C60.7676 102.414 61.9217 103.568 63.3461 103.568H68.2832C71.5579 103.568 74.222 100.904 74.222 97.6292C74.222 94.3544 71.5579 91.6899 68.2832 91.6899H66.7065C66.2753 91.6899 65.9247 91.3389 65.9247 90.9081C65.9247 90.4773 66.2757 90.1263 66.7065 90.1263H71.6435C73.0679 90.1263 74.222 88.9718 74.222 87.5478C74.222 86.1237 73.0679 84.9692 71.6435 84.9692H66.7065C63.4317 84.9692 60.7676 87.6337 60.7676 90.9081C60.7676 94.1829 63.4317 96.847 66.7065 96.847H68.2832C68.7143 96.847 69.065 97.198 69.065 97.6292C69.065 98.06 68.7143 98.411 68.2832 98.411Z" fill="white"/>
<path d="M23.5849 138.451C22.1605 138.451 21.0063 139.606 21.0063 141.03V150.323C21.0063 154.033 24.0243 157.051 27.7336 157.051C31.4429 157.051 34.4608 154.033 34.4608 150.323V141.03C34.4608 139.606 33.3067 138.451 31.8823 138.451C30.4579 138.451 29.3037 139.606 29.3037 141.03V150.323C29.3037 151.189 28.5993 151.894 27.7336 151.894C26.8679 151.894 26.1634 151.189 26.1634 150.323V141.03C26.1634 139.606 25.0089 138.451 23.5849 138.451Z" fill="white"/>
<path d="M45.1777 148.455H40.2406C38.8163 148.455 37.6621 149.61 37.6621 151.034C37.6621 152.458 38.8163 153.612 40.2406 153.612H45.1777C48.4524 153.612 51.1166 150.948 51.1166 147.673C51.1166 144.398 48.4524 141.734 45.1777 141.734H43.601C43.1699 141.734 42.8192 141.383 42.8192 140.952C42.8192 140.521 43.1702 140.17 43.601 140.17H48.538C49.9624 140.17 51.1166 139.016 51.1166 137.592C51.1166 136.168 49.9624 135.013 48.538 135.013H43.601C40.3262 135.013 37.6621 137.678 37.6621 140.953C37.6621 144.227 40.3262 146.891 43.601 146.891H45.1777C45.6088 146.891 45.9595 147.242 45.9595 147.673C45.9595 148.105 45.6085 148.455 45.1777 148.455Z" fill="white"/>
<path d="M65.1922 136.732C66.6166 136.732 67.7707 135.578 67.7707 134.154C67.7707 132.73 66.6166 131.575 65.1922 131.575H56.8945C55.4701 131.575 54.3159 132.73 54.3159 134.154V147.596C54.3159 149.02 55.4701 150.175 56.8945 150.175H65.1922C66.6166 150.175 67.7707 149.02 67.7707 147.596C67.7707 146.172 66.6166 145.018 65.1922 145.018H59.473V143.454H63.3697C64.7941 143.454 65.9482 142.299 65.9482 140.875C65.9482 139.451 64.7941 138.297 63.3697 138.297H59.473V136.733H65.1922V136.732Z" fill="white"/>
<path d="M90.9915 112.193H82.6938C81.2694 112.193 80.1152 113.347 80.1152 114.771C80.1152 116.195 81.2694 117.35 82.6938 117.35H84.2639V128.213C84.2639 129.637 85.4181 130.792 86.8425 130.792C88.2669 130.792 89.421 129.637 89.421 128.213V117.35H90.9912C92.4155 117.35 93.5697 116.195 93.5697 114.771C93.5697 113.347 92.4159 112.193 90.9915 112.193Z" fill="white"/>
<path d="M101.778 112.193C98.0682 112.193 95.0503 115.211 95.0503 118.92V124.064C95.0503 127.774 98.0682 130.791 101.778 130.791C105.487 130.791 108.505 127.774 108.505 124.064V118.92C108.505 115.211 105.487 112.193 101.778 112.193ZM103.348 124.065C103.348 124.931 102.644 125.635 101.778 125.635C100.912 125.635 100.208 124.93 100.208 124.065V118.92C100.208 118.054 100.912 117.35 101.778 117.35C102.644 117.35 103.348 118.055 103.348 118.92V124.065Z" fill="white"/>
<path d="M118.496 115.339C117.699 114.514 117.333 113.39 117.494 112.254C118.06 108.253 115.898 104.521 112.38 102.946C114.741 101.206 116.242 98.4111 116.242 95.3292V67.8204C116.242 65.1218 114.636 62.6987 112.151 61.6463L98.3107 55.7879C98.0216 55.2643 97.674 54.7771 97.2762 54.3356C98.5184 52.9566 99.2758 51.1331 99.2758 49.1352V46.1352C99.2758 41.8459 95.7861 38.3566 91.4968 38.3566H64.6274C63.1683 38.3566 61.9812 37.1694 61.9812 35.7103V30.1579C61.9812 28.7338 60.827 27.5794 59.4026 27.5794C57.9783 27.5794 56.8241 28.7338 56.8241 30.1579V35.7103V37.364C56.8241 40.3208 54.4185 42.726 51.4618 42.726C50.0374 42.726 48.8832 43.8805 48.8832 45.3046C48.8832 46.7286 50.0374 47.8831 51.4618 47.8831C55.4245 47.8831 58.8814 45.6797 60.6747 42.4348C61.8041 43.1011 63.1147 43.491 64.5136 43.5113C63.8938 44.7548 63.5431 46.1548 63.5431 47.6359C63.5431 50.2681 64.6467 52.6458 66.4132 54.3363C64.6467 56.0268 63.5431 58.4046 63.5431 61.0367C63.5431 63.6689 64.6467 66.0467 66.4132 67.7372C64.6467 69.4276 63.5431 71.8054 63.5431 74.4376C63.5431 75.6512 63.7751 76.8239 64.2135 77.9117L52.8875 80.1183C51.49 80.3905 50.5775 81.7445 50.8498 83.1424C51.1217 84.5399 52.4743 85.4538 53.8739 85.1804L111.085 74.0346V95.3299C111.085 97.3817 109.623 99.1558 107.61 99.5481L107.184 99.6309C104.751 95.9574 99.9768 94.6114 95.9319 96.5886C94.9012 97.0926 93.7188 97.0923 92.6881 96.5886C90.6579 95.596 88.4442 95.4413 86.4346 95.9979V90.8742L90.0707 86.0073C90.923 84.8665 90.6892 83.2507 89.5481 82.3984C88.4067 81.5461 86.7915 81.7799 85.9389 82.921L83.8558 85.7092L81.7727 82.921C80.9197 81.7802 79.3048 81.5461 78.1634 82.3984C77.0226 83.2507 76.7888 84.8665 77.6408 86.0073L81.2769 90.8742V97.906C81.2769 98.4132 81.4254 98.8848 81.6781 99.2837C81.4237 99.6306 81.1909 100 80.9829 100.392C80.4452 101.405 79.4888 102.1 78.3587 102.298C75.7296 102.759 73.5812 104.317 72.3063 106.426L5.15708 119.507V98.2113C5.15708 96.1595 6.61894 94.3855 8.63295 93.9932L42.4218 87.4107C43.8193 87.1384 44.7318 85.7845 44.4595 84.3866C44.1875 82.989 42.8374 82.0769 41.4354 82.3485L24.2111 85.7041V72.5686C26.6408 74.5637 29.7477 75.7636 33.1294 75.7636C34.5538 75.7636 35.7079 74.6091 35.7079 73.1851C35.7079 71.761 34.5538 70.6065 33.1294 70.6065C28.2116 70.6065 24.2111 66.6057 24.2111 61.6879C24.2111 53.6814 28.575 46.3212 35.6003 42.4799C40.5068 39.7968 43.5549 34.6562 43.5549 29.0639V6.9122C43.5549 5.94439 44.3423 5.15708 45.3101 5.15708H45.823C51.8888 5.15708 56.8231 10.0917 56.8231 16.1571V18.4682C56.8231 19.8922 57.9772 21.0467 59.4016 21.0467C60.826 21.0467 61.9801 19.8922 61.9801 18.4682V16.1571C61.9808 7.2481 54.7324 0 45.8234 0H45.3104C41.499 0 38.3982 3.10078 38.3982 6.9122V29.0639C38.3982 32.7701 36.3784 36.1769 33.1263 37.955C24.4466 42.7013 19.0544 51.7949 19.0544 61.6879V86.709L7.64691 88.9314C3.21561 89.7946 0 93.6975 0 98.2117V126.042C0 128.741 1.60591 131.164 4.09059 132.216L8.00412 133.873L7.64726 133.942C3.21595 134.806 0 138.708 0 143.223V148.276C0 149.7 1.15415 150.855 2.57854 150.855C4.00292 150.855 5.15708 149.7 5.15708 148.276V143.223C5.15708 141.171 6.61894 139.397 8.63295 139.004L69.6546 127.118C69.8034 127.298 69.9578 127.475 70.1228 127.646C70.9205 128.47 71.2859 129.594 71.1254 130.73C70.4529 135.484 73.6303 139.857 78.359 140.687C79.4891 140.885 80.4452 141.58 80.9833 142.593C81.0967 142.807 81.2195 143.013 81.347 143.213V146.136C81.347 148.188 79.8852 149.962 77.8712 150.355L6.18127 164.318C5.83265 164.386 5.58683 164.234 5.47028 164.138C5.35373 164.042 5.15742 163.828 5.15742 163.475V159.966C5.15742 158.542 4.00327 157.387 2.57888 157.387C1.1545 157.387 0.000343616 158.542 0.000343616 159.966V163.474C0.000343616 165.278 0.79866 166.971 2.19073 168.118C3.2799 169.015 4.62693 169.492 6.00937 169.492C6.39409 169.492 6.7819 169.455 7.16696 169.38L19.0544 167.064V173.45C19.0544 174.874 20.2085 176.028 21.6329 176.028C23.0573 176.028 24.2114 174.874 24.2114 173.45V166.06L56.9912 159.675V173.45C56.9912 174.874 58.1453 176.028 59.5697 176.028C60.9941 176.028 62.1483 174.874 62.1483 173.45V158.671L78.8568 155.417C83.0042 154.609 86.086 151.138 86.4642 146.996C87.2151 147.201 87.9945 147.307 88.7815 147.307C90.0924 147.307 91.4253 147.014 92.6874 146.397C93.7189 145.893 94.9012 145.893 95.9316 146.397C100.246 148.506 105.386 146.835 107.636 142.594C108.174 141.58 109.131 140.885 110.261 140.687C114.989 139.858 118.167 135.484 117.494 130.731C117.334 129.595 117.699 128.47 118.497 127.646C121.835 124.195 121.835 118.789 118.496 115.339ZM68.6995 47.6352C68.6995 45.3623 70.5485 43.5133 72.8214 43.5133H91.4961C92.9418 43.5133 94.118 44.6895 94.118 46.1348V49.1349C94.118 50.5806 92.9418 51.7568 91.4961 51.7568H72.8214C70.5485 51.7571 68.6995 49.9081 68.6995 47.6352ZM68.6995 61.036C68.6995 58.7632 70.5485 56.9142 72.8214 56.9142H91.4961C92.9418 56.9142 94.118 58.0903 94.118 59.536V62.5361C94.118 63.9818 92.9418 65.1579 91.4961 65.1579H72.8214C70.5485 65.1579 68.6995 63.3089 68.6995 61.036ZM68.6995 74.4369C68.6995 72.164 70.5485 70.315 72.8214 70.315H91.4961C92.6534 70.315 93.636 71.0693 93.9829 72.1114L69.5053 76.88C68.9845 76.1765 68.6995 75.3321 68.6995 74.4369ZM99.0595 71.1223C98.7525 69.8423 98.1292 68.684 97.2759 67.7365C98.518 66.3575 99.2754 64.5339 99.2754 62.5361V61.7965L110.141 66.3956C110.714 66.6384 111.085 67.1977 111.085 67.8204V68.7796L99.0595 71.1223ZM56.9912 114.663V124.331L24.2114 130.716V121.049L56.9912 114.663ZM6.10082 127.467C5.52735 127.224 5.15708 126.665 5.15708 126.042V124.761L19.0544 122.053V131.72L17.0651 132.107L6.10082 127.467ZM62.1483 123.327V113.658L71.0862 111.917C71.0978 112.029 71.1095 112.141 71.1254 112.254C71.2859 113.39 70.9205 114.514 70.1228 115.339C68.2625 117.262 67.4405 119.793 67.654 122.254L62.1483 123.327ZM114.79 124.06C112.878 126.036 112.003 128.731 112.388 131.453C112.668 133.437 111.343 135.261 109.37 135.607C106.662 136.082 104.37 137.748 103.081 140.177C102.142 141.946 99.9964 142.643 98.1966 141.763C95.7267 140.556 92.8934 140.556 90.4231 141.763C88.624 142.643 86.478 141.946 85.539 140.177C84.2508 137.748 81.9586 136.082 79.2505 135.607C77.2774 135.261 75.9513 133.436 76.2319 131.452C76.617 128.73 75.7416 126.036 73.8301 124.06C72.437 122.62 72.437 120.364 73.8301 118.924C75.742 116.948 76.617 114.253 76.2319 111.531C75.9517 109.547 77.2774 107.722 79.2505 107.376C81.9586 106.901 84.2508 105.236 85.539 102.807C86.2036 101.556 87.4709 100.84 88.7932 100.84C89.3401 100.84 89.8968 100.963 90.4235 101.22C92.8941 102.428 95.727 102.427 98.1966 101.22C99.9967 100.341 102.142 101.038 103.081 102.807C104.37 105.236 106.662 106.901 109.37 107.376C111.343 107.723 112.669 109.548 112.388 111.531C112.003 114.253 112.878 116.948 114.79 118.924C116.183 120.364 116.183 122.62 114.79 124.06Z" fill="white"/>
</svg>
